<?xml version="1.0" encoding="UTF-8" standalone="no"?>
<!-- Created with Inkscape (http://www.inkscape.org/) -->

<svg
   version="1.1"
   id="svg1"
   width="422.66666"
   height="428"
   viewBox="0 0 422.66666 428"
   sodipodi:docname="Logo_RSAS_v03.eps"
   xmlns:inkscape="http://www.inkscape.org/namespaces/inkscape"
   xmlns:sodipodi="http://sodipodi.sourceforge.net/DTD/sodipodi-0.dtd"
   xmlns="http://www.w3.org/2000/svg"
   xmlns:svg="http://www.w3.org/2000/svg">
  <defs
     id="defs1" />
  <sodipodi:namedview
     id="namedview1"
     pagecolor="#ffffff"
     bordercolor="#000000"
     borderopacity="0.25"
     inkscape:showpageshadow="2"
     inkscape:pageopacity="0.0"
     inkscape:pagecheckerboard="0"
     inkscape:deskcolor="#d1d1d1">
    <inkscape:page
       x="0"
       y="0"
       inkscape:label="1"
       id="page1"
       width="422.66666"
       height="428"
       margin="0"
       bleed="0" />
  </sodipodi:namedview>
  <g
     id="g1"
     inkscape:groupmode="layer"
     inkscape:label="1">
    <path
       id="path1"
       d="m 1584.48,2665.13 c 279.86,0 533.22,-113.43 716.62,-296.83 183.4,-183.4 296.83,-436.77 296.83,-716.62 0,-279.85 -113.43,-533.22 -296.83,-716.614 C 2117.7,751.668 1864.34,638.23 1584.48,638.23 c -279.85,0 -533.21,113.438 -716.613,296.836 -183.402,183.394 -296.84,436.764 -296.84,716.614 0,279.85 113.438,533.22 296.84,716.62 183.403,183.4 436.763,296.83 716.613,296.83 z m 677.28,-336.17 c -173.32,173.33 -412.78,280.54 -677.28,280.54 -264.5,0 -503.95,-107.21 -677.281,-280.54 -173.328,-173.32 -280.535,-412.78 -280.535,-677.28 0,-264.5 107.207,-503.95 280.535,-677.282 173.331,-173.324 412.781,-280.531 677.281,-280.531 264.5,0 503.96,107.207 677.28,280.531 173.33,173.332 280.54,412.782 280.54,677.282 0,264.5 -107.21,503.96 -280.54,677.28"
       style="fill:#00a859;fill-opacity:1;fill-rule:nonzero;stroke:none"
       transform="matrix(0.13333333,0,0,-0.13333333,0,428)" />
    <path
       id="path2"
       d="m 1227.56,1871.72 v 178.05 c 0,196.05 160.61,356.44 356.92,356.44 v 0 c 196.31,0 356.93,-160.42 356.93,-356.44 v -16 h -136.94 v 10.36 c 0,120.86 -98.94,219.67 -219.97,219.67 -121.02,0 -219.96,-98.81 -219.96,-219.67 v -172.41 h -136.98"
       style="fill:#00a859;fill-opacity:1;fill-rule:evenodd;stroke:none"
       transform="matrix(0.13333333,0,0,-0.13333333,0,428)" />
    <path
       id="path3"
       d="m 1941.41,1431.64 v -178.05 c 0,-196.04 -160.62,-356.438 -356.93,-356.438 v 0 c -196.31,0 -356.92,160.428 -356.92,356.438 v 18.61 h 136.94 v -12.97 c 0,-120.86 98.93,-219.66 219.96,-219.66 121.02,0 219.96,98.8 219.96,219.66 v 172.41 h 136.99"
       style="fill:#00a859;fill-opacity:1;fill-rule:evenodd;stroke:none"
       transform="matrix(0.13333333,0,0,-0.13333333,0,428)" />
    <path
       id="path4"
       d="m 1803.81,2008.13 h 178.28 c 196.31,0 356.92,-160.4 356.92,-356.45 v 0 c 0,-196.04 -160.63,-356.44 -356.92,-356.44 h -16.02 v 136.75 h 10.38 c 121.02,0 219.96,98.81 219.96,219.67 0,120.86 -98.94,219.66 -219.96,219.66 h -172.64 v 136.81"
       style="fill:#00a859;fill-opacity:1;fill-rule:evenodd;stroke:none"
       transform="matrix(0.13333333,0,0,-0.13333333,0,428)" />
    <path
       id="path5"
       d="m 1365.16,1295.24 h -178.29 c -196.307,0 -356.921,160.4 -356.921,356.44 v 0 c 0,196.05 160.641,356.45 356.921,356.45 h 16.02 v -136.76 h -10.37 c -121.02,0 -219.961,-98.8 -219.961,-219.67 0,-120.86 98.941,-219.66 219.961,-219.66 h 172.64 v -136.8"
       style="fill:#00a859;fill-opacity:1;fill-rule:evenodd;stroke:none"
       transform="matrix(0.13333333,0,0,-0.13333333,0,428)" />
    <path
       id="path6"
       d="m 996.027,1651.68 v 0 c 0,107.89 88.263,196.15 196.153,196.15 h 172.54 v -392.3 h -172.54 c -107.89,0 -196.153,88.27 -196.153,196.15 z m 784.603,-220.54 v -171.76 c 0,-107.88 -88.27,-196.15 -196.15,-196.15 v 0 c -107.88,0 -196.15,88.27 -196.15,196.15 v 171.76 h 392.3"
       style="fill:#00a859;fill-opacity:1;fill-rule:evenodd;stroke:none"
       transform="matrix(0.13333333,0,0,-0.13333333,0,428)" />
    <path
       id="path7"
       d="m 1780.63,1847.83 h 196.16 c 107.88,0 196.15,-88.26 196.15,-196.15 v 0 c 0,-107.88 -88.27,-196.15 -196.15,-196.15 h -196.16 -392.3 v 392.3 196.15 c 0,107.89 88.27,196.16 196.15,196.16 v 0 c 107.88,0 196.15,-88.27 196.15,-196.16 v -196.15"
       style="fill:#f79633;fill-opacity:1;fill-rule:evenodd;stroke:none"
       transform="matrix(0.13333333,0,0,-0.13333333,0,428)" />
    <path
       id="path8"
       d="m 1199.72,836.977 c -61.33,28.761 -191.95,73.437 -241.095,134.996 -10.789,13.515 -19.617,36.157 -2.266,47.657 12.504,8.28 38.067,-2.92 55.101,-7.47 55.94,-14.953 291.79,-90.129 333.51,-108.937 44.81,-20.2 88.87,-48.45 124.39,-82.301 44.37,-42.277 69.98,-64.02 98.82,-103.422 18.16,-33.809 14.12,-61.078 16.3,-92.457 -19.49,-10.91 -40.23,-19.699 -64.04,-26.578 -86.34,-24.938 -118.19,-31.496 -236.99,-19.512 -65.91,6.652 -147.45,33.918 -221.93,71.414 -80.934,40.754 -159.786,99.91 -210.899,163.324 -50.058,62.118 -92.207,126.442 -120.285,185.887 -103.523,219.162 -26.25,256.312 36.641,160.522 53.273,-81.14 113.875,-184.78 226.019,-271.053 70.334,-54.113 160.954,-89.223 206.724,-52.07"
       style="fill:#00a859;fill-opacity:1;fill-rule:evenodd;stroke:none"
       transform="matrix(0.13333333,0,0,-0.13333333,0,428)" />
    <path
       id="path9"
       d="m 1969.24,836.977 c 61.34,28.761 191.95,73.437 241.1,134.996 10.79,13.515 19.61,36.157 2.27,47.657 -12.51,8.28 -38.07,-2.92 -55.11,-7.47 -55.94,-14.953 -291.78,-90.129 -333.5,-108.937 -44.82,-20.2 -88.87,-48.45 -124.4,-82.301 -44.37,-42.277 -69.98,-64.02 -98.82,-103.422 -18.16,-33.809 -14.11,-61.078 -16.3,-92.457 19.5,-10.91 40.23,-19.699 64.04,-26.578 86.34,-24.938 118.2,-31.496 236.99,-19.512 65.91,6.652 147.46,33.918 221.93,71.414 80.94,40.754 159.79,99.91 210.9,163.324 50.06,62.118 92.21,126.442 120.29,185.887 103.52,219.162 26.25,256.312 -36.65,160.522 -53.27,-81.14 -113.87,-184.78 -226.01,-271.053 -70.34,-54.113 -160.95,-89.223 -206.73,-52.07"
       style="fill:#00a859;fill-opacity:1;fill-rule:evenodd;stroke:none"
       transform="matrix(0.13333333,0,0,-0.13333333,0,428)" />
    <path
       id="path10"
       d="m 1584.48,2406.21 z m -356.92,-356.44 c 0,196.05 160.61,356.44 356.92,356.44 196.31,0 356.93,-160.42 356.93,-356.44 v -16 h -136.94 v 10.36 c 0,120.86 -98.94,219.67 -219.97,219.67 -121.02,0 -219.96,-98.81 -219.96,-219.67 v -172.41 h -136.98 z m 160.77,-201.94 v 196.15 c 0,107.89 88.27,196.16 196.15,196.16 107.88,0 196.15,-88.27 196.15,-196.16 v -196.15 h 196.16 c 107.88,0 196.15,-88.26 196.15,-196.15 0,-107.88 -88.27,-196.15 -196.15,-196.15 h -196.16 -392.3 z m 950.68,-196.15 z m -535.21,219.65 v 136.8 h 178.29 c 196.31,0 356.92,-160.4 356.92,-356.45 0,-196.04 -160.63,-356.44 -356.92,-356.44 h -16.02 v 136.75 h 10.38 c 121.02,0 219.96,98.81 219.96,219.67 0,120.86 -98.94,219.67 -219.96,219.67 z m 738.5,-219.65 c 0,264.5 -107.21,503.96 -280.54,677.28 -173.32,173.33 -412.78,280.54 -677.28,280.54 -264.5,0 -503.96,-107.21 -677.281,-280.54 -173.328,-173.32 -280.535,-412.78 -280.535,-677.28 0,-169.61 44.082,-328.92 121.418,-467.1 6.313,-6.83 12.676,-15 18.898,-24.48 24.852,-37.86 51.297,-80.6 83.836,-124.21 17.903,-21.31 36.715,-41.827 56.383,-61.492 51.324,-51.324 108.441,-96.847 170.301,-135.511 47.65,-20.145 93.66,-25.09 122.22,-1.91 -61.33,28.761 -191.95,73.437 -241.095,135 -10.789,13.515 -19.617,36.153 -2.27,47.653 12.508,8.28 38.075,-2.92 55.105,-7.47 55.94,-14.953 291.79,-90.129 333.51,-108.937 44.81,-20.2 88.87,-48.45 124.39,-82.301 44.37,-42.277 69.98,-64.02 98.82,-103.422 4.41,-8.207 7.51,-16.023 9.71,-23.609 2.19,-0.02 4.39,-0.024 6.59,-0.024 2.2,0 4.4,0.004 6.6,0.024 2.19,7.586 5.29,15.402 9.7,23.609 28.84,39.402 54.45,61.145 98.82,103.422 35.53,33.851 79.58,62.101 124.4,82.301 41.72,18.808 277.56,93.984 333.5,108.937 17.03,4.55 42.6,15.75 55.11,7.47 17.34,-11.5 8.52,-34.138 -2.27,-47.653 -49.15,-61.563 -179.76,-106.239 -241.1,-135 28.56,-23.18 74.57,-18.235 122.22,1.91 61.86,38.664 118.98,84.187 170.3,135.511 19.67,19.665 38.48,40.182 56.39,61.492 32.53,43.61 58.98,86.35 83.83,124.21 6.22,9.48 12.59,17.65 18.9,24.48 77.33,138.18 121.42,297.49 121.42,467.1 z m -1712.351,0 c 0,196.05 160.641,356.45 356.921,356.45 h 16.02 v -136.76 h -10.37 c -121.02,0 -219.961,-98.8 -219.961,-219.67 0,-120.86 98.941,-219.66 219.961,-219.66 h 172.64 v -136.8 h -178.29 c -196.307,0 -356.921,160.4 -356.921,356.44 z m 166.078,0 z m 196.153,196.15 h 172.54 v -392.3 h -172.54 c -107.89,0 -196.153,88.27 -196.153,196.15 0,107.89 88.263,196.15 196.153,196.15 z m 392.3,-784.6 z m -196.15,196.15 v 171.76 h 392.3 v -171.76 c 0,-107.88 -88.27,-196.15 -196.15,-196.15 -107.88,0 -196.15,88.27 -196.15,196.15 z m 196.15,-362.228 z m -356.92,356.438 v 18.61 h 136.94 v -12.96 c 0,-120.87 98.93,-219.67 219.96,-219.67 121.02,0 219.96,98.8 219.96,219.67 v 172.4 h 136.99 v -178.05 c 0,-196.04 -160.62,-356.438 -356.93,-356.438 -196.31,0 -356.92,160.428 -356.92,356.438"
       style="fill:#fefefe;fill-opacity:1;fill-rule:evenodd;stroke:none"
       transform="matrix(0.13333333,0,0,-0.13333333,0,428)" />
    <path
       id="path11"
       d="m 185.82,1142.99 -2.261,6.69 c -6.582,19.44 -13.207,31.57 -19.899,36.41 -6.687,4.85 -15.781,5.35 -27.324,1.45 -12.422,-4.21 -20.016,-10.59 -22.805,-19.17 -2.793,-8.58 -1.027,-22.13 5.227,-40.62 l 2.262,-6.69 z m 29.196,7.41 101.148,34.22 11.656,-34.45 -225.992,-76.46 -17.3319,51.2 c -5.0742,15.02 -8.0195,27 -8.875,35.98 -0.8594,8.93 -0.0352,17.07 2.5195,24.45 3.1055,8.86 8.3477,16.62 15.6875,23.39 7.3559,6.72 16.1409,11.81 26.4689,15.31 18.07,6.1 33.719,6.52 46.945,1.26 13.184,-5.29 23.715,-16.1 31.539,-32.48 l 76.528,112.54 14.015,-41.41 -75.691,-109.44 z m 14.89,156.95 -19.504,27.92 c 9.938,4.77 16.985,11.51 21.078,20.21 4.157,8.65 5.137,18.99 2.997,30.99 -2.036,11.38 -6.817,19.79 -14.313,25.4 -7.492,5.56 -16.519,7.38 -27.086,5.5 -13.797,-2.47 -24.066,-16.11 -30.754,-40.97 -1.011,-3.52 -1.777,-6.2 -2.191,-8.02 -8.012,-28.15 -16.32,-47.43 -25.024,-57.86 -8.703,-10.42 -20.41,-16.98 -35.1402,-19.61 -19.1602,-3.43 -35.8165,0.32 -50.0079,11.18 -14.207,10.85 -23.1679,26.87 -26.9375,47.95 -3.0898,17.3 -2.3476,32.4 2.2539,45.26 4.5938,12.86 12.7383,22.61 24.418,29.33 l 20.7578,-27.02 c -6.5508,-6.03 -11.0468,-12.15 -13.4336,-18.39 -2.4492,-6.26 -2.9843,-13.01 -1.6836,-20.3 1.8243,-10.24 5.9805,-17.97 12.4219,-23.04 6.3945,-5.12 14.1016,-6.85 23.082,-5.25 14.1292,2.53 24.9372,18.18 32.3592,46.91 0.621,2.2 1.098,3.92 1.375,5.22 6.582,25.13 14.199,42.93 22.832,53.4 8.696,10.48 20.672,17.09 35.946,19.82 22.226,3.97 41.164,0.12 56.75,-11.57 15.593,-11.68 25.546,-29.45 29.808,-53.31 3.57,-19.99 1.903,-37.17 -5.012,-51.63 -6.918,-14.4 -18.554,-25.11 -34.992,-32.12 z m -221.86303,195.9 -0.97266,38.36 144.82069,3.66 c 21.457,0.54 37.519,5.89 48.054,16.12 10.59,10.23 15.602,25.21 15.106,45 -0.496,19.62 -6.258,34.28 -17.352,43.95 -11.039,9.68 -27.347,14.22 -48.808,13.68 L 4.07031,1660.36 3.09766,1699.05 151.48,1702.8 c 32.243,0.82 56.629,-6.68 73.047,-22.57 16.434,-15.89 25.055,-40.26 25.887,-73.06 0.824,-32.8 -6.562,-57.46 -22.105,-74.04 -15.551,-16.59 -39.528,-25.31 -71.883,-26.13 z m 211.95303,299.84 5.742,32.13 c 3.149,17.63 4.367,31.08 3.582,40.32 -0.757,9.29 -3.386,17.67 -7.757,25.17 -6.024,10.23 -14.25,18.59 -24.79,25.05 -10.48,6.45 -23.218,11.04 -38.168,13.71 -14.996,2.68 -28.492,2.78 -40.558,0.35 -12.121,-2.41 -22.7345,-7.4 -31.9298,-14.91 -6.707,-5.63 -12.1172,-12.86 -16.1328,-21.69 -4.0039,-8.83 -7.75,-23.14 -11.2696,-42.85 l -2.4648,-13.79 -2.4648,-13.79 z m 27.68,-44.27 -234.8596,41.97 9.1836,51.4 c 5.9844,33.51 11.8945,56.74 17.6758,69.83 5.832,13.03 13.6015,23.96 23.3242,32.84 12.8242,11.72 27.9688,19.63 45.48,23.74 17.512,4.1 36.696,4.28 57.551,0.56 20.864,-3.73 38.688,-10.53 53.532,-20.41 14.843,-9.89 26.312,-22.55 34.39,-38.01 6.047,-11.7 9.602,-24.36 10.649,-38.11 1.007,-13.68 -0.946,-34.41 -5.899,-62.11 l -1.836,-10.3 z m 152.066,489.23 -30.445,-52.94 -206.82,118.94 33.937,59.02 c 13.25,23.04 23.676,38.6 31.324,46.65 7.617,8 16.012,13.69 25.207,17.07 10.696,3.98 21.957,5.27 33.707,3.84 11.797,-1.46 23.446,-5.53 35.016,-12.19 12.348,-7.09 22.059,-15.31 29.137,-24.64 7.129,-9.35 11.429,-19.6 13.027,-30.78 1.176,-8.44 0.445,-17.19 -2.129,-26.23 -2.566,-9.04 -8.851,-22.31 -18.863,-39.71 l -5.52,-9.6 -5.851,-10.17 z m -113.676,65.38 6.184,10.75 c 7.789,13.55 11.336,24.08 10.707,31.56 -0.633,7.49 -5.398,13.82 -14.367,18.98 -8.68,4.99 -16.375,5.89 -23.055,2.74 -6.691,-3.15 -13.898,-11.44 -21.582,-24.8 l -6.492,-11.28 z m 189.954,59.94 -134.051,95.33 31.746,44.65 31.586,-22.47 c -8.27,12.85 -12.43,25.23 -12.512,37.29 -0.086,12.08 3.871,23.79 11.934,35.12 1.324,1.86 2.718,3.73 4.207,5.53 1.492,1.82 3.074,3.56 4.738,5.31 l 39.672,-35.18 c -2.953,-2.14 -5.629,-4.46 -8.02,-6.86 -2.371,-2.47 -4.465,-4.94 -6.304,-7.52 -8.153,-11.46 -10.907,-22.82 -8.325,-34.07 2.61,-11.2 10.352,-21.42 23.27,-30.61 l 55.516,-39.48 z m 110.574,260.14 c -8.848,8.44 -18.012,12.87 -27.383,13.27 -9.371,0.4 -17.742,-3.22 -24.992,-10.82 -7.328,-7.7 -10.543,-16.22 -9.696,-25.57 0.887,-9.3 5.793,-18.19 14.641,-26.63 8.899,-8.48 18.012,-12.95 27.27,-13.39 9.25,-0.45 17.621,3.25 25.031,11.02 7.324,7.69 10.582,16.18 9.769,25.48 -0.847,9.27 -5.742,18.17 -14.64,26.64 z m 39.832,41.79 c 8.578,-8.18 15.14,-17.66 19.637,-28.33 4.542,-10.71 6.867,-22.14 6.878,-34.37 -0.019,-12.28 -2.214,-23.93 -6.675,-34.9 -4.496,-10.99 -10.993,-20.95 -19.543,-29.92 -8.711,-9.14 -18.418,-16.18 -29.157,-21.16 -10.773,-5.01 -22.242,-7.69 -34.339,-8.14 -12.024,-0.59 -23.43,1.13 -34.313,5.2 -10.918,4.11 -20.691,10.28 -29.355,18.54 -8.688,8.28 -15.329,17.76 -19.954,28.39 -4.57,10.59 -6.933,21.98 -6.988,34.25 -0.129,11.96 2.031,23.42 6.613,34.35 4.532,10.88 11.184,20.92 19.973,30.13 8.789,9.22 18.485,16.34 29.106,21.34 10.613,5.02 21.996,7.77 34.023,8.3 12.41,0.53 24.02,-1.23 34.863,-5.27 10.828,-4.03 20.621,-10.2 29.231,-18.41 z m 90.844,-32.92 -76.282,97.08 -19.461,-15.28 -25.359,32.26 19.465,15.29 -20.863,26.55 c -11.817,15.04 -16.61,29.6 -14.372,43.58 2.247,14.08 11.54,27.54 27.852,40.35 2.316,1.83 5.25,3.77 8.785,5.84 3.496,2.12 7.43,4.22 11.692,6.37 l 27.386,-34.85 c -2.675,-0.83 -5.035,-1.7 -7.097,-2.69 -2.098,-1.01 -3.809,-2.07 -5.254,-3.2 -4.293,-3.37 -6.434,-7.11 -6.379,-11.24 0.058,-4.12 2.363,-9.03 6.898,-14.81 l 16.223,-20.64 22.82,17.94 25.36,-32.27 -22.825,-17.93 76.282,-97.09 z m 66.597,84.98 c -5.351,7.52 -7.297,15.63 -5.816,24.39 1.437,8.73 5.898,15.8 13.465,21.17 7.711,5.49 15.933,7.45 24.742,6 8.762,-1.48 15.828,-5.94 21.172,-13.46 5.351,-7.52 7.285,-15.71 5.777,-24.63 -1.457,-8.88 -5.984,-16.06 -13.602,-21.47 -7.472,-5.32 -15.597,-7.15 -24.468,-5.6 -8.824,1.57 -15.918,6.08 -21.27,13.6 z m 275.113,215.57 c -5.27,11.66 -12.53,19.48 -21.77,23.43 -9.17,3.96 -19.14,3.48 -29.79,-1.32 -10.693,-4.84 -17.584,-11.99 -20.674,-21.5 -3.086,-9.52 -1.961,-20.11 3.32,-31.77 5.309,-11.75 12.514,-19.61 21.624,-23.54 9.1,-3.94 19.04,-3.49 29.82,1.39 10.65,4.82 17.6,11.99 20.68,21.5 3.14,9.53 2.06,20.15 -3.21,31.81 z m -23.32,176.59 104.07,-230.17 -48.71,-22.02 -11,24.32 c -2.18,-13.13 -6.32,-24.09 -12.48,-32.86 -6.14,-8.82 -14.34,-15.52 -24.63,-20.17 -21.08,-9.53 -41.16,-9.82 -60.195,-0.91 -19.047,8.91 -34.141,25.7 -45.277,50.33 -10.797,23.87 -13.286,46 -7.52,66.3 5.777,20.31 18.621,34.97 38.586,44 12.664,5.72 24.043,8.12 34.056,7.15 10.02,-0.97 20.57,-5.4 31.64,-13.28 -2.22,3.27 -4.45,7.14 -6.8,11.52 -2.34,4.37 -4.72,9.21 -7.07,14.43 l -35.447,78.4 z m 147.09,-220.81 -44.94,158.25 52.7,14.97 10.59,-37.29 c 1.59,15.19 6.08,27.45 13.56,36.91 7.49,9.48 17.91,16.14 31.29,19.93 2.19,0.63 4.46,1.21 6.75,1.69 2.29,0.48 4.61,0.85 7.01,1.18 l 8.94,-52.27 c -3.63,0.19 -7.18,0.05 -10.54,-0.33 -3.41,-0.45 -6.58,-1.06 -9.63,-1.93 -13.54,-3.84 -22.78,-10.97 -27.81,-21.37 -4.97,-10.37 -5.32,-23.19 -1,-38.44 l 18.62,-65.53 z m 104.49,56.18 c -1.62,9.09 0.08,17.25 5.17,24.54 5.03,7.28 12.07,11.77 21.22,13.4 9.31,1.66 17.58,-0.08 24.92,-5.15 7.3,-5.08 11.77,-12.14 13.41,-21.22 1.62,-9.09 -0.14,-17.32 -5.31,-24.73 -5.11,-7.42 -12.27,-11.96 -21.47,-13.61 -9.03,-1.62 -17.15,0.2 -24.51,5.39 -7.31,5.19 -11.8,12.3 -13.43,21.38 z m 217.12,6.99 6.02,238.5 65.05,-1.64 -2.34,-92.73 86.73,-2.19 2.34,92.73 65.05,-1.65 -6.02,-238.5 -65.05,1.65 2.45,97.06 -86.73,2.19 -2.45,-97.06 z m 260.09,13.97 c 1.63,9.09 6.05,16.15 13.34,21.24 7.24,5.09 15.41,6.85 24.54,5.21 9.31,-1.66 16.47,-6.16 21.62,-13.46 5.08,-7.29 6.84,-15.46 5.21,-24.55 -1.62,-9.08 -6.11,-16.19 -13.53,-21.36 -7.37,-5.19 -15.66,-6.98 -24.86,-5.33 -9.03,1.61 -16.02,6.13 -21.13,13.54 -5.06,7.4 -6.81,15.63 -5.19,24.71 z m 297.66,-8.15 60.18,-23.72 6.27,82.17 c 0.21,2.49 0.63,6.45 1.4,11.88 0.72,5.46 1.68,12.43 2.82,20.95 -3.44,-4.93 -6.78,-9.64 -10.04,-14.09 -3.18,-4.43 -6.35,-8.68 -9.44,-12.73 z m -117.47,-49.45 164.14,191.74 75.79,-29.88 -10.84,-252.19 -60.18,23.73 4.45,44.16 -85.93,33.88 -27.21,-35.19 z m 248.6,-102.79 118.94,206.82 56.41,-32.44 -91.16,-158.51 70,-40.26 -27.78,-48.31 z m 414.49,-144.61 c -10.61,-13.51 -23.04,-24.19 -37.22,-32.07 -14.22,-7.93 -29.72,-12.8 -46.53,-14.65 -16.82,-1.71 -33.32,-0.2 -49.56,4.42 -16.21,4.68 -30.94,12.22 -44.14,22.6 -13.42,10.54 -24.32,23.14 -32.64,37.74 -8.3,14.66 -13.49,30.19 -15.55,46.74 -2.35,16.9 -1.34,33.23 2.98,49.07 4.33,15.77 11.73,30.32 22.21,43.66 10.55,13.42 22.94,24.06 37.23,31.99 14.31,7.86 29.93,12.7 46.91,14.42 16.57,1.91 32.89,0.54 49.08,-4.06 16.16,-4.63 30.98,-12.24 44.41,-22.78 13.29,-10.45 24.18,-23.05 32.61,-37.72 8.37,-14.72 13.65,-30.33 15.8,-46.94 2.15,-16.61 1.04,-32.79 -3.27,-48.64 -4.34,-15.76 -11.77,-30.36 -22.32,-43.78 z m -143.52,23.66 c 14.17,-11.13 29.97,-15.14 47.42,-12.02 17.49,3.17 32.47,12.68 44.94,28.56 12.34,15.69 17.97,32.5 16.84,50.42 -1.15,17.89 -8.7,32.3 -22.61,43.24 -14.17,11.13 -30.01,15.09 -47.49,11.92 -17.49,-3.17 -32.46,-12.69 -44.87,-28.48 -12.61,-16.04 -18.44,-32.83 -17.41,-50.32 0.99,-17.54 8.75,-31.98 23.18,-43.32 z m 93.76,-152.06 180.33,156.21 95.69,-110.47 -39.59,-34.3 -54.18,62.56 -31.28,-27.1 51.09,-58.98 -38.58,-33.42 -51.09,58.97 -30.52,-26.44 54.18,-62.54 -40.35,-34.96 z m 121.32,-147.29 200.86,128.75 35.48,-55.35 -200.86,-128.76 z m 191.07,-172.17 c -6.64,-13.02 -10.76,-24.86 -12.38,-35.61 -1.57,-10.72 -0.68,-20.41 2.75,-29.1 3.18,-8.07 7.98,-13.89 14.37,-17.35 6.4,-3.52 12.91,-3.93 19.59,-1.3 7.34,2.89 12.16,7.36 14.37,13.43 2.2,6.08 2.35,17.84 0.35,35.35 -2.73,24.03 -1.15,42.47 4.67,55.16 5.86,12.72 16.97,22.31 33.32,28.75 21.26,8.38 41.33,8.11 60.35,-0.84 18.99,-8.89 32.95,-24.73 41.86,-47.34 4.84,-12.26 7.75,-24.5 8.81,-36.75 1.01,-12.28 0.15,-24.63 -2.65,-37.1 l -50.94,1.85 c 3.13,9.19 4.76,17.96 4.9,26.39 0.11,8.35 -1.21,16.08 -4,23.17 -2.85,7.24 -6.94,12.45 -12.2,15.64 -5.26,3.18 -10.66,3.68 -16.09,1.54 -5.54,-2.18 -9.21,-5.9 -11,-11.21 -1.74,-5.29 -1.91,-14.27 -0.42,-26.83 l 0.3,-3.05 c 3.05,-27.31 2.16,-46.43 -2.8,-57.35 -3.35,-7.42 -8.34,-14 -14.87,-19.73 -6.58,-5.77 -14.48,-10.44 -23.79,-14.12 -23.54,-9.27 -45.52,-9.03 -65.9,0.8 -20.42,9.83 -35.7,27.65 -45.86,53.42 -6.1,15.47 -9.01,30.58 -8.81,45.37 0.28,14.76 3.69,30.21 10.31,46.33 z m 97.48,-240.25 14.54,-63.02 71.27,41.38 c 2.16,1.24 5.67,3.13 10.58,5.58 4.9,2.5 11.2,5.66 18.86,9.55 -6,0.04 -11.79,0.13 -17.3,0.28 -5.45,0.12 -10.75,0.32 -15.83,0.57 z m -107.3,68.79 250.98,-26.63 18.32,-79.38 -213.95,-133.95 -14.53,63.03 38.9,21.35 -20.76,90.01 -44.41,2.49 z m 202.6,-312.61 0.99,-12.98 c 1.22,-16.03 3.83,-26.87 7.78,-32.59 4,-5.67 10.33,-8.2 18.99,-7.54 8.98,0.69 15.03,3.94 18.27,9.81 3.18,5.82 4.18,16.83 2.95,32.97 l -1.06,13.97 z m -147.31,49.36 237.89,18.11 4.96,-65.28 c 2.05,-26.84 2.59,-45.65 1.69,-56.48 -0.92,-10.77 -3.21,-20.15 -6.84,-28.18 -4.21,-9.14 -10.24,-16.34 -18.04,-21.57 -7.86,-5.23 -17.11,-8.22 -27.88,-9.04 -13.52,-1.03 -24.54,1.6 -33.05,7.86 -8.46,6.28 -15.34,16.8 -20.64,31.57 0.01,-16.97 -4.92,-30.67 -14.74,-40.95 -9.86,-10.35 -23.58,-16.18 -41.27,-17.53 -12.65,-0.97 -23.99,0.84 -34.05,5.49 -10.06,4.59 -18.13,11.73 -24.16,21.25 -4.93,7.77 -8.81,17.58 -11.54,29.3 -2.73,11.78 -5.16,31.17 -7.22,58.24 z m 53.16,-56.53 1.73,-22.74 c 1.17,-15.36 3.93,-26.08 8.25,-32.16 4.37,-6.08 11.04,-8.75 20.02,-8.07 9.98,0.76 16.69,4.22 20.24,10.35 3.5,6.12 4.66,17.09 3.47,32.83 l -1.81,23.74 z m 46.42,-427.8 c -17.05,2.16 -32.59,7.32 -46.64,15.44 -14.11,8.13 -26.25,18.91 -36.48,32.39 -10.11,13.55 -17.29,28.49 -21.67,44.79 -4.32,16.31 -5.42,32.81 -3.3,49.47 2.15,16.94 7.35,32.76 15.6,47.41 8.31,14.64 18.97,27.08 32.1,37.35 13.3,10.7 27.82,18.22 43.63,22.66 15.76,4.4 32.05,5.52 48.87,3.38 16.94,-2.15 32.43,-7.31 46.58,-15.49 14.1,-8.24 26.28,-19.15 36.48,-32.84 10.14,-13.22 17.35,-27.94 21.74,-44.19 4.33,-16.24 5.42,-32.86 3.27,-49.8 -2.13,-16.77 -7.34,-32.59 -15.61,-47.35 -8.32,-14.75 -18.99,-27.3 -32.14,-37.68 -13.14,-10.38 -27.59,-17.75 -43.4,-22.19 -15.75,-4.39 -32.09,-5.5 -49.03,-3.35 z m -53.46,135.27 c -2.27,-17.88 2.41,-33.49 14.06,-46.86 11.7,-13.37 27.57,-21.32 47.59,-23.87 19.81,-2.52 37.12,1.29 51.91,11.46 14.75,10.19 23.24,24.07 25.47,41.62 2.27,17.88 -2.48,33.5 -14.17,46.87 -11.71,13.37 -27.57,21.33 -47.48,23.85 -20.25,2.57 -37.65,-1.04 -52.13,-10.92 -14.54,-9.87 -22.94,-23.95 -25.25,-42.15 z m -77.07,-159.81 225.99,-76.48 -46.84,-138.44 -49.62,16.79 26.52,78.39 -39.2,13.26 -25.01,-73.91 -48.35,16.36 25,73.91 -38.24,12.94 -26.52,-78.37 -50.57,17.1 46.84,138.45"
       style="fill:#00a859;fill-opacity:1;fill-rule:nonzero;stroke:none"
       transform="matrix(0.13333333,0,0,-0.13333333,0,428)" />
    <path
       id="path12"
       d="m 309.695,640.645 180.332,156.207 25.34,-29.258 -74.652,-64.664 130.805,-0.149 31.093,-35.902 -142.14,2.027 -30.836,-166.726 -32.766,37.832 30.309,151.191 -92.141,-79.816 -25.344,29.258"
       style="fill:#00a859;fill-opacity:1;fill-rule:nonzero;stroke:none"
       transform="matrix(0.13333333,0,0,-0.13333333,0,428)" />
    <path
       id="path13"
       d="m 669.555,445.996 c 7.902,9.121 13.718,19.238 17.504,30.309 3.777,11.074 5.324,22.543 4.632,34.32 -0.593,11.625 -3.429,22.539 -8.464,32.863 -5.079,10.36 -12.036,19.403 -20.86,27.047 -8.875,7.688 -18.777,13.32 -29.719,16.914 -10.902,3.555 -22.269,4.871 -34.062,3.828 -11.684,-0.914 -22.773,-4.035 -33.152,-9.394 -10.383,-5.356 -19.559,-12.637 -27.532,-21.84 -7.902,-9.125 -13.73,-19.16 -17.476,-30.113 -3.75,-10.953 -5.258,-22.375 -4.571,-34.157 0.653,-11.82 3.532,-22.851 8.606,-33.132 5.031,-10.243 12.066,-19.282 21.019,-27.036 8.782,-7.609 18.563,-13.14 29.422,-16.656 10.813,-3.484 22.184,-4.801 34.063,-3.828 11.754,1 22.848,4.121 33.23,9.399 10.422,5.32 19.528,12.437 27.36,21.476 z m 30.519,-26.433 c -11.105,-12.825 -23.992,-22.856 -38.648,-30.094 -14.738,-7.25 -30.531,-11.375 -47.492,-12.356 -17.004,-0.941 -33.407,1.274 -49.204,6.645 -15.757,5.34 -30.07,13.535 -42.847,24.605 -12.988,11.25 -23.274,24.36 -30.934,39.379 -7.582,15.031 -12.066,30.836 -13.418,47.531 -1.453,16.93 0.352,33.106 5.43,48.571 5.047,15.418 13.168,29.644 24.422,42.636 11.18,12.903 24.101,22.973 38.715,30.25 14.656,7.321 30.48,11.489 47.515,12.551 16.965,0.981 33.289,-1.238 48.973,-6.66 15.684,-5.422 30.082,-13.769 43.156,-25.094 12.946,-11.218 23.18,-24.203 30.781,-38.957 7.563,-14.715 12.086,-30.554 13.493,-47.449 1.308,-17.094 -0.637,-33.437 -5.703,-49.058 -5.153,-15.625 -13.208,-29.766 -24.239,-42.5"
       style="fill:#00a859;fill-opacity:1;fill-rule:nonzero;stroke:none"
       transform="matrix(0.13333333,0,0,-0.13333333,0,428)" />
    <path
       id="path14"
       d="m 831.363,437.965 -119.121,-167.512 -31.543,22.434 119.121,167.508 -51.668,36.742 19.145,26.922 134.605,-95.723 -19.144,-26.922 -51.395,36.551"
       style="fill:#00a859;fill-opacity:1;fill-rule:nonzero;stroke:none"
       transform="matrix(0.13333333,0,0,-0.13333333,0,428)" />
    <path
       id="path15"
       d="m 857.863,292.234 59.2,-30.324 3.015,59.563 c 0.332,3.707 0.82,7.953 1.539,12.648 0.715,4.695 1.613,9.856 2.813,15.492 -3.524,-4.07 -6.965,-7.742 -10.352,-11.066 -3.348,-3.352 -6.582,-6.379 -9.64,-9.059 z m 52.684,-132.336 3.933,66.969 -84.144,43.102 -52.641,-42.024 -36.234,18.559 215.832,168.004 -10.316,-273.27 -36.43,18.66"
       style="fill:#00a859;fill-opacity:1;fill-rule:nonzero;stroke:none"
       transform="matrix(0.13333333,0,0,-0.13333333,0,428)" />
    <path
       id="path16"
       d="m 1221.06,177.969 90.79,-25.785 c -0.44,-1.547 -1.01,-3.758 -1.71,-6.621 -1.79,-7.532 -3.04,-12.551 -3.78,-15.172 -9.17,-32.2621 -25.55,-54.7191 -49.06,-67.2972 -23.59,-12.6094 -52.18,-14.1446 -85.78,-4.6055 -18.83,5.3515 -34.79,12.8906 -47.93,22.5742 -13.13,9.7461 -23.71,21.7655 -31.55,36.0785 -7.72,14.16 -12.37,29.527 -13.9,46.152 -1.59,16.582 0.07,33.398 4.9,50.41 4.92,17.332 12.41,32.492 22.46,45.481 10.08,12.918 22.46,23.332 37.25,31.214 14.29,7.793 29.77,12.415 46.45,13.922 16.65,1.453 33.57,-0.226 50.69,-5.086 18.04,-5.125 33.3,-13.043 45.66,-23.664 12.36,-10.625 22.24,-24.297 29.56,-41.062 l -33.01,-12.82 c -5.2,11.187 -12.03,20.351 -20.51,27.503 -8.44,7.133 -18.68,12.414 -30.71,15.832 -24.88,7.067 -47.42,4.856 -67.68,-6.625 -20.25,-11.468 -34,-29.945 -41.23,-55.406 -7.37,-25.945 -5.48,-49.203 5.68,-69.777 11.14,-20.625 29.23,-34.4884 54.31,-41.6134 21.3,-6.0469 39.51,-5.8477 54.52,0.5898 15.07,6.4688 25,18.2186 29.88,35.3906 l 0.93,3.266 -55.16,15.664 8.93,31.457"
       style="fill:#00a859;fill-opacity:1;fill-rule:nonzero;stroke:none"
       transform="matrix(0.13333333,0,0,-0.13333333,0,428)" />
    <path
       id="path17"
       d="m 1532.12,131.57 c 0.91,12.032 -0.44,23.621 -3.99,34.77 -3.56,11.144 -9.15,21.277 -16.72,30.328 -7.41,8.98 -16.18,16.062 -26.37,21.359 -10.25,5.293 -21.23,8.414 -32.87,9.301 -11.71,0.887 -23.02,-0.484 -33.95,-4.113 -10.87,-3.637 -20.79,-9.352 -29.64,-17.215 -8.84,-7.691 -15.89,-16.805 -21.04,-27.289 -5.15,-10.488 -8.18,-21.801 -9.1,-33.945 -0.92,-12.036 0.38,-23.567 3.89,-34.594 3.51,-11.0353 9.11,-21.1095 16.67,-30.1603 7.57,-9.1094 16.45,-16.2539 26.65,-21.4922 10.14,-5.2304 21.17,-8.2968 32.99,-9.1992 11.58,-0.8789 22.74,0.5039 33.55,4.1445 10.76,3.6407 20.68,9.3594 29.64,17.211 8.85,7.8047 15.9,16.918 21.1,27.3437 5.2,10.4805 8.28,21.6255 9.19,33.5505 z m 40.26,-3.062 c -1.29,-16.914 -5.67,-32.6447 -13.13,-47.1916 -7.52,-14.6016 -17.75,-27.3203 -30.79,-38.207 -13.1,-10.8828 -27.59,-18.875 -43.48,-23.9688 -15.84,-5.0976 -32.21,-7.0351 -49.07,-5.7539 -17.14,1.3008 -33.2,5.7031 -48.3,13.2071 -15.05,7.5585 -28.06,17.582 -39.09,30.1875 -11.25,12.7382 -19.44,26.8046 -24.57,42.2539 -5.13,15.3908 -7.07,31.6558 -5.77,48.7928 1.29,17.024 5.67,32.809 13.08,47.36 7.41,14.605 17.64,27.382 30.69,38.378 13.05,10.895 27.48,18.832 43.31,23.821 15.82,4.988 32.37,6.851 49.61,5.543 17.08,-1.297 33.04,-5.637 47.93,-12.961 14.84,-7.317 27.91,-17.344 39.1,-30.074 11.23,-12.957 19.4,-27.247 24.63,-42.809 5.17,-15.621 7.12,-31.777 5.85,-48.578"
       style="fill:#00a859;fill-opacity:1;fill-rule:nonzero;stroke:none"
       transform="matrix(0.13333333,0,0,-0.13333333,0,428)" />
    <path
       id="path18"
       d="m 1636.74,148.734 7.04,0.532 c 20.47,1.558 33.87,4.976 40.22,10.254 6.34,5.277 9.09,13.96 8.16,26.109 -0.99,13.086 -5.29,22.016 -12.91,26.848 -7.62,4.832 -21.18,6.48 -40.65,5 l -7.04,-0.536 z m -0.05,-30.121 8.09,-106.4724 -36.26,-2.75779 -18.09,237.89419 53.9,4.098 c 15.81,1.199 28.14,1.078 37.06,-0.305 8.86,-1.39 16.55,-4.211 23.07,-8.511 7.81,-5.207 14.03,-12.207 18.77,-20.993 4.69,-8.793 7.44,-18.566 8.26,-29.433 1.45,-19.024 -2.02,-34.289 -10.4,-45.805 -8.39,-11.457 -21.48,-18.976 -39.29,-22.504 l 90.08,-102.0232 -43.59,-3.3125 -87.28,100.4527 -4.32,-0.328"
       style="fill:#00a859;fill-opacity:1;fill-rule:nonzero;stroke:none"
       transform="matrix(0.13333333,0,0,-0.13333333,0,428)" />
    <path
       id="path19"
       d="m 1970.36,181.805 c -2.72,11.758 -7.46,22.418 -14.17,31.996 -6.72,9.582 -15.08,17.586 -25,23.972 -9.74,6.368 -20.23,10.508 -31.54,12.528 -11.36,2 -22.77,1.707 -34.15,-0.918 -11.43,-2.641 -21.82,-7.32 -31.18,-14.043 -9.29,-6.711 -17.05,-15.121 -23.16,-25.266 -6.14,-9.976 -10.16,-20.777 -11.95,-32.324 -1.78,-11.543 -1.31,-23.246 1.43,-35.109 2.71,-11.762 7.39,-22.383 14.03,-31.868 6.64,-9.48 14.98,-17.4332 24.9,-23.816 9.94,-6.4414 20.54,-10.6172 31.84,-12.5742 11.24,-1.9726 22.69,-1.6094 34.23,1.0508 11.32,2.6133 21.56,7.2578 30.8,13.957 9.19,6.6836 16.95,15.0974 23.16,25.2654 6.12,10.086 10.13,20.883 11.99,32.383 1.84,11.559 1.46,23.113 -1.23,34.766 z m 39.34,9.078 c 3.82,-16.528 4.33,-32.848 1.54,-48.957 -2.83,-16.18 -8.8,-31.371 -18.01,-45.6526 -9.25,-14.289 -20.71,-26.2343 -34.35,-35.8359 -13.61,-9.5859 -28.66,-16.3164 -45.13,-20.1172 -16.75,-3.8633 -33.4,-4.4531 -50.05,-1.789 -16.61,2.7304 -32.02,8.4218 -46.31,17.164 -14.53,8.8047 -26.54,19.7891 -36.04,33.0078 -9.48,13.1639 -16.19,28.1129 -20.05,44.8599 -3.84,16.632 -4.37,33.007 -1.63,49.105 2.72,16.152 8.68,31.395 17.86,45.785 9.2,14.281 20.61,26.164 34.24,35.641 13.62,9.476 28.85,16.191 45.71,20.078 16.68,3.851 33.2,4.469 49.61,1.918 16.34,-2.563 31.8,-8.246 46.28,-17.059 14.58,-9.019 26.65,-20.222 36.27,-33.523 9.59,-13.367 16.27,-28.207 20.06,-44.625"
       style="fill:#00a859;fill-opacity:1;fill-rule:nonzero;stroke:none"
       transform="matrix(0.13333333,0,0,-0.13333333,0,428)" />
    <path
       id="path20"
       d="m 2079.23,87.418 -90.93,230.645 194.5,-80 c 5.33,-2.317 10.83,-4.875 16.52,-7.653 5.64,-2.793 11.73,-6.078 18.21,-9.797 l -60.66,153.867 33.22,13.098 90.93,-230.648 -198.24,81.453 c -5.32,2.269 -10.6,4.734 -15.8,7.465 -5.25,2.711 -10.33,5.73 -15.38,8.996 l 60.85,-154.332 -33.22,-13.094"
       style="fill:#00a859;fill-opacity:1;fill-rule:nonzero;stroke:none"
       transform="matrix(0.13333333,0,0,-0.13333333,0,428)" />
    <path
       id="path21"
       d="m 2289.84,407.738 102.46,-178.191 -33.56,-19.289 -102.46,178.187 -54.96,-31.605 -16.47,28.64 143.19,82.333 16.47,-28.641 -54.67,-31.434"
       style="fill:#00a859;fill-opacity:1;fill-rule:nonzero;stroke:none"
       transform="matrix(0.13333333,0,0,-0.13333333,0,428)" />
    <path
       id="path22"
       d="m 2436.24,372.367 54.21,38.547 -51.47,30.141 c -3.13,2.008 -6.67,4.398 -10.51,7.199 -3.83,2.805 -8,5.976 -12.45,9.641 1.99,-5 3.66,-9.754 5.05,-14.29 1.43,-4.511 2.62,-8.781 3.59,-12.734 z m 141.72,-14.277 -57.61,34.375 -77.05,-54.789 13.02,-66.086 -33.18,-23.594 -49.55,268.984 237.73,-135.164 -33.36,-23.726"
       style="fill:#00a859;fill-opacity:1;fill-rule:nonzero;stroke:none"
       transform="matrix(0.13333333,0,0,-0.13333333,0,428)" />
    <path
       id="path23"
       d="m 2627.93,396.578 -164.63,172.676 28.02,26.711 140.68,-147.563 62.79,59.864 23.95,-25.114 -90.81,-86.574"
       style="fill:#00a859;fill-opacity:1;fill-rule:nonzero;stroke:none"
       transform="matrix(0.13333333,0,0,-0.13333333,0,428)" />
    <path
       id="path24"
       d="m 2778.24,727.277 c -9.12,7.899 -19.24,13.715 -30.31,17.5 -11.07,3.778 -22.54,5.325 -34.32,4.633 -11.62,-0.594 -22.54,-3.43 -32.86,-8.465 -10.36,-5.078 -19.4,-12.035 -27.05,-20.859 -7.68,-8.875 -13.32,-18.777 -16.91,-29.719 -3.56,-10.902 -4.87,-22.269 -3.83,-34.062 0.92,-11.684 4.04,-22.774 9.4,-33.153 5.35,-10.382 12.63,-19.558 21.84,-27.531 9.12,-7.902 19.16,-13.73 30.11,-17.476 10.95,-3.75 22.37,-5.258 34.15,-4.571 11.83,0.653 22.86,3.531 33.14,8.606 10.24,5.031 19.28,12.066 27.03,21.019 7.61,8.781 13.14,18.563 16.66,29.422 3.48,10.813 4.8,22.184 3.83,34.063 -1,11.754 -4.12,22.847 -9.4,33.23 -5.32,10.422 -12.44,19.531 -21.48,27.363 z m 26.44,30.516 c 12.82,-11.105 22.85,-23.992 30.09,-38.648 7.25,-14.739 11.37,-30.532 12.36,-47.493 0.94,-17.004 -1.28,-33.402 -6.65,-49.203 -5.34,-15.758 -13.54,-30.07 -24.6,-42.847 -11.25,-12.989 -24.36,-23.274 -39.38,-30.934 -15.04,-7.582 -30.84,-12.066 -47.54,-13.418 -16.92,-1.453 -33.1,0.352 -48.57,5.43 -15.41,5.047 -29.64,13.168 -42.63,24.422 -12.9,11.179 -22.97,24.101 -30.25,38.718 -7.32,14.653 -11.49,30.477 -12.55,47.512 -0.98,16.965 1.24,33.289 6.66,48.973 5.42,15.683 13.77,30.082 25.09,43.156 11.22,12.945 24.2,23.18 38.96,30.781 14.71,7.563 30.55,12.086 47.45,13.492 17.09,1.309 33.43,-0.636 49.06,-5.703 15.62,-5.152 29.76,-13.207 42.5,-24.238"
       style="fill:#00a859;fill-opacity:1;fill-rule:nonzero;stroke:none"
       transform="matrix(0.13333333,0,0,-0.13333333,0,428)" />
  </g>
</svg>
