<?xml version="1.0" encoding="UTF-8" standalone="no"?>
<!-- Created with Inkscape (http://www.inkscape.org/) -->

<svg
   version="1.1"
   id="svg1"
   width="1244"
   height="278.66666"
   viewBox="0 0 1244 278.66666"
   sodipodi:docname="Logo_RSAS_v01_bw.eps"
   xmlns:inkscape="http://www.inkscape.org/namespaces/inkscape"
   xmlns:sodipodi="http://sodipodi.sourceforge.net/DTD/sodipodi-0.dtd"
   xmlns="http://www.w3.org/2000/svg"
   xmlns:svg="http://www.w3.org/2000/svg">
  <defs
     id="defs1" />
  <sodipodi:namedview
     id="namedview1"
     pagecolor="#ffffff"
     bordercolor="#000000"
     borderopacity="0.25"
     inkscape:showpageshadow="2"
     inkscape:pageopacity="0.0"
     inkscape:pagecheckerboard="0"
     inkscape:deskcolor="#d1d1d1">
    <inkscape:page
       x="0"
       y="0"
       inkscape:label="1"
       id="page1"
       width="1244"
       height="278.66666"
       margin="0"
       bleed="0" />
  </sodipodi:namedview>
  <g
     id="g1"
     inkscape:groupmode="layer"
     inkscape:label="1">
    <path
       id="path1"
       d="m 1016.77,2084.44 c 278.25,0 530.17,-112.79 712.52,-295.14 182.35,-182.35 295.14,-434.26 295.14,-712.52 0,-278.253 -112.79,-530.167 -295.14,-712.518 C 1546.94,181.91 1295.02,69.125 1016.77,69.125 738.512,69.125 486.598,181.91 304.246,364.262 121.895,546.613 9.10547,798.527 9.10547,1076.78 c 0,278.26 112.78953,530.17 295.14053,712.52 182.352,182.35 434.266,295.14 712.524,295.14 z m 673.41,-334.24 c -172.34,172.33 -410.43,278.93 -673.41,278.93 -262.989,0 -501.079,-106.6 -673.415,-278.93 C 171.016,1577.86 64.4219,1339.77 64.4219,1076.78 64.4219,813.797 171.016,575.707 343.355,403.371 515.691,231.035 753.781,124.438 1016.77,124.438 c 262.98,0 501.07,106.597 673.41,278.933 172.34,172.336 278.93,410.426 278.93,673.409 0,262.99 -106.59,501.08 -278.93,673.42"
       style="fill:#000000;fill-opacity:1;fill-rule:nonzero;stroke:none"
       transform="matrix(0.13333333,0,0,-0.13333333,0,278.66667)" />
    <path
       id="path2"
       d="m 661.883,1295.57 v 177.03 c 0,194.92 159.695,354.4 354.887,354.4 v 0 c 195.18,0 354.88,-159.5 354.88,-354.4 v -15.91 H 1235.5 v 10.3 c 0,120.17 -98.37,218.41 -218.71,218.41 -120.333,0 -218.704,-98.24 -218.704,-218.41 V 1295.57 H 661.883"
       style="fill:#000000;fill-opacity:1;fill-rule:evenodd;stroke:none"
       transform="matrix(0.13333333,0,0,-0.13333333,0,278.66667)" />
    <path
       id="path3"
       d="M 1371.65,858 V 680.969 c 0,-194.926 -159.69,-354.406 -354.88,-354.406 v 0 c -195.188,0 -354.887,159.511 -354.887,354.406 v 18.504 h 136.156 v -12.895 c 0,-120.172 98.371,-218.41 218.711,-218.41 120.33,0 218.7,98.238 218.7,218.41 V 858 h 136.2"
       style="fill:#000000;fill-opacity:1;fill-rule:evenodd;stroke:none"
       transform="matrix(0.13333333,0,0,-0.13333333,0,278.66667)" />
    <path
       id="path4"
       d="m 1234.84,1431.19 h 177.27 c 195.18,0 354.88,-159.48 354.88,-354.4 v -0.01 c 0,-194.921 -159.72,-354.405 -354.88,-354.405 h -15.93 v 135.973 h 10.31 c 120.33,0 218.7,98.238 218.7,218.412 0,120.17 -98.37,218.41 -218.7,218.41 h -171.65 v 136.02"
       style="fill:#000000;fill-opacity:1;fill-rule:evenodd;stroke:none"
       transform="matrix(0.13333333,0,0,-0.13333333,0,278.66667)" />
    <path
       id="path5"
       d="M 798.699,722.375 H 621.43 c -195.188,0 -354.883,159.48 -354.883,354.405 v 0.01 c 0,194.92 159.723,354.4 354.883,354.4 h 15.925 v -135.97 h -10.308 c -120.336,0 -218.703,-98.24 -218.703,-218.42 0,-120.167 98.367,-218.405 218.703,-218.405 h 171.652 v -136.02"
       style="fill:#000000;fill-opacity:1;fill-rule:evenodd;stroke:none"
       transform="matrix(0.13333333,0,0,-0.13333333,0,278.66667)" />
    <path
       id="path6"
       d="m 431.676,1076.78 v 0.01 c 0,107.26 87.762,195.02 195.027,195.02 H 798.258 V 881.75 H 626.703 c -107.265,0 -195.027,87.766 -195.027,195.03 z M 1211.8,857.5 V 686.719 c 0,-107.266 -87.76,-195.028 -195.03,-195.028 v 0 c -107.27,0 -195.036,87.762 -195.036,195.028 V 857.5 H 1211.8"
       style="fill:#000000;fill-opacity:1;fill-rule:evenodd;stroke:none"
       transform="matrix(0.13333333,0,0,-0.13333333,0,278.66667)" />
    <path
       id="path7"
       d="m 1211.8,1271.81 h 195.03 c 107.26,0 195.03,-87.76 195.03,-195.03 v 0 c 0,-107.264 -87.77,-195.03 -195.03,-195.03 H 1211.8 821.734 v 390.06 195.03 c 0,107.27 87.766,195.04 195.036,195.04 v 0 c 107.27,0 195.03,-87.77 195.03,-195.04 v -195.03"
       style="fill:#000000;fill-opacity:1;fill-rule:evenodd;stroke:none"
       transform="matrix(0.13333333,0,0,-0.13333333,0,278.66667)" />
    <path
       id="path8"
       d="m 634.207,266.734 c -60.988,28.598 -190.855,73.016 -239.719,134.223 -10.726,13.441 -19.504,35.953 -2.254,47.383 12.43,8.242 37.852,-2.899 54.786,-7.426 55.621,-14.867 290.117,-89.617 331.605,-108.312 44.555,-20.086 88.355,-48.176 123.684,-81.832 44.117,-42.036 69.574,-63.653 98.251,-102.836 18.06,-33.61 14.03,-60.727 16.21,-91.9262 C 997.383,45.1641 976.766,36.4219 953.094,29.5859 867.25,4.78906 835.57,-1.73438 717.461,10.1836 651.922,16.7969 570.844,43.9102 496.797,81.1875 416.32,121.711 337.922,180.527 287.105,243.582 237.328,305.344 195.422,369.297 167.5,428.402 64.5703,646.313 141.402,683.258 203.938,588.008 256.902,507.336 317.156,404.285 428.66,318.504 c 69.934,-53.801 160.035,-88.711 205.547,-51.77"
       style="fill:#000000;fill-opacity:1;fill-rule:evenodd;stroke:none"
       transform="matrix(0.13333333,0,0,-0.13333333,0,278.66667)" />
    <path
       id="path9"
       d="m 1399.32,266.734 c 60.99,28.598 190.86,73.016 239.73,134.223 10.72,13.441 19.5,35.953 2.25,47.383 -12.43,8.242 -37.85,-2.899 -54.78,-7.426 -55.63,-14.867 -290.12,-89.617 -331.61,-108.312 -44.55,-20.086 -88.36,-48.176 -123.68,-81.832 -44.12,-42.036 -69.58,-63.653 -98.26,-102.836 -18.05,-33.61 -14.03,-60.727 -16.2,-91.9262 19.38,-10.8437 40,-19.5859 63.67,-26.4219 85.85,-24.79684 117.52,-31.32028 235.63,-19.4023 65.54,6.6133 146.62,33.7266 220.66,71.0039 80.48,40.5235 158.88,99.3395 209.7,162.3945 49.78,61.762 91.68,125.715 119.6,184.82 102.93,217.911 26.1,254.856 -36.43,159.606 -52.97,-80.672 -113.22,-183.723 -224.73,-269.504 -69.93,-53.801 -160.03,-88.711 -205.55,-51.77"
       style="fill:#000000;fill-opacity:1;fill-rule:evenodd;stroke:none"
       transform="matrix(0.13333333,0,0,-0.13333333,0,278.66667)" />
    <path
       id="path10"
       d="M 1016.77,1827 Z M 661.883,1472.6 c 0,194.92 159.695,354.4 354.887,354.4 195.18,0 354.88,-159.5 354.88,-354.4 v -15.91 H 1235.5 v 10.3 c 0,120.17 -98.37,218.41 -218.71,218.41 -120.333,0 -218.704,-98.24 -218.704,-218.41 V 1295.56 H 661.883 Z m 159.851,-200.79 v 195.03 c 0,107.27 87.766,195.04 195.036,195.04 107.27,0 195.03,-87.77 195.03,-195.04 v -195.03 h 195.03 c 107.26,0 195.03,-87.76 195.03,-195.03 0,-107.264 -87.77,-195.03 -195.03,-195.03 H 1211.8 821.734 Z m 945.256,-195.03 z m -532.15,218.39 v 136.02 h 177.27 c 195.18,0 354.88,-159.48 354.88,-354.41 0,-194.921 -159.72,-354.405 -354.88,-354.405 h -15.93 v 135.973 h 10.31 c 120.33,0 218.7,98.238 218.7,218.412 0,120.17 -98.37,218.41 -218.7,218.41 z m 734.27,-218.39 c 0,262.99 -106.59,501.08 -278.93,673.42 -172.34,172.33 -410.43,278.93 -673.41,278.93 -262.989,0 -501.079,-106.6 -673.415,-278.93 C 171.016,1577.86 64.4219,1339.77 64.4219,1076.78 c 0,-168.639 43.8321,-327.042 120.7261,-464.432 6.278,-6.789 12.602,-14.918 18.79,-24.34 24.71,-37.637 51.007,-80.145 83.355,-123.5 17.805,-21.184 36.508,-41.586 56.062,-61.137 51.032,-51.031 107.829,-96.297 169.329,-134.738 47.379,-20.028 93.129,-24.945 121.523,-1.899 -60.988,28.594 -190.855,73.016 -239.719,134.223 -10.726,13.441 -19.504,35.953 -2.254,47.383 12.43,8.242 37.852,-2.899 54.786,-7.426 55.621,-14.867 290.117,-89.613 331.605,-108.312 44.555,-20.086 88.355,-48.176 123.684,-81.832 44.117,-42.036 69.574,-63.653 98.251,-102.836 4.39,-8.153 7.46,-15.93 9.65,-23.473 2.18,-0.016 4.37,-0.023 6.56,-0.023 2.19,0 4.37,0.007 6.55,0.023 2.19,7.543 5.27,15.32 9.65,23.473 28.68,39.183 54.14,60.8 98.26,102.836 35.32,33.656 79.13,61.746 123.68,81.832 41.49,18.699 275.98,93.445 331.61,108.312 16.93,4.527 42.35,15.668 54.78,7.426 17.25,-11.43 8.47,-33.942 -2.25,-47.383 -48.87,-61.207 -178.74,-105.629 -239.72,-134.223 28.39,-23.046 74.14,-18.129 121.52,1.899 61.5,38.441 118.3,83.707 169.33,134.738 19.55,19.551 38.26,39.953 56.06,61.137 32.35,43.355 58.65,85.863 83.36,123.5 6.19,9.422 12.51,17.551 18.79,24.34 76.89,137.39 120.72,295.793 120.72,464.432 z m -1702.563,0.01 c 0,194.92 159.723,354.4 354.883,354.4 h 15.922 v -135.97 h -10.305 c -120.336,0 -218.703,-98.24 -218.703,-218.42 0,-120.167 98.367,-218.405 218.703,-218.405 H 798.699 V 722.375 H 621.43 c -195.188,0 -354.883,159.48 -354.883,354.415 z m 165.129,0 z m 195.027,195.02 H 798.258 V 881.75 H 626.703 c -107.265,0 -195.027,87.766 -195.027,195.04 0,107.26 87.762,195.02 195.027,195.02 z M 1016.77,491.691 Z M 821.734,686.719 V 857.5 H 1211.8 V 686.719 c 0,-107.266 -87.76,-195.028 -195.03,-195.028 -107.27,0 -195.036,87.762 -195.036,195.028 z M 1016.77,326.563 Z M 661.883,680.969 v 18.504 h 136.156 v -12.895 c 0,-120.172 98.371,-218.41 218.711,-218.41 120.33,0 218.7,98.238 218.7,218.41 v 171.418 h 136.2 V 680.969 c 0,-194.922 -159.69,-354.406 -354.88,-354.406 -195.192,0 -354.887,159.507 -354.887,354.406"
       style="fill:#fefefe;fill-opacity:1;fill-rule:evenodd;stroke:none"
       transform="matrix(0.13333333,0,0,-0.13333333,0,278.66667)" />
    <path
       id="path11"
       d="m 2358.46,1691.4 h 8.03 c 23.32,0 38.8,2.72 46.45,8.15 7.65,5.43 11.5,15.04 11.5,28.88 0,14.91 -4.1,25.41 -12.32,31.53 -8.21,6.14 -23.44,9.17 -45.63,9.17 h -8.03 z m -2.65,-34.13 v -121.33 h -41.33 v 271.11 h 61.43 c 18.01,0 31.97,-1.2 41.96,-3.54 9.92,-2.34 18.39,-6.2 25.4,-11.63 8.41,-6.58 14.86,-15.04 19.47,-25.4 4.55,-10.37 6.82,-21.68 6.82,-34.07 0,-21.68 -5.24,-38.68 -15.73,-51 -10.49,-12.26 -25.97,-19.65 -46.45,-22.12 l 93.28,-123.35 h -49.68 l -90.24,121.33 h -4.93"
       style="fill:#000000;fill-opacity:1;fill-rule:nonzero;stroke:none"
       transform="matrix(0.13333333,0,0,-0.13333333,0,278.66667)" />
    <path
       id="path12"
       d="m 2525.68,1807.05 h 43.61 v -164.63 c 0,-24.39 5.62,-42.78 16.93,-55.04 11.32,-12.33 28.19,-18.46 50.69,-18.46 22.3,0 39.11,6.13 50.43,18.46 11.31,12.26 16.93,30.65 16.93,55.04 v 164.63 h 43.99 v -168.67 c 0,-36.66 -9.23,-64.15 -27.74,-82.35 -18.52,-18.2 -46.45,-27.3 -83.74,-27.3 -37.28,0 -65.09,9.1 -83.48,27.24 -18.39,18.14 -27.62,45.62 -27.62,82.41 v 168.67"
       style="fill:#000000;fill-opacity:1;fill-rule:nonzero;stroke:none"
       transform="matrix(0.13333333,0,0,-0.13333333,0,278.66667)" />
    <path
       id="path13"
       d="m 3030.05,1669.79 c -0.51,2.08 -1.33,7.89 -2.41,17.37 -1.01,7.9 -1.89,14.48 -2.59,19.66 -1.13,-6.19 -2.71,-12.39 -4.73,-18.52 -2.03,-6.19 -4.62,-12.45 -7.71,-18.89 l -70.91,-144.47 -70.91,147.44 c -2.97,6.06 -5.56,11.88 -7.71,17.56 -2.15,5.69 -4.04,11.32 -5.62,16.88 -0.12,-5.69 -0.57,-11.63 -1.39,-17.89 -0.82,-6.25 -2.02,-12.76 -3.6,-19.52 l -29.07,-133.47 h -40.58 l 64.09,282.48 80,-171.07 c 1.2,-2.65 3.1,-7.2 5.63,-13.46 2.52,-6.32 5.56,-14.09 9.16,-23.32 2.59,7.77 6.7,17.63 12.26,29.58 1.45,3.22 2.59,5.68 3.29,7.39 l 78.17,170.88 65.53,-282.48 H 3060 l -29.95,133.85"
       style="fill:#000000;fill-opacity:1;fill-rule:nonzero;stroke:none"
       transform="matrix(0.13333333,0,0,-0.13333333,0,278.66667)" />
    <path
       id="path14"
       d="m 3193.41,1642.48 h 75.58 l -27.81,61.81 c -1.58,3.92 -3.28,8.47 -4.99,13.59 -1.71,5.12 -3.48,10.8 -5.18,17.12 -1.46,-5.94 -3.03,-11.43 -4.74,-16.55 -1.64,-5.12 -3.35,-9.86 -5.06,-14.16 z m 121.84,-106.54 -30.71,69.77 H 3177.1 l -31.47,-69.77 h -46.25 l 131.25,281.72 131.13,-281.72 h -46.51"
       style="fill:#000000;fill-opacity:1;fill-rule:nonzero;stroke:none"
       transform="matrix(0.13333333,0,0,-0.13333333,0,278.66667)" />
    <path
       id="path15"
       d="m 3387.23,1535.94 v 271.11 h 43.98 v -100.1 h 133.47 v 100.1 h 43.98 v -271.11 h -43.98 v 131.57 h -133.47 v -131.57 h -43.98"
       style="fill:#000000;fill-opacity:1;fill-rule:nonzero;stroke:none"
       transform="matrix(0.13333333,0,0,-0.13333333,0,278.66667)" />
    <path
       id="path16"
       d="m 3769.75,1590.22 35.14,16.24 c 3.34,-12.07 9.47,-21.29 18.38,-27.61 8.86,-6.39 20.23,-9.55 34.07,-9.55 13.14,0 23.5,3.67 31.28,10.94 7.71,7.26 11.56,16.99 11.56,29.19 0,15.93 -13.2,30.15 -39.68,42.6 -3.73,1.83 -6.57,3.22 -8.54,4.04 -29.89,14.6 -49.79,27.75 -59.71,39.56 -9.93,11.82 -14.92,26.23 -14.92,43.23 0,22.12 7.52,40 22.5,53.71 14.98,13.72 34.69,20.54 59.03,20.54 19.96,0 36.71,-3.85 50.17,-11.56 13.46,-7.71 22.75,-18.77 27.93,-33.18 l -34.37,-17.82 c -5.44,8.53 -11.38,14.79 -17.89,18.7 -6.51,3.98 -13.97,5.95 -22.37,5.95 -11.82,0 -21.3,-3.1 -28.25,-9.29 -7.01,-6.14 -10.49,-14.41 -10.49,-24.78 0,-16.3 15.36,-31.53 46.01,-45.56 2.34,-1.14 4.17,-2.02 5.56,-2.59 26.79,-12.39 45.18,-24.46 55.17,-36.21 9.98,-11.82 14.97,-26.54 14.97,-44.18 0,-25.66 -8.09,-46.07 -24.26,-61.17 -16.18,-15.1 -38.05,-22.69 -65.6,-22.69 -23.06,0 -41.96,5.31 -56.75,15.93 -14.73,10.61 -24.39,25.78 -28.94,45.56"
       style="fill:#000000;fill-opacity:1;fill-rule:nonzero;stroke:none"
       transform="matrix(0.13333333,0,0,-0.13333333,0,278.66667)" />
    <path
       id="path17"
       d="m 4050.65,1642.48 h 75.58 l -27.8,61.81 c -1.58,3.92 -3.29,8.47 -5,13.59 -1.7,5.12 -3.47,10.8 -5.18,17.12 -1.45,-5.94 -3.03,-11.43 -4.73,-16.55 -1.65,-5.12 -3.36,-9.86 -5.06,-14.16 z m 121.84,-106.54 -30.71,69.77 h -107.43 l -31.47,-69.77 h -46.26 l 131.26,281.72 131.12,-281.72 h -46.51"
       style="fill:#000000;fill-opacity:1;fill-rule:nonzero;stroke:none"
       transform="matrix(0.13333333,0,0,-0.13333333,0,278.66667)" />
    <path
       id="path18"
       d="m 4244.47,1535.94 v 271.11 h 43.99 v -112.24 l 97.45,112.24 h 53.97 l -107.5,-120.58 120.26,-150.53 h -56.88 l -107.3,138.52 v -138.52 h -43.99"
       style="fill:#000000;fill-opacity:1;fill-rule:nonzero;stroke:none"
       transform="matrix(0.13333333,0,0,-0.13333333,0,278.66667)" />
    <path
       id="path19"
       d="m 4480.38,1535.94 v 271.11 h 43.99 v -271.11 h -43.99"
       style="fill:#000000;fill-opacity:1;fill-rule:nonzero;stroke:none"
       transform="matrix(0.13333333,0,0,-0.13333333,0,278.66667)" />
    <path
       id="path20"
       d="m 4675.34,1769.51 v -233.57 h -43.98 v 233.57 h -72.05 v 37.54 h 187.7 v -37.54 h -71.67"
       style="fill:#000000;fill-opacity:1;fill-rule:nonzero;stroke:none"
       transform="matrix(0.13333333,0,0,-0.13333333,0,278.66667)" />
    <path
       id="path21"
       d="m 4894,1807.05 h 43.6 v -164.63 c 0,-24.39 5.63,-42.78 16.94,-55.04 11.31,-12.33 28.18,-18.46 50.68,-18.46 22.31,0 39.12,6.13 50.43,18.46 11.31,12.26 16.94,30.65 16.94,55.04 v 164.63 h 43.98 v -168.67 c 0,-36.66 -9.22,-64.15 -27.74,-82.35 -18.52,-18.2 -46.45,-27.3 -83.74,-27.3 -37.28,0 -65.09,9.1 -83.48,27.24 -18.39,18.14 -27.61,45.62 -27.61,82.41 v 168.67"
       style="fill:#000000;fill-opacity:1;fill-rule:nonzero;stroke:none"
       transform="matrix(0.13333333,0,0,-0.13333333,0,278.66667)" />
    <path
       id="path22"
       d="m 5398.36,1669.79 c -0.5,2.08 -1.32,7.89 -2.4,17.37 -1.01,7.9 -1.89,14.48 -2.59,19.66 -1.14,-6.19 -2.72,-12.39 -4.74,-18.52 -2.02,-6.19 -4.61,-12.45 -7.71,-18.89 l -70.9,-144.47 -70.91,147.44 c -2.97,6.06 -5.56,11.88 -7.71,17.56 -2.15,5.69 -4.05,11.32 -5.63,16.88 -0.12,-5.69 -0.56,-11.63 -1.38,-17.89 -0.83,-6.25 -2.03,-12.76 -3.61,-19.52 l -29.07,-133.47 h -40.57 l 64.08,282.48 80.01,-171.07 c 1.2,-2.65 3.09,-7.2 5.62,-13.46 2.53,-6.32 5.56,-14.09 9.17,-23.32 2.59,7.77 6.69,17.63 12.25,29.58 1.46,3.22 2.6,5.68 3.29,7.39 l 78.17,170.88 65.54,-282.48 h -40.95 l -29.96,133.85"
       style="fill:#000000;fill-opacity:1;fill-rule:nonzero;stroke:none"
       transform="matrix(0.13333333,0,0,-0.13333333,0,278.66667)" />
    <path
       id="path23"
       d="m 5503.33,1807.05 h 43.6 v -164.63 c 0,-24.39 5.63,-42.78 16.94,-55.04 11.31,-12.33 28.18,-18.46 50.68,-18.46 22.31,0 39.12,6.13 50.43,18.46 11.32,12.26 16.94,30.65 16.94,55.04 v 164.63 h 43.99 v -168.67 c 0,-36.66 -9.23,-64.15 -27.75,-82.35 -18.52,-18.2 -46.45,-27.3 -83.73,-27.3 -37.29,0 -65.09,9.1 -83.48,27.24 -18.4,18.14 -27.62,45.62 -27.62,82.41 v 168.67"
       style="fill:#000000;fill-opacity:1;fill-rule:nonzero;stroke:none"
       transform="matrix(0.13333333,0,0,-0.13333333,0,278.66667)" />
    <path
       id="path24"
       d="m 6007.7,1669.79 c -0.51,2.08 -1.33,7.89 -2.41,17.37 -1.01,7.9 -1.89,14.48 -2.59,19.66 -1.13,-6.19 -2.72,-12.39 -4.74,-18.52 -2.02,-6.19 -4.61,-12.45 -7.71,-18.89 l -70.9,-144.47 -70.91,147.44 c -2.97,6.06 -5.56,11.88 -7.71,17.56 -2.15,5.69 -4.04,11.32 -5.62,16.88 -0.13,-5.69 -0.57,-11.63 -1.39,-17.89 -0.83,-6.25 -2.02,-12.76 -3.61,-19.52 l -29.06,-133.47 h -40.58 l 64.08,282.48 80.01,-171.07 c 1.2,-2.65 3.1,-7.2 5.62,-13.46 2.53,-6.32 5.57,-14.09 9.17,-23.32 2.59,7.77 6.7,17.63 12.26,29.58 1.45,3.22 2.59,5.68 3.28,7.39 l 78.18,170.88 65.53,-282.48 h -40.95 l -29.95,133.85"
       style="fill:#000000;fill-opacity:1;fill-rule:nonzero;stroke:none"
       transform="matrix(0.13333333,0,0,-0.13333333,0,278.66667)" />
    <path
       id="path25"
       d="m 6272.23,1575.75 h 37.1 c 20.35,0 35.64,1.32 45.81,4.04 10.24,2.72 19.09,7.34 26.61,13.72 10.23,8.78 17.95,19.65 23.06,32.73 5.12,13.02 7.71,28.19 7.71,45.44 0,17.32 -2.59,32.42 -7.71,45.44 -5.11,13.08 -12.83,23.95 -23.06,32.73 -7.65,6.39 -16.81,11 -27.49,13.72 -10.68,2.72 -27.43,4.04 -50.18,4.04 h -15.92 -15.93 z m -43.98,-39.81 v 271.11 h 59.34 c 38.67,0 65.85,-1.96 81.65,-5.82 15.73,-3.92 29.51,-10.43 41.39,-19.53 15.67,-12 27.55,-27.36 35.64,-46.13 8.09,-18.77 12.13,-40.19 12.13,-64.27 0,-24.07 -4.04,-45.37 -12.13,-63.95 -8.09,-18.58 -19.97,-33.94 -35.64,-46.07 -11.88,-9.1 -25.34,-15.61 -40.51,-19.53 -15.1,-3.86 -38.67,-5.81 -70.65,-5.81 h -11.88 -59.34"
       style="fill:#000000;fill-opacity:1;fill-rule:nonzero;stroke:none"
       transform="matrix(0.13333333,0,0,-0.13333333,0,278.66667)" />
    <path
       id="path26"
       d="m 6559.52,1642.48 h 75.58 l -27.81,61.81 c -1.58,3.92 -3.28,8.47 -4.99,13.59 -1.71,5.12 -3.48,10.8 -5.18,17.12 -1.46,-5.94 -3.03,-11.43 -4.74,-16.55 -1.65,-5.12 -3.35,-9.86 -5.06,-14.16 z m 121.84,-106.54 -30.72,69.77 h -107.43 l -31.47,-69.77 h -46.26 l 131.26,281.72 131.13,-281.72 h -46.51"
       style="fill:#000000;fill-opacity:1;fill-rule:nonzero;stroke:none"
       transform="matrix(0.13333333,0,0,-0.13333333,0,278.66667)" />
    <path
       id="path27"
       d="m 6753.34,1535.94 v 271.11 h 151.29 v -37.54 h -107.31 v -67.87 h 107.31 v -38.68 h -107.31 v -87.59 h 107.31 v -39.43 h -151.29"
       style="fill:#000000;fill-opacity:1;fill-rule:nonzero;stroke:none"
       transform="matrix(0.13333333,0,0,-0.13333333,0,278.66667)" />
    <path
       id="path28"
       d="m 6999.11,1691.4 h 8.02 c 23.32,0 38.8,2.72 46.45,8.15 7.65,5.43 11.5,15.04 11.5,28.88 0,14.91 -4.1,25.41 -12.32,31.53 -8.21,6.14 -23.44,9.17 -45.63,9.17 h -8.02 z m -2.66,-34.13 v -121.33 h -41.32 v 271.11 h 61.42 c 18.01,0 31.97,-1.2 41.96,-3.54 9.92,-2.34 18.39,-6.2 25.4,-11.63 8.41,-6.58 14.86,-15.04 19.47,-25.4 4.55,-10.37 6.82,-21.68 6.82,-34.07 0,-21.68 -5.24,-38.68 -15.73,-51 -10.49,-12.26 -25.97,-19.65 -46.45,-22.12 l 93.28,-123.35 h -49.67 l -90.25,121.33 h -4.93"
       style="fill:#000000;fill-opacity:1;fill-rule:nonzero;stroke:none"
       transform="matrix(0.13333333,0,0,-0.13333333,0,278.66667)" />
    <path
       id="path29"
       d="m 7224.71,1642.48 h 75.59 l -27.81,61.81 c -1.58,3.92 -3.28,8.47 -4.99,13.59 -1.71,5.12 -3.48,10.8 -5.18,17.12 -1.46,-5.94 -3.03,-11.43 -4.74,-16.55 -1.65,-5.12 -3.35,-9.86 -5.06,-14.16 z m 121.85,-106.54 -30.72,69.77 h -107.43 l -31.47,-69.77 h -46.26 l 131.26,281.72 131.13,-281.72 h -46.51"
       style="fill:#000000;fill-opacity:1;fill-rule:nonzero;stroke:none"
       transform="matrix(0.13333333,0,0,-0.13333333,0,278.66667)" />
    <path
       id="path30"
       d="m 7418.54,1535.94 v 271.11 h 43.98 v -100.1 h 133.47 v 100.1 h 43.98 v -271.11 h -43.98 v 131.57 h -133.47 v -131.57 h -43.98"
       style="fill:#000000;fill-opacity:1;fill-rule:nonzero;stroke:none"
       transform="matrix(0.13333333,0,0,-0.13333333,0,278.66667)" />
    <path
       id="path31"
       d="m 2430.7,862.203 h -104.09 v 406.667 h 116.03 c 45.31,0 77.16,-2.18 95.56,-6.64 18.29,-4.45 33.84,-12.03 46.64,-22.75 14.97,-12.41 26.44,-27.96 34.31,-46.54 7.87,-18.67 11.75,-39.34 11.75,-62.09 0,-24.27 -3.88,-45.6 -11.66,-63.99 -7.77,-18.48 -19.24,-33.56 -34.4,-45.4 -11.48,-8.91 -25.03,-15.26 -40.58,-19.15 -15.55,-3.888 -40.47,-5.876 -74.7,-5.876 h -18.86 -20 z m 0,223.527 h 21.14 c 26.64,0 45.21,3.69 55.73,10.99 10.53,7.3 15.84,19.72 15.84,37.35 0,17.07 -5.21,29.2 -15.55,36.4 -10.33,7.21 -28.72,10.81 -54.98,10.81 h -22.18 v -95.55"
       style="fill:#000000;fill-opacity:1;fill-rule:nonzero;stroke:none"
       transform="matrix(0.13333333,0,0,-0.13333333,0,278.66667)" />
    <path
       id="path32"
       d="m 2680.86,862.203 v 280.407 h 93.37 v -66.08 c 9.67,24.18 22.75,42.18 39.44,54.22 16.68,12.04 36.87,18.11 60.57,18.11 3.89,0 7.87,-0.09 11.85,-0.38 3.98,-0.28 7.96,-0.76 12.04,-1.33 l -9.67,-89.86 c -5.88,1.99 -11.75,3.41 -17.44,4.36 -5.79,0.85 -11.28,1.33 -16.69,1.33 -23.98,0 -42.46,-7.4 -55.54,-22.09 -12.99,-14.69 -19.53,-35.55 -19.53,-62.566 V 862.203 h -98.4"
       style="fill:#000000;fill-opacity:1;fill-rule:nonzero;stroke:none"
       transform="matrix(0.13333333,0,0,-0.13333333,0,278.66667)" />
    <path
       id="path33"
       d="m 3133.5,1001.74 c 0,20.85 -5.31,37.35 -15.83,49.39 -10.52,12.04 -24.83,18.1 -42.75,18.1 -18.11,0 -32.42,-6.06 -42.94,-18.1 -10.43,-12.04 -15.64,-28.54 -15.64,-49.39 0,-20.947 5.21,-37.443 15.54,-49.385 10.33,-11.945 24.75,-17.917 43.04,-17.917 18.1,0 32.42,5.972 42.94,17.917 10.43,11.942 15.64,28.438 15.64,49.385 z m 98.4,0 c 0,-20.193 -3.98,-39.431 -11.85,-57.537 -7.87,-18.203 -19.25,-34.508 -34.32,-48.918 -15.16,-14.406 -32.13,-25.402 -50.9,-32.797 -18.87,-7.394 -38.77,-11.09 -59.91,-11.09 -21.52,0 -41.62,3.696 -60.38,11.09 -18.87,7.395 -35.65,18.391 -50.43,32.797 -14.89,14.125 -26.16,30.242 -33.94,48.442 -7.78,18.296 -11.66,37.632 -11.66,58.013 0,20.48 3.88,39.81 11.56,58.01 7.68,18.11 18.96,34.41 34.04,48.92 14.59,14.22 31.28,25.03 50.14,32.23 18.77,7.2 38.96,10.8 60.67,10.8 21.71,0 41.9,-3.6 60.57,-10.8 18.68,-7.2 35.46,-18.01 50.24,-32.23 15.27,-14.69 26.73,-31.1 34.51,-49.2 7.77,-18.11 11.66,-37.44 11.66,-57.73"
       style="fill:#000000;fill-opacity:1;fill-rule:nonzero;stroke:none"
       transform="matrix(0.13333333,0,0,-0.13333333,0,278.66667)" />
    <path
       id="path34"
       d="m 3298.44,862.203 v 210.437 h -42.18 v 69.97 h 42.18 v 57.53 c 0,32.61 8.92,57.16 26.64,73.56 17.82,16.5 44.46,24.75 79.82,24.75 5.02,0 10.99,-0.48 17.91,-1.43 6.92,-0.85 14.41,-2.18 22.37,-3.79 v -75.55 c -4.45,1.71 -8.53,3.03 -12.32,3.89 -3.88,0.85 -7.3,1.23 -10.43,1.23 -9.29,0 -16.11,-2.75 -20.38,-8.34 -4.26,-5.6 -6.35,-14.6 -6.35,-27.11 v -44.74 h 49.48 v -69.97 H 3395.7 V 862.203 h -97.26"
       style="fill:#000000;fill-opacity:1;fill-rule:nonzero;stroke:none"
       transform="matrix(0.13333333,0,0,-0.13333333,0,278.66667)" />
    <path
       id="path35"
       d="m 3475.05,907.707 c 0,15.734 5.3,28.91 16.02,39.621 10.61,10.711 23.79,16.113 39.62,16.113 16.11,0 29.48,-5.402 40.29,-16.113 10.71,-10.711 16.11,-23.887 16.11,-39.621 0,-15.738 -5.4,-29.008 -16.3,-39.91 -10.81,-10.902 -24.17,-16.399 -40.1,-16.399 -15.64,0 -28.72,5.497 -39.53,16.399 -10.71,10.902 -16.11,24.172 -16.11,39.91"
       style="fill:#000000;fill-opacity:1;fill-rule:nonzero;stroke:none"
       transform="matrix(0.13333333,0,0,-0.13333333,0,278.66667)" />
    <path
       id="path36"
       d="m 4048.17,1002.12 c 0,21.8 -5.78,39.06 -17.35,51.67 -11.47,12.6 -27.3,18.85 -47.2,18.85 -20.01,0 -35.74,-6.25 -47.21,-18.85 -11.47,-12.61 -17.16,-29.87 -17.16,-51.67 0,-21.991 5.69,-39.245 17.06,-51.757 11.38,-12.515 27.12,-18.769 47.31,-18.769 19.9,0 35.73,6.254 47.2,18.863 11.57,12.606 17.35,29.859 17.35,51.663 z m 87.78,290.64 V 862.203 h -91.1 v 45.504 c -12.61,-18.867 -26.73,-32.992 -42.47,-42.281 -15.73,-9.383 -33.17,-14.028 -52.42,-14.028 -39.43,0 -70.81,13.649 -94.13,40.856 -23.31,27.203 -34.97,63.891 -34.97,109.956 0,44.65 11.66,80.77 34.88,108.26 23.22,27.49 53.46,41.23 90.81,41.23 23.7,0 43.04,-4.26 57.92,-12.79 14.88,-8.53 28.16,-22.85 39.81,-42.85 -1.14,6.64 -1.89,14.22 -2.46,22.65 -0.57,8.44 -0.86,17.64 -0.86,27.4 v 146.65 h 94.99"
       style="fill:#000000;fill-opacity:1;fill-rule:nonzero;stroke:none"
       transform="matrix(0.13333333,0,0,-0.13333333,0,278.66667)" />
    <path
       id="path37"
       d="m 4209.98,862.203 v 280.407 h 93.38 v -66.08 c 9.66,24.18 22.74,42.18 39.43,54.22 16.68,12.04 36.87,18.11 60.57,18.11 3.89,0 7.87,-0.09 11.85,-0.38 3.98,-0.28 7.96,-0.76 12.04,-1.33 l -9.67,-89.86 c -5.88,1.99 -11.75,3.41 -17.44,4.36 -5.78,0.85 -11.28,1.33 -16.69,1.33 -23.98,0 -42.46,-7.4 -55.54,-22.09 -12.99,-14.69 -19.53,-35.55 -19.53,-62.566 V 862.203 h -98.4"
       style="fill:#000000;fill-opacity:1;fill-rule:nonzero;stroke:none"
       transform="matrix(0.13333333,0,0,-0.13333333,0,278.66667)" />
    <path
       id="path38"
       d="m 4402.89,907.707 c 0,15.734 5.31,28.91 16.02,39.621 10.62,10.711 23.79,16.113 39.62,16.113 16.12,0 29.49,-5.402 40.29,-16.113 10.72,-10.711 16.12,-23.887 16.12,-39.621 0,-15.738 -5.4,-29.008 -16.31,-39.91 -10.81,-10.902 -24.17,-16.399 -40.1,-16.399 -15.64,0 -28.72,5.497 -39.52,16.399 -10.72,10.902 -16.12,24.172 -16.12,39.91"
       style="fill:#000000;fill-opacity:1;fill-rule:nonzero;stroke:none"
       transform="matrix(0.13333333,0,0,-0.13333333,0,278.66667)" />
    <path
       id="path39"
       d="m 4768.61,862.203 v 406.667 h 110.91 v -158.12 h 147.87 v 158.12 H 5138.3 V 862.203 H 5027.39 V 1027.71 H 4879.52 V 862.203 h -110.91"
       style="fill:#000000;fill-opacity:1;fill-rule:nonzero;stroke:none"
       transform="matrix(0.13333333,0,0,-0.13333333,0,278.66667)" />
    <path
       id="path40"
       d="m 5204.47,907.707 c 0,15.734 5.31,28.91 16.02,39.621 10.62,10.711 23.79,16.113 39.62,16.113 16.12,0 29.48,-5.402 40.29,-16.113 10.71,-10.711 16.12,-23.887 16.12,-39.621 0,-15.738 -5.41,-29.008 -16.31,-39.91 -10.81,-10.902 -24.17,-16.399 -40.1,-16.399 -15.64,0 -28.72,5.497 -39.52,16.399 -10.72,10.902 -16.12,24.172 -16.12,39.91"
       style="fill:#000000;fill-opacity:1;fill-rule:nonzero;stroke:none"
       transform="matrix(0.13333333,0,0,-0.13333333,0,278.66667)" />
    <path
       id="path41"
       d="m 5677.78,1014.07 h 110.24 l -41.43,134.22 c -1.23,4.08 -3.03,10.62 -5.21,19.72 -2.27,9.1 -5.12,20.76 -8.62,34.98 -2.37,-9.95 -4.74,-19.53 -7.11,-28.63 -2.28,-9 -4.65,-17.73 -7.02,-26.07 z M 5522.41,862.203 5662.8,1268.87 h 138.87 l 140.49,-406.667 h -110.25 l -20.57,72.805 h -157.45 l -21.14,-72.805 h -110.34"
       style="fill:#000000;fill-opacity:1;fill-rule:nonzero;stroke:none"
       transform="matrix(0.13333333,0,0,-0.13333333,0,278.66667)" />
    <path
       id="path42"
       d="m 5980.93,862.203 v 406.667 h 110.91 V 957.188 h 137.64 v -94.985 h -248.55"
       style="fill:#000000;fill-opacity:1;fill-rule:nonzero;stroke:none"
       transform="matrix(0.13333333,0,0,-0.13333333,0,278.66667)" />
    <path
       id="path43"
       d="m 6691.13,1064.68 c 0,-29.29 -5.41,-56.68 -16.12,-82.184 -10.71,-25.594 -26.35,-48.441 -46.92,-68.633 -20.76,-20 -44.46,-35.355 -71.1,-46.258 -26.63,-10.804 -54.31,-16.207 -82.94,-16.207 -29.1,0 -56.97,5.403 -83.52,16.207 -26.54,10.903 -49.86,26.258 -70.05,46.258 -20.95,20.192 -36.78,43.133 -47.68,68.918 -10.81,25.689 -16.21,52.989 -16.21,81.899 0,29.11 5.4,56.41 16.21,82.09 10.9,25.6 26.73,48.54 47.68,68.73 20.19,20 43.51,35.36 70.05,46.26 26.55,10.81 54.42,16.21 83.52,16.21 28.81,0 56.68,-5.4 83.41,-16.21 26.74,-10.9 50.25,-26.26 70.63,-46.26 20.38,-20 35.93,-42.85 46.83,-68.63 10.8,-25.69 16.21,-53.08 16.21,-82.19 z M 6473.86,945.242 c 30.71,0 56.12,11.281 76.21,33.844 20.1,22.654 30.14,51.184 30.14,85.594 0,34.03 -10.14,62.47 -30.52,85.32 -20.38,22.75 -45.69,34.13 -75.83,34.13 -30.72,0 -56.12,-11.38 -76.22,-34.04 -20.09,-22.65 -30.14,-51.18 -30.14,-85.41 0,-34.79 9.86,-63.41 29.67,-85.785 19.81,-22.465 45.4,-33.653 76.69,-33.653"
       style="fill:#000000;fill-opacity:1;fill-rule:nonzero;stroke:none"
       transform="matrix(0.13333333,0,0,-0.13333333,0,278.66667)" />
    <path
       id="path44"
       d="m 6760.52,862.203 v 406.667 h 249.11 v -89.3 h -141.05 v -70.52 h 132.99 v -87.02 h -132.99 v -68.823 h 141.05 v -91.004 h -249.11"
       style="fill:#000000;fill-opacity:1;fill-rule:nonzero;stroke:none"
       transform="matrix(0.13333333,0,0,-0.13333333,0,278.66667)" />
    <path
       id="path45"
       d="M 7085.75,862.203 V 1268.87 H 7197.8 V 862.203 h -112.05"
       style="fill:#000000;fill-opacity:1;fill-rule:nonzero;stroke:none"
       transform="matrix(0.13333333,0,0,-0.13333333,0,278.66667)" />
    <path
       id="path46"
       d="m 7483.13,993.586 c 16.49,-18.672 32.7,-32.606 48.72,-41.898 16.03,-9.192 31.95,-13.84 47.87,-13.84 14.79,0 27.02,3.984 36.5,11.945 9.57,7.965 14.31,18.012 14.31,30.238 0,13.461 -4.07,23.889 -12.32,31.189 -8.25,7.3 -26.83,14.88 -55.83,22.66 -39.82,10.71 -68.07,24.74 -84.56,41.89 -16.49,17.26 -24.74,40.86 -24.74,70.82 0,38.96 12.99,70.62 39.05,95.17 25.98,24.55 59.82,36.78 101.25,36.78 22.46,0 43.69,-3.04 63.79,-9 20.1,-6.08 39.15,-15.17 57.16,-27.4 l -34.79,-79.63 c -12.61,10.71 -25.5,18.77 -38.77,24.27 -13.17,5.4 -26.26,8.15 -39.25,8.15 -13.26,0 -24.07,-3.22 -32.41,-9.57 -8.34,-6.36 -12.52,-14.6 -12.52,-24.56 0,-10.14 3.61,-18.29 10.91,-24.45 7.29,-6.07 21.42,-11.95 42.27,-17.44 l 5.03,-1.43 c 45.22,-12.23 74.98,-25.59 89.2,-40.28 9.67,-9.96 16.96,-22 21.99,-35.93 5.03,-14.03 7.49,-29.48 7.49,-46.543 0,-43.133 -14.12,-77.825 -42.47,-103.989 -28.34,-26.258 -66.16,-39.34 -113.37,-39.34 -28.35,0 -54.13,4.832 -77.45,14.411 -23.22,9.668 -45.59,24.738 -67.02,45.308 l 49.96,82.469"
       style="fill:#000000;fill-opacity:1;fill-rule:nonzero;stroke:none"
       transform="matrix(0.13333333,0,0,-0.13333333,0,278.66667)" />
    <path
       id="path47"
       d="m 7903.07,1014.07 h 110.24 l -41.42,134.22 c -1.24,4.08 -3.04,10.62 -5.22,19.72 -2.27,9.1 -5.12,20.76 -8.62,34.98 -2.37,-9.95 -4.74,-19.53 -7.11,-28.63 -2.28,-9 -4.65,-17.73 -7.02,-26.07 z M 7747.7,862.203 7888.09,1268.87 h 138.87 L 8167.45,862.203 H 8057.2 l -20.57,72.805 h -157.45 l -21.14,-72.805 H 7747.7"
       style="fill:#000000;fill-opacity:1;fill-rule:nonzero;stroke:none"
       transform="matrix(0.13333333,0,0,-0.13333333,0,278.66667)" />
    <path
       id="path48"
       d="m 8309.16,1106.2 h 22.19 c 27.39,0 46.16,3.04 56.4,9.01 10.14,6.07 15.26,16.49 15.26,31.28 0,15.36 -4.74,26.07 -14.31,32.32 -9.49,6.17 -28.06,9.3 -55.65,9.3 h -23.89 z M 8206.22,862.203 v 406.667 h 111.57 c 45.88,0 77.92,-1.51 96.21,-4.46 18.21,-2.93 33.85,-8.05 47.02,-15.26 14.98,-8.34 26.45,-19.52 34.32,-33.46 7.87,-14.03 11.75,-30.14 11.75,-48.53 0,-23.13 -5.88,-41.52 -17.63,-55.18 -11.75,-13.55 -30.52,-23.88 -56.31,-30.99 28.82,-2.18 51.48,-12.33 67.69,-30.34 16.3,-18.1 24.45,-42.18 24.45,-72.42 0,-21.613 -4.55,-40.664 -13.74,-57.16 -9.1,-16.492 -22.28,-29.289 -39.25,-38.297 -13.84,-7.394 -31,-12.699 -51.28,-15.828 -20.38,-3.132 -53.65,-4.742 -99.91,-4.742 z m 102.94,83.039 h 38.87 c 26.26,0 44.84,3.321 55.74,9.86 10.9,6.636 16.3,17.628 16.3,32.988 0,17.06 -5.02,28.91 -14.97,35.74 -9.96,6.73 -28.44,10.14 -55.37,10.14 h -40.57 v -88.728"
       style="fill:#000000;fill-opacity:1;fill-rule:nonzero;stroke:none"
       transform="matrix(0.13333333,0,0,-0.13333333,0,278.66667)" />
    <path
       id="path49"
       d="m 9009.41,1064.68 c 0,-29.29 -5.41,-56.68 -16.12,-82.184 -10.71,-25.594 -26.35,-48.441 -46.92,-68.633 -20.76,-20 -44.46,-35.355 -71.1,-46.258 -26.63,-10.804 -54.31,-16.207 -82.94,-16.207 -29.1,0 -56.97,5.403 -83.51,16.207 -26.55,10.903 -49.87,26.258 -70.06,46.258 -20.95,20.192 -36.78,43.133 -47.68,68.918 -10.81,25.689 -16.21,52.989 -16.21,81.899 0,29.11 5.4,56.41 16.21,82.09 10.9,25.6 26.73,48.54 47.68,68.73 20.19,20 43.51,35.36 70.06,46.26 26.54,10.81 54.41,16.21 83.51,16.21 28.81,0 56.69,-5.4 83.42,-16.21 26.73,-10.9 50.24,-26.26 70.62,-46.26 20.38,-20 35.93,-42.85 46.83,-68.63 10.8,-25.69 16.21,-53.08 16.21,-82.19 z M 8792.14,945.242 c 30.71,0 56.12,11.281 76.22,33.844 20.09,22.654 30.14,51.184 30.14,85.594 0,34.03 -10.14,62.47 -30.53,85.32 -20.38,22.75 -45.69,34.13 -75.83,34.13 -30.71,0 -56.12,-11.38 -76.22,-34.04 -20.09,-22.65 -30.14,-51.18 -30.14,-85.41 0,-34.79 9.86,-63.41 29.67,-85.785 19.81,-22.465 45.41,-33.653 76.69,-33.653"
       style="fill:#000000;fill-opacity:1;fill-rule:nonzero;stroke:none"
       transform="matrix(0.13333333,0,0,-0.13333333,0,278.66667)" />
    <path
       id="path50"
       d="m 9078.8,862.203 v 406.667 h 249.11 v -89.3 h -141.05 v -70.52 h 133 v -87.02 h -133 v -68.823 h 141.05 V 862.203 H 9078.8"
       style="fill:#000000;fill-opacity:1;fill-rule:nonzero;stroke:none"
       transform="matrix(0.13333333,0,0,-0.13333333,0,278.66667)" />
    <path
       id="path51"
       d="m 2318.37,285.371 v 305 h 49.48 V 464.105 l 109.63,126.266 h 60.72 L 2417.27,454.723 2552.56,285.371 h -63.99 L 2367.85,441.215 V 285.371 h -49.48"
       style="fill:#000000;fill-opacity:1;fill-rule:nonzero;stroke:none"
       transform="matrix(0.13333333,0,0,-0.13333333,0,278.66667)" />
    <path
       id="path52"
       d="m 2828.77,437.23 c 0,15.43 -2.85,30.075 -8.47,43.938 -5.61,13.863 -13.72,26.234 -24.24,37.039 -10.31,10.738 -22.18,18.914 -35.69,24.672 -13.58,5.758 -27.87,8.672 -42.8,8.672 -15,0 -29.29,-2.84 -42.87,-8.528 -13.51,-5.691 -25.59,-13.937 -36.11,-24.816 -10.53,-10.664 -18.63,-22.961 -24.18,-36.828 -5.54,-13.859 -8.32,-28.578 -8.32,-44.149 0,-15.429 2.78,-30 8.32,-43.722 5.55,-13.723 13.65,-26.02 24.18,-36.828 10.52,-10.879 22.53,-19.125 36.04,-24.813 13.44,-5.687 27.8,-8.531 42.94,-8.531 14.86,0 28.94,2.844 42.38,8.531 13.36,5.688 25.45,13.934 36.11,24.813 10.52,10.808 18.63,23.105 24.24,36.898 5.62,13.863 8.47,28.367 8.47,43.652 z m 51.61,0 c 0,-21.683 -4.05,-42.16 -12.16,-61.425 -8.17,-19.34 -19.98,-36.543 -35.54,-51.688 -15.64,-15.144 -33.35,-26.73 -53.11,-34.765 -19.69,-8.036 -40.39,-12.086 -62,-12.086 -21.96,0 -42.87,4.05 -62.85,12.16 -19.9,8.172 -37.47,19.691 -52.75,34.691 -15.57,15.145 -27.37,32.278 -35.4,51.473 -8.04,19.129 -12.09,39.672 -12.09,61.64 0,21.829 4.05,42.372 12.09,61.641 8.03,19.336 19.83,36.613 35.4,51.899 15.57,15.144 33.2,26.664 52.89,34.554 19.7,7.891 40.6,11.871 62.71,11.871 21.9,0 42.66,-3.98 62.35,-11.871 19.62,-7.89 37.26,-19.41 52.76,-34.554 15.56,-15.426 27.37,-32.844 35.54,-52.184 8.11,-19.406 12.16,-39.813 12.16,-61.356"
       style="fill:#000000;fill-opacity:1;fill-rule:nonzero;stroke:none"
       transform="matrix(0.13333333,0,0,-0.13333333,0,278.66667)" />
    <path
       id="path53"
       d="m 3020.51,548.141 v -262.77 h -49.48 v 262.77 h -81.05 v 42.23 h 211.15 v -42.23 h -80.62"
       style="fill:#000000;fill-opacity:1;fill-rule:nonzero;stroke:none"
       transform="matrix(0.13333333,0,0,-0.13333333,0,278.66667)" />
    <path
       id="path54"
       d="m 3172.37,405.238 h 85.03 l -31.28,69.532 c -1.78,4.41 -3.7,9.527 -5.62,15.285 -1.91,5.761 -3.91,12.156 -5.83,19.265 -1.63,-6.679 -3.41,-12.867 -5.33,-18.625 -1.85,-5.761 -3.77,-11.093 -5.68,-15.925 z m 137.07,-119.867 -34.55,78.488 h -120.86 l -35.4,-78.488 h -52.05 l 147.67,316.945 147.52,-316.945 h -52.33"
       style="fill:#000000;fill-opacity:1;fill-rule:nonzero;stroke:none"
       transform="matrix(0.13333333,0,0,-0.13333333,0,278.66667)" />
    <path
       id="path55"
       d="m 3688.17,441.496 h 120.65 c 0,-2.058 0.07,-4.976 0.22,-8.742 0.42,-9.883 0.64,-16.496 0.64,-19.981 0,-42.871 -12.3,-76.214 -36.83,-99.89 -24.6,-23.746 -59.22,-35.617 -103.87,-35.617 -25.03,0 -47.28,3.695 -66.84,11.019 -19.55,7.395 -36.75,18.485 -51.39,33.344 -14.44,14.719 -25.53,31.996 -33.21,51.898 -7.75,19.836 -11.58,41.094 -11.58,63.703 0,23.036 3.9,44.293 11.72,63.774 7.9,19.41 19.48,36.543 34.91,51.402 14.86,14.574 32.28,25.664 52.26,33.344 19.97,7.609 41.38,11.445 64.13,11.445 23.96,0 45.5,-4.406 64.41,-13.152 18.91,-8.746 35.83,-22.109 50.69,-40.168 l -36.12,-27.301 c -10.3,11.946 -21.89,20.832 -34.83,26.66 -12.87,5.829 -27.3,8.746 -43.3,8.746 -33.06,0 -60.01,-10.593 -80.91,-31.781 -20.9,-21.187 -31.35,-48.699 -31.35,-82.539 0,-34.484 10.45,-62.426 31.35,-83.824 20.9,-21.469 47.99,-32.207 81.34,-32.207 28.29,0 50.62,6.613 66.83,19.766 16.28,13.222 24.38,31.136 24.38,53.96 v 4.336 h -73.3 v 41.805"
       style="fill:#000000;fill-opacity:1;fill-rule:nonzero;stroke:none"
       transform="matrix(0.13333333,0,0,-0.13333333,0,278.66667)" />
    <path
       id="path56"
       d="m 4122.85,437.23 c 0,15.43 -2.84,30.075 -8.46,43.938 -5.62,13.863 -13.72,26.234 -24.24,37.039 -10.31,10.738 -22.19,18.914 -35.69,24.672 -13.58,5.758 -27.87,8.672 -42.8,8.672 -15,0 -29.29,-2.84 -42.87,-8.528 -13.51,-5.691 -25.59,-13.937 -36.12,-24.816 -10.52,-10.664 -18.63,-22.961 -24.17,-36.828 -5.55,-13.859 -8.32,-28.578 -8.32,-44.149 0,-15.429 2.77,-30 8.32,-43.722 5.54,-13.723 13.65,-26.02 24.17,-36.828 10.53,-10.879 22.54,-19.125 36.04,-24.813 13.44,-5.687 27.8,-8.531 42.95,-8.531 14.86,0 28.93,2.844 42.37,8.531 13.37,5.688 25.45,13.934 36.12,24.813 10.52,10.808 18.62,23.105 24.24,36.898 5.62,13.863 8.46,28.367 8.46,43.652 z m 51.62,0 c 0,-21.683 -4.06,-42.16 -12.16,-61.425 -8.18,-19.34 -19.98,-36.543 -35.55,-51.688 -15.64,-15.144 -33.34,-26.73 -53.11,-34.765 -19.69,-8.036 -40.38,-12.086 -61.99,-12.086 -21.97,0 -42.87,4.05 -62.85,12.16 -19.91,8.172 -37.47,19.691 -52.76,34.691 -15.57,15.145 -27.37,32.278 -35.4,51.473 -8.03,19.129 -12.08,39.672 -12.08,61.64 0,21.829 4.05,42.372 12.08,61.641 8.03,19.336 19.83,36.613 35.4,51.899 15.58,15.144 33.21,26.664 52.9,34.554 19.69,7.891 40.6,11.871 62.71,11.871 21.89,0 42.66,-3.98 62.35,-11.871 19.62,-7.89 37.25,-19.41 52.75,-34.554 15.57,-15.426 27.37,-32.844 35.55,-52.184 8.1,-19.406 12.16,-39.813 12.16,-61.356"
       style="fill:#000000;fill-opacity:1;fill-rule:nonzero;stroke:none"
       transform="matrix(0.13333333,0,0,-0.13333333,0,278.66667)" />
    <path
       id="path57"
       d="m 4280.75,460.266 h 9.04 c 26.23,0 43.65,3.058 52.25,9.172 8.6,6.113 12.94,16.921 12.94,32.492 0,16.777 -4.62,28.578 -13.86,35.476 -9.25,6.895 -26.38,10.309 -51.33,10.309 h -9.04 z m -2.98,-38.391 V 285.371 h -46.5 v 305 h 69.11 c 20.26,0 35.97,-1.351 47.2,-3.98 11.17,-2.633 20.69,-6.969 28.59,-13.082 9.45,-7.395 16.71,-16.922 21.89,-28.582 5.12,-11.661 7.68,-24.383 7.68,-38.321 0,-24.386 -5.9,-43.511 -17.7,-57.375 -11.8,-13.789 -29.22,-22.109 -52.25,-24.883 l 104.93,-138.777 h -55.88 l -101.52,136.504 h -5.55"
       style="fill:#000000;fill-opacity:1;fill-rule:nonzero;stroke:none"
       transform="matrix(0.13333333,0,0,-0.13333333,0,278.66667)" />
    <path
       id="path58"
       d="m 4731.21,437.23 c 0,15.43 -2.83,30.075 -8.45,43.938 -5.62,13.863 -13.72,26.234 -24.25,37.039 -10.31,10.738 -22.18,18.914 -35.69,24.672 -13.57,5.758 -27.86,8.672 -42.8,8.672 -15,0 -29.29,-2.84 -42.87,-8.528 -13.51,-5.691 -25.59,-13.937 -36.11,-24.816 -10.52,-10.664 -18.63,-22.961 -24.18,-36.828 -5.54,-13.859 -8.31,-28.578 -8.31,-44.149 0,-15.429 2.77,-30 8.31,-43.722 5.55,-13.723 13.66,-26.02 24.18,-36.828 10.52,-10.879 22.53,-19.125 36.04,-24.813 13.44,-5.687 27.8,-8.531 42.94,-8.531 14.86,0 28.94,2.844 42.38,8.531 13.36,5.688 25.45,13.934 36.11,24.813 10.53,10.808 18.63,23.105 24.25,36.898 5.62,13.863 8.45,28.367 8.45,43.652 z m 51.62,0 c 0,-21.683 -4.05,-42.16 -12.15,-61.425 -8.18,-19.34 -19.98,-36.543 -35.55,-51.688 -15.64,-15.144 -33.34,-26.73 -53.11,-34.765 -19.69,-8.036 -40.38,-12.086 -62,-12.086 -21.97,0 -42.87,4.05 -62.84,12.16 -19.91,8.172 -37.47,19.691 -52.76,34.691 -15.57,15.145 -27.37,32.278 -35.4,51.473 -8.04,19.129 -12.09,39.672 -12.09,61.64 0,21.829 4.05,42.372 12.09,61.641 8.03,19.336 19.83,36.613 35.4,51.899 15.57,15.144 33.21,26.664 52.9,34.554 19.69,7.891 40.59,11.871 62.7,11.871 21.9,0 42.66,-3.98 62.36,-11.871 19.62,-7.89 37.25,-19.41 52.75,-34.554 15.57,-15.426 27.37,-32.844 35.55,-52.184 8.1,-19.406 12.15,-39.813 12.15,-61.356"
       style="fill:#000000;fill-opacity:1;fill-rule:nonzero;stroke:none"
       transform="matrix(0.13333333,0,0,-0.13333333,0,278.66667)" />
    <path
       id="path59"
       d="m 4839.64,285.371 v 316.945 l 193.81,-186.343 c 5.26,-5.262 10.59,-10.879 16.06,-16.848 5.41,-5.973 11.1,-12.727 17.06,-20.191 v 211.437 h 45.65 V 273.426 l -197.58,189.828 c -5.26,5.187 -10.38,10.594 -15.28,16.277 -4.98,5.692 -9.6,11.66 -14.08,17.918 V 285.371 h -45.64"
       style="fill:#000000;fill-opacity:1;fill-rule:nonzero;stroke:none"
       transform="matrix(0.13333333,0,0,-0.13333333,0,278.66667)" />
    <path
       id="path60"
       d="m 5280.79,548.141 v -262.77 h -49.49 v 262.77 h -81.05 v 42.23 h 211.16 v -42.23 h -80.62"
       style="fill:#000000;fill-opacity:1;fill-rule:nonzero;stroke:none"
       transform="matrix(0.13333333,0,0,-0.13333333,0,278.66667)" />
    <path
       id="path61"
       d="m 5432.65,405.238 h 85.03 l -31.29,69.532 c -1.77,4.41 -3.69,9.527 -5.61,15.285 -1.92,5.761 -3.91,12.156 -5.83,19.265 -1.63,-6.679 -3.41,-12.867 -5.33,-18.625 -1.85,-5.761 -3.77,-11.093 -5.69,-15.925 z m 137.07,-119.867 -34.55,78.488 H 5414.3 l -35.4,-78.488 h -52.04 l 147.66,316.945 147.53,-316.945 h -52.33"
       style="fill:#000000;fill-opacity:1;fill-rule:nonzero;stroke:none"
       transform="matrix(0.13333333,0,0,-0.13333333,0,278.66667)" />
    <path
       id="path62"
       d="m 5650.7,285.371 v 305 h 49.48 V 329.734 h 110.91 V 285.371 H 5650.7"
       style="fill:#000000;fill-opacity:1;fill-rule:nonzero;stroke:none"
       transform="matrix(0.13333333,0,0,-0.13333333,0,278.66667)" />
    <path
       id="path63"
       d="m 6097.11,437.23 c 0,15.43 -2.84,30.075 -8.46,43.938 -5.61,13.863 -13.72,26.234 -24.24,37.039 -10.31,10.738 -22.18,18.914 -35.7,24.672 -13.57,5.758 -27.86,8.672 -42.79,8.672 -15,0 -29.29,-2.84 -42.87,-8.528 -13.51,-5.691 -25.6,-13.937 -36.12,-24.816 -10.52,-10.664 -18.63,-22.961 -24.17,-36.828 -5.55,-13.859 -8.32,-28.578 -8.32,-44.149 0,-15.429 2.77,-30 8.32,-43.722 5.54,-13.723 13.65,-26.02 24.17,-36.828 10.52,-10.879 22.54,-19.125 36.05,-24.813 13.43,-5.687 27.79,-8.531 42.94,-8.531 14.86,0 28.94,2.844 42.37,8.531 13.37,5.688 25.45,13.934 36.12,24.813 10.52,10.808 18.63,23.105 24.24,36.898 5.62,13.863 8.46,28.367 8.46,43.652 z m 51.62,0 c 0,-21.683 -4.06,-42.16 -12.16,-61.425 -8.18,-19.34 -19.98,-36.543 -35.55,-51.688 -15.64,-15.144 -33.34,-26.73 -53.11,-34.765 -19.69,-8.036 -40.38,-12.086 -61.99,-12.086 -21.97,0 -42.87,4.05 -62.85,12.16 -19.91,8.172 -37.47,19.691 -52.75,34.691 -15.57,15.145 -27.37,32.278 -35.41,51.473 -8.03,19.129 -12.09,39.672 -12.09,61.64 0,21.829 4.06,42.372 12.09,61.641 8.04,19.336 19.84,36.613 35.41,51.899 15.57,15.144 33.2,26.664 52.89,34.554 19.7,7.891 40.59,11.871 62.71,11.871 21.9,0 42.65,-3.98 62.35,-11.871 19.62,-7.89 37.25,-19.41 52.75,-34.554 15.57,-15.426 27.37,-32.844 35.55,-52.184 8.1,-19.406 12.16,-39.813 12.16,-61.356"
       style="fill:#000000;fill-opacity:1;fill-rule:nonzero;stroke:none"
       transform="matrix(0.13333333,0,0,-0.13333333,0,278.66667)" />
  </g>
</svg>
