<?xml version="1.0" encoding="UTF-8" standalone="no"?>
<!-- Created with Inkscape (http://www.inkscape.org/) -->

<svg
   version="1.1"
   id="svg1"
   width="668"
   height="446.66666"
   viewBox="0 0 668 446.66666"
   sodipodi:docname="Logo_RSAS_v02_bw.eps"
   xmlns:inkscape="http://www.inkscape.org/namespaces/inkscape"
   xmlns:sodipodi="http://sodipodi.sourceforge.net/DTD/sodipodi-0.dtd"
   xmlns="http://www.w3.org/2000/svg"
   xmlns:svg="http://www.w3.org/2000/svg">
  <defs
     id="defs1" />
  <sodipodi:namedview
     id="namedview1"
     pagecolor="#ffffff"
     bordercolor="#000000"
     borderopacity="0.25"
     inkscape:showpageshadow="2"
     inkscape:pageopacity="0.0"
     inkscape:pagecheckerboard="0"
     inkscape:deskcolor="#d1d1d1">
    <inkscape:page
       x="0"
       y="0"
       inkscape:label="1"
       id="page1"
       width="668"
       height="446.66666"
       margin="0"
       bleed="0" />
  </sodipodi:namedview>
  <g
     id="g1"
     inkscape:groupmode="layer"
     inkscape:label="1">
    <path
       id="path1"
       d="m 633.004,963.199 h 5.726 c 16.625,0 27.668,1.942 33.122,5.817 5.449,3.875 8.199,10.726 8.199,20.593 0,10.631 -2.926,18.111 -8.785,22.481 -5.86,4.37 -16.719,6.54 -32.536,6.54 h -5.726 z m -1.891,-24.332 v -86.519 h -29.472 v 193.322 h 43.804 c 12.84,0 22.801,-0.86 29.922,-2.53 7.071,-1.66 13.113,-4.41 18.113,-8.29 5.997,-4.68 10.59,-10.72 13.879,-18.12 3.246,-7.38 4.868,-15.45 4.868,-24.281 0,-15.457 -3.739,-27.578 -11.223,-36.367 -7.481,-8.742 -18.52,-14.016 -33.117,-15.769 l 66.511,-87.965 H 698.98 l -64.355,86.519 h -3.512"
       style="fill:#000000;fill-opacity:1;fill-rule:nonzero;stroke:none"
       transform="matrix(0.13333333,0,0,-0.13333333,0,446.66667)" />
    <path
       id="path2"
       d="m 752.242,1045.67 h 31.094 V 928.277 c 0,-17.394 4.012,-30.507 12.078,-39.25 8.066,-8.789 20.098,-13.16 36.141,-13.16 15.906,0 27.894,4.371 35.961,13.16 8.066,8.743 12.074,21.856 12.074,39.25 v 117.393 h 31.367 V 925.395 c 0,-26.137 -6.578,-45.739 -19.785,-58.719 -13.203,-12.977 -33.121,-19.465 -59.707,-19.465 -26.59,0 -46.414,6.488 -59.531,19.418 -13.114,12.937 -19.692,32.539 -19.692,58.766 v 120.275"
       style="fill:#000000;fill-opacity:1;fill-rule:nonzero;stroke:none"
       transform="matrix(0.13333333,0,0,-0.13333333,0,446.66667)" />
    <path
       id="path3"
       d="m 1111.89,947.793 c -0.35,1.484 -0.94,5.633 -1.71,12.391 -0.72,5.629 -1.35,10.32 -1.85,14.011 -0.81,-4.414 -1.93,-8.828 -3.38,-13.203 -1.44,-4.414 -3.29,-8.875 -5.49,-13.472 l -50.57,-103.016 -50.554,105.133 c -2.117,4.324 -3.969,8.472 -5.496,12.531 -1.535,4.055 -2.887,8.062 -4.012,12.027 -0.09,-4.05 -0.406,-8.289 -0.992,-12.754 -0.586,-4.457 -1.445,-9.101 -2.57,-13.921 l -20.727,-95.172 h -28.934 l 45.696,201.432 57.049,-121.987 c 0.86,-1.895 2.21,-5.137 4.01,-9.598 1.8,-4.507 3.97,-10.05 6.53,-16.629 1.86,5.543 4.78,12.571 8.75,21.09 1.04,2.297 1.84,4.055 2.34,5.274 l 55.75,121.85 46.72,-201.432 h -29.2 l -21.36,95.445"
       style="fill:#000000;fill-opacity:1;fill-rule:nonzero;stroke:none"
       transform="matrix(0.13333333,0,0,-0.13333333,0,446.66667)" />
    <path
       id="path4"
       d="m 1228.38,928.324 h 53.9 l -19.83,44.071 c -1.13,2.793 -2.34,6.039 -3.56,9.687 -1.22,3.652 -2.48,7.707 -3.7,12.215 -1.03,-4.238 -2.16,-8.156 -3.38,-11.809 -1.17,-3.648 -2.38,-7.027 -3.6,-10.093 z m 86.89,-75.976 -21.91,49.75 h -76.61 l -22.44,-49.75 h -32.98 l 93.6,200.892 93.5,-200.892 h -33.16"
       style="fill:#000000;fill-opacity:1;fill-rule:nonzero;stroke:none"
       transform="matrix(0.13333333,0,0,-0.13333333,0,446.66667)" />
    <path
       id="path5"
       d="m 1366.59,852.348 v 193.322 h 31.36 v -71.385 h 95.18 v 71.385 h 31.36 V 852.348 h -31.36 v 93.82 h -95.18 v -93.82 h -31.36"
       style="fill:#000000;fill-opacity:1;fill-rule:nonzero;stroke:none"
       transform="matrix(0.13333333,0,0,-0.13333333,0,446.66667)" />
    <path
       id="path6"
       d="m 1639.36,891.055 25.05,11.582 c 2.39,-8.606 6.76,-15.188 13.12,-19.692 6.31,-4.55 14.42,-6.804 24.28,-6.804 9.38,0 16.77,2.613 22.31,7.797 5.5,5.179 8.25,12.121 8.25,20.82 0,11.355 -9.42,21.492 -28.3,30.367 -2.66,1.309 -4.69,2.301 -6.09,2.887 -21.31,10.41 -35.5,19.785 -42.58,28.211 -7.08,8.425 -10.63,18.699 -10.63,30.82 0,15.777 5.36,28.527 16.04,38.307 10.68,9.78 24.74,14.65 42.09,14.65 14.24,0 26.18,-2.75 35.78,-8.25 9.6,-5.5 16.22,-13.39 19.91,-23.66 l -24.51,-12.71 c -3.87,6.08 -8.11,10.55 -12.75,13.34 -4.64,2.84 -9.96,4.24 -15.95,4.24 -8.43,0 -15.19,-2.21 -20.15,-6.63 -5,-4.37 -7.48,-10.27 -7.48,-17.662 0,-11.629 10.95,-22.488 32.81,-32.492 1.67,-0.809 2.97,-1.442 3.96,-1.848 19.11,-8.832 32.22,-17.437 39.34,-25.82 7.12,-8.426 10.69,-18.926 10.69,-31.5 0,-18.297 -5.77,-32.852 -17.31,-43.621 -11.54,-10.77 -27.13,-16.176 -46.78,-16.176 -16.44,0 -29.92,3.781 -40.46,11.355 -10.5,7.571 -17.4,18.383 -20.64,32.489"
       style="fill:#000000;fill-opacity:1;fill-rule:nonzero;stroke:none"
       transform="matrix(0.13333333,0,0,-0.13333333,0,446.66667)" />
    <path
       id="path7"
       d="m 1839.66,928.324 h 53.9 l -19.83,44.071 c -1.12,2.793 -2.34,6.039 -3.56,9.687 -1.21,3.652 -2.47,7.707 -3.69,12.215 -1.04,-4.238 -2.17,-8.156 -3.38,-11.809 -1.17,-3.648 -2.39,-7.027 -3.61,-10.093 z m 86.89,-75.976 -21.91,49.75 h -76.6 l -22.44,-49.75 h -32.99 l 93.6,200.892 93.5,-200.892 h -33.16"
       style="fill:#000000;fill-opacity:1;fill-rule:nonzero;stroke:none"
       transform="matrix(0.13333333,0,0,-0.13333333,0,446.66667)" />
    <path
       id="path8"
       d="m 1977.87,852.348 v 193.322 h 31.37 v -80.033 l 69.49,80.033 h 38.48 l -76.65,-85.982 85.75,-107.34 h -40.56 l -76.51,98.777 v -98.777 h -31.37"
       style="fill:#000000;fill-opacity:1;fill-rule:nonzero;stroke:none"
       transform="matrix(0.13333333,0,0,-0.13333333,0,446.66667)" />
    <path
       id="path9"
       d="m 2146.09,852.348 v 193.322 h 31.37 V 852.348 h -31.37"
       style="fill:#000000;fill-opacity:1;fill-rule:nonzero;stroke:none"
       transform="matrix(0.13333333,0,0,-0.13333333,0,446.66667)" />
    <path
       id="path10"
       d="M 2285.11,1018.9 V 852.348 h -31.36 V 1018.9 h -51.37 v 26.77 h 133.83 v -26.77 h -51.1"
       style="fill:#000000;fill-opacity:1;fill-rule:nonzero;stroke:none"
       transform="matrix(0.13333333,0,0,-0.13333333,0,446.66667)" />
    <path
       id="path11"
       d="m 2441.03,1045.67 h 31.1 V 928.277 c 0,-17.394 4.01,-30.507 12.07,-39.25 8.07,-8.789 20.1,-13.16 36.15,-13.16 15.9,0 27.89,4.371 35.96,13.16 8.06,8.743 12.07,21.856 12.07,39.25 v 117.393 h 31.37 V 925.395 c 0,-26.137 -6.58,-45.739 -19.79,-58.719 -13.2,-12.977 -33.12,-19.465 -59.7,-19.465 -26.59,0 -46.42,6.488 -59.53,19.418 -13.12,12.937 -19.7,32.539 -19.7,58.766 v 120.275"
       style="fill:#000000;fill-opacity:1;fill-rule:nonzero;stroke:none"
       transform="matrix(0.13333333,0,0,-0.13333333,0,446.66667)" />
    <path
       id="path12"
       d="m 2800.68,947.793 c -0.36,1.484 -0.94,5.633 -1.71,12.391 -0.72,5.629 -1.35,10.32 -1.84,14.011 -0.82,-4.414 -1.94,-8.828 -3.38,-13.203 -1.45,-4.414 -3.29,-8.875 -5.5,-13.472 l -50.56,-103.016 -50.56,105.133 c -2.12,4.324 -3.97,8.472 -5.5,12.531 -1.53,4.055 -2.89,8.062 -4.01,12.027 -0.09,-4.05 -0.41,-8.289 -0.99,-12.754 -0.59,-4.457 -1.45,-9.101 -2.57,-13.921 l -20.73,-95.172 h -28.93 l 45.69,201.432 57.05,-121.987 c 0.86,-1.895 2.21,-5.137 4.01,-9.598 1.81,-4.507 3.97,-10.05 6.54,-16.629 1.85,5.543 4.77,12.571 8.74,21.09 1.04,2.297 1.85,4.055 2.34,5.274 l 55.75,121.85 46.73,-201.432 h -29.2 l -21.37,95.445"
       style="fill:#000000;fill-opacity:1;fill-rule:nonzero;stroke:none"
       transform="matrix(0.13333333,0,0,-0.13333333,0,446.66667)" />
    <path
       id="path13"
       d="m 2875.54,1045.67 h 31.09 V 928.277 c 0,-17.394 4.01,-30.507 12.07,-39.25 8.07,-8.789 20.1,-13.16 36.15,-13.16 15.9,0 27.89,4.371 35.96,13.16 8.06,8.743 12.07,21.856 12.07,39.25 v 117.393 h 31.37 V 925.395 c 0,-26.137 -6.58,-45.739 -19.79,-58.719 -13.2,-12.977 -33.12,-19.465 -59.7,-19.465 -26.59,0 -46.42,6.488 -59.53,19.418 -13.12,12.937 -19.69,32.539 -19.69,58.766 v 120.275"
       style="fill:#000000;fill-opacity:1;fill-rule:nonzero;stroke:none"
       transform="matrix(0.13333333,0,0,-0.13333333,0,446.66667)" />
    <path
       id="path14"
       d="m 3235.18,947.793 c -0.36,1.484 -0.94,5.633 -1.71,12.391 -0.72,5.629 -1.35,10.32 -1.84,14.011 -0.82,-4.414 -1.94,-8.828 -3.38,-13.203 -1.45,-4.414 -3.29,-8.875 -5.5,-13.472 l -50.56,-103.016 -50.56,105.133 c -2.12,4.324 -3.97,8.472 -5.5,12.531 -1.53,4.055 -2.89,8.062 -4.01,12.027 -0.09,-4.05 -0.41,-8.289 -0.99,-12.754 -0.59,-4.457 -1.45,-9.101 -2.57,-13.921 l -20.73,-95.172 h -28.93 l 45.69,201.432 57.05,-121.987 c 0.86,-1.895 2.21,-5.137 4.01,-9.598 1.81,-4.507 3.97,-10.05 6.54,-16.629 1.85,5.543 4.77,12.571 8.74,21.09 1.04,2.297 1.85,4.055 2.34,5.274 l 55.75,121.85 46.73,-201.432 h -29.2 l -21.37,95.445"
       style="fill:#000000;fill-opacity:1;fill-rule:nonzero;stroke:none"
       transform="matrix(0.13333333,0,0,-0.13333333,0,446.66667)" />
    <path
       id="path15"
       d="m 3423.82,880.734 h 26.45 c 14.51,0 25.42,0.95 32.67,2.887 7.3,1.938 13.61,5.227 18.97,9.777 7.3,6.262 12.8,14.016 16.45,23.344 3.65,9.281 5.5,20.098 5.5,32.399 0,12.347 -1.85,23.121 -5.5,32.402 -3.65,9.328 -9.15,17.078 -16.45,23.337 -5.45,4.56 -11.98,7.85 -19.6,9.78 -7.61,1.94 -19.56,2.89 -35.78,2.89 h -11.35 -11.36 z m -31.37,-28.386 v 193.322 h 42.32 c 27.58,0 46.96,-1.4 58.22,-4.15 11.22,-2.79 21.05,-7.43 29.52,-13.92 11.17,-8.56 19.64,-19.51 25.41,-32.897 5.77,-13.387 8.66,-28.66 8.66,-45.832 0,-17.168 -2.89,-32.355 -8.66,-45.601 -5.77,-13.25 -14.24,-24.2 -25.41,-32.852 -8.47,-6.488 -18.07,-11.133 -28.89,-13.926 -10.77,-2.75 -27.58,-4.144 -50.38,-4.144 h -8.47 -42.32"
       style="fill:#000000;fill-opacity:1;fill-rule:nonzero;stroke:none"
       transform="matrix(0.13333333,0,0,-0.13333333,0,446.66667)" />
    <path
       id="path16"
       d="m 3628.68,928.324 h 53.89 l -19.82,44.071 c -1.13,2.793 -2.35,6.039 -3.57,9.687 -1.21,3.652 -2.47,7.707 -3.69,12.215 -1.04,-4.238 -2.16,-8.156 -3.38,-11.809 -1.17,-3.648 -2.39,-7.027 -3.61,-10.093 z m 86.88,-75.976 -21.9,49.75 h -76.61 l -22.44,-49.75 h -32.99 l 93.6,200.892 93.51,-200.892 h -33.17"
       style="fill:#000000;fill-opacity:1;fill-rule:nonzero;stroke:none"
       transform="matrix(0.13333333,0,0,-0.13333333,0,446.66667)" />
    <path
       id="path17"
       d="m 3766.89,852.348 v 193.322 h 107.88 v -26.77 h -76.52 v -48.396 h 76.52 v -27.578 h -76.52 v -62.461 h 76.52 v -28.117 h -107.88"
       style="fill:#000000;fill-opacity:1;fill-rule:nonzero;stroke:none"
       transform="matrix(0.13333333,0,0,-0.13333333,0,446.66667)" />
    <path
       id="path18"
       d="m 3942.14,963.199 h 5.72 c 16.63,0 27.67,1.942 33.12,5.817 5.45,3.875 8.2,10.726 8.2,20.593 0,10.631 -2.93,18.111 -8.79,22.481 -5.85,4.37 -16.71,6.54 -32.53,6.54 h -5.72 z m -1.9,-24.332 v -86.519 h -29.47 v 193.322 h 43.8 c 12.85,0 22.81,-0.86 29.93,-2.53 7.07,-1.66 13.11,-4.41 18.11,-8.29 6,-4.68 10.59,-10.72 13.88,-18.12 3.24,-7.38 4.87,-15.45 4.87,-24.281 0,-15.457 -3.74,-27.578 -11.22,-36.367 -7.48,-8.742 -18.52,-14.016 -33.12,-15.769 l 66.51,-87.965 h -35.42 l -64.35,86.519 h -3.52"
       style="fill:#000000;fill-opacity:1;fill-rule:nonzero;stroke:none"
       transform="matrix(0.13333333,0,0,-0.13333333,0,446.66667)" />
    <path
       id="path19"
       d="m 4103.01,928.324 h 53.9 l -19.83,44.071 c -1.13,2.793 -2.34,6.039 -3.56,9.687 -1.22,3.652 -2.48,7.707 -3.7,12.215 -1.03,-4.238 -2.16,-8.156 -3.37,-11.809 -1.18,-3.648 -2.39,-7.027 -3.61,-10.093 z m 86.89,-75.976 -21.91,49.75 h -76.6 l -22.44,-49.75 h -32.99 l 93.59,200.892 93.51,-200.892 h -33.16"
       style="fill:#000000;fill-opacity:1;fill-rule:nonzero;stroke:none"
       transform="matrix(0.13333333,0,0,-0.13333333,0,446.66667)" />
    <path
       id="path20"
       d="m 4241.22,852.348 v 193.322 h 31.37 v -71.385 h 95.17 v 71.385 h 31.37 V 852.348 h -31.37 v 93.82 h -95.17 v -93.82 h -31.37"
       style="fill:#000000;fill-opacity:1;fill-rule:nonzero;stroke:none"
       transform="matrix(0.13333333,0,0,-0.13333333,0,446.66667)" />
    <path
       id="path21"
       d="M 83.0547,398.082 H 8.83594 V 688.066 H 91.5742 c 32.3088,0 55.0238,-1.554 68.1368,-4.73 13.043,-3.176 24.129,-8.586 33.254,-16.227 10.683,-8.851 18.859,-19.937 24.473,-33.187 5.609,-13.317 8.382,-28.051 8.382,-44.274 0,-17.304 -2.773,-32.515 -8.316,-45.628 -5.543,-13.184 -13.719,-23.93 -24.539,-32.379 -8.176,-6.356 -17.844,-10.883 -28.93,-13.653 -11.086,-2.773 -28.863,-4.195 -53.265,-4.195 H 97.3203 83.0547 Z m 0,159.391 h 15.0742 c 18.9961,0 32.2461,2.636 39.7501,7.84 7.504,5.203 11.285,14.058 11.285,26.632 0,12.168 -3.719,20.821 -11.086,25.957 -7.367,5.137 -20.48,7.707 -39.203,7.707 H 83.0547 v -68.136"
       style="fill:#000000;fill-opacity:1;fill-rule:nonzero;stroke:none"
       transform="matrix(0.13333333,0,0,-0.13333333,0,446.66667)" />
    <path
       id="path22"
       d="m 261.441,398.082 v 199.945 h 66.586 v -47.113 c 6.891,17.238 16.223,30.078 28.118,38.668 11.898,8.582 26.296,12.906 43.195,12.906 2.769,0 5.609,-0.066 8.449,-0.269 2.84,-0.203 5.676,-0.539 8.586,-0.946 l -6.895,-64.082 c -4.195,1.422 -8.382,2.434 -12.441,3.114 -4.121,0.605 -8.043,0.945 -11.894,0.945 -17.102,0 -30.282,-5.273 -39.614,-15.754 -9.258,-10.476 -13.922,-25.348 -13.922,-44.609 v -82.805 h -70.168"
       style="fill:#000000;fill-opacity:1;fill-rule:nonzero;stroke:none"
       transform="matrix(0.13333333,0,0,-0.13333333,0,446.66667)" />
    <path
       id="path23"
       d="m 584.211,497.582 c 0,14.871 -3.781,26.633 -11.285,35.219 -7.504,8.582 -17.711,12.906 -30.488,12.906 -12.907,0 -23.118,-4.324 -30.618,-12.906 -7.437,-8.586 -11.156,-20.348 -11.156,-35.219 0,-14.937 3.719,-26.699 11.086,-35.219 7.367,-8.515 17.645,-12.773 30.688,-12.773 12.914,0 23.121,4.258 30.625,12.773 7.433,8.52 11.148,20.282 11.148,35.219 z m 70.168,0 c 0,-14.398 -2.84,-28.121 -8.449,-41.031 -5.61,-12.977 -13.723,-24.606 -24.469,-34.879 -10.816,-10.274 -22.918,-18.113 -36.301,-23.387 -13.449,-5.273 -27.648,-7.91 -42.722,-7.91 -15.344,0 -29.672,2.637 -43.059,7.91 -13.449,5.274 -25.414,13.113 -35.961,23.387 -10.609,10.07 -18.656,21.562 -24.199,34.543 -5.539,13.043 -8.313,26.832 -8.313,41.367 0,14.602 2.774,28.391 8.246,41.367 5.477,12.91 13.52,24.539 24.266,34.879 10.41,10.141 22.309,17.848 35.762,22.985 13.383,5.136 27.777,7.707 43.258,7.707 15.48,0 29.878,-2.571 43.195,-7.707 13.316,-5.137 25.281,-12.844 35.828,-22.985 10.883,-10.476 19.059,-22.168 24.605,-35.082 5.539,-12.91 8.313,-26.699 8.313,-41.164"
       style="fill:#000000;fill-opacity:1;fill-rule:nonzero;stroke:none"
       transform="matrix(0.13333333,0,0,-0.13333333,0,446.66667)" />
    <path
       id="path24"
       d="m 701.832,398.082 v 150.063 h -30.078 v 49.882 h 30.078 v 41.032 c 0,23.254 6.356,40.761 18.992,52.457 12.711,11.757 31.703,17.64 56.918,17.64 3.582,0 7.84,-0.336 12.778,-1.015 4.929,-0.606 10.269,-1.551 15.949,-2.703 v -53.872 c -3.176,1.215 -6.082,2.161 -8.789,2.77 -2.77,0.609 -5.203,0.879 -7.434,0.879 -6.625,0 -11.492,-1.961 -14.535,-5.949 -3.039,-3.989 -4.523,-10.407 -4.523,-19.332 v -31.907 h 35.281 V 548.145 H 771.188 V 398.082 h -69.356"
       style="fill:#000000;fill-opacity:1;fill-rule:nonzero;stroke:none"
       transform="matrix(0.13333333,0,0,-0.13333333,0,446.66667)" />
    <path
       id="path25"
       d="m 827.762,430.527 c 0,11.219 3.785,20.614 11.426,28.254 7.566,7.641 16.964,11.492 28.25,11.492 11.492,0 21.027,-3.851 28.73,-11.492 7.641,-7.64 11.492,-17.035 11.492,-28.254 0,-11.222 -3.851,-20.687 -11.629,-28.461 -7.703,-7.769 -17.234,-11.691 -28.593,-11.691 -11.149,0 -20.481,3.922 -28.188,11.691 -7.637,7.774 -11.488,17.239 -11.488,28.461"
       style="fill:#000000;fill-opacity:1;fill-rule:nonzero;stroke:none"
       transform="matrix(0.13333333,0,0,-0.13333333,0,446.66667)" />
    <path
       id="path26"
       d="m 1236.45,497.852 c 0,15.546 -4.13,27.851 -12.38,36.839 -8.18,8.993 -19.46,13.454 -33.66,13.454 -14.26,0 -25.48,-4.461 -33.66,-13.454 -8.18,-8.988 -12.23,-21.293 -12.23,-36.839 0,-15.68 4.05,-27.985 12.16,-36.907 8.11,-8.925 19.33,-13.382 33.73,-13.382 14.2,0 25.48,4.457 33.66,13.449 8.25,8.988 12.38,21.293 12.38,36.84 z m 62.59,207.25 v -307.02 h -64.96 v 32.445 c -8.99,-13.453 -19.06,-23.523 -30.28,-30.148 -11.23,-6.691 -23.66,-10.004 -37.39,-10.004 -28.11,0 -50.49,9.73 -67.12,29.133 -16.63,19.398 -24.94,45.562 -24.94,78.41 0,31.84 8.31,57.594 24.88,77.195 16.56,19.602 38.12,29.407 64.75,29.407 16.9,0 30.69,-3.043 41.31,-9.129 10.6,-6.082 20.07,-16.289 28.38,-30.551 -0.81,4.73 -1.35,10.14 -1.76,16.152 -0.4,6.02 -0.61,12.578 -0.61,19.539 v 104.571 h 67.74"
       style="fill:#000000;fill-opacity:1;fill-rule:nonzero;stroke:none"
       transform="matrix(0.13333333,0,0,-0.13333333,0,446.66667)" />
    <path
       id="path27"
       d="m 1351.83,398.082 v 199.945 h 66.58 v -47.113 c 6.89,17.238 16.22,30.078 28.12,38.668 11.9,8.582 26.29,12.906 43.2,12.906 2.77,0 5.61,-0.066 8.44,-0.269 2.84,-0.203 5.68,-0.539 8.59,-0.946 l -6.89,-64.082 c -4.2,1.422 -8.39,2.434 -12.44,3.114 -4.13,0.605 -8.05,0.945 -11.9,0.945 -17.1,0 -30.28,-5.273 -39.61,-15.754 C 1426.66,515.02 1422,500.148 1422,480.887 v -82.805 h -70.17"
       style="fill:#000000;fill-opacity:1;fill-rule:nonzero;stroke:none"
       transform="matrix(0.13333333,0,0,-0.13333333,0,446.66667)" />
    <path
       id="path28"
       d="m 1489.39,430.527 c 0,11.219 3.78,20.614 11.42,28.254 7.57,7.641 16.97,11.492 28.26,11.492 11.49,0 21.02,-3.851 28.72,-11.492 7.64,-7.64 11.5,-17.035 11.5,-28.254 0,-11.222 -3.86,-20.687 -11.63,-28.461 -7.71,-7.769 -17.24,-11.691 -28.59,-11.691 -11.16,0 -20.48,3.922 -28.19,11.691 -7.64,7.774 -11.49,17.239 -11.49,28.461"
       style="fill:#000000;fill-opacity:1;fill-rule:nonzero;stroke:none"
       transform="matrix(0.13333333,0,0,-0.13333333,0,446.66667)" />
    <path
       id="path29"
       d="m 1750.17,398.082 v 289.984 h 79.09 v -112.75 h 105.45 v 112.75 h 79.09 V 398.082 h -79.09 v 118.02 h -105.45 v -118.02 h -79.09"
       style="fill:#000000;fill-opacity:1;fill-rule:nonzero;stroke:none"
       transform="matrix(0.13333333,0,0,-0.13333333,0,446.66667)" />
    <path
       id="path30"
       d="m 2060.98,430.527 c 0,11.219 3.78,20.614 11.42,28.254 7.57,7.641 16.97,11.492 28.26,11.492 11.48,0 21.02,-3.851 28.72,-11.492 7.64,-7.64 11.5,-17.035 11.5,-28.254 0,-11.222 -3.86,-20.687 -11.63,-28.461 -7.71,-7.769 -17.24,-11.691 -28.59,-11.691 -11.16,0 -20.48,3.922 -28.19,11.691 -7.64,7.774 -11.49,17.239 -11.49,28.461"
       style="fill:#000000;fill-opacity:1;fill-rule:nonzero;stroke:none"
       transform="matrix(0.13333333,0,0,-0.13333333,0,446.66667)" />
    <path
       id="path31"
       d="m 2398.48,506.371 h 78.61 l -29.54,95.711 c -0.87,2.91 -2.16,7.574 -3.71,14.063 -1.63,6.492 -3.65,14.804 -6.15,24.945 -1.69,-7.098 -3.38,-13.93 -5.07,-20.418 -1.62,-6.418 -3.32,-12.637 -5.01,-18.59 z M 2287.69,398.082 2387.8,688.066 h 99.03 l 100.18,-289.984 h -78.62 l -14.67,51.91 h -112.27 l -15.07,-51.91 h -78.69"
       style="fill:#000000;fill-opacity:1;fill-rule:nonzero;stroke:none"
       transform="matrix(0.13333333,0,0,-0.13333333,0,446.66667)" />
    <path
       id="path32"
       d="m 2614.65,398.082 v 289.984 h 79.09 V 465.813 h 98.15 v -67.731 h -177.24"
       style="fill:#000000;fill-opacity:1;fill-rule:nonzero;stroke:none"
       transform="matrix(0.13333333,0,0,-0.13333333,0,446.66667)" />
    <path
       id="path33"
       d="m 3121.08,542.465 c 0,-20.887 -3.85,-40.422 -11.49,-58.606 -7.64,-18.254 -18.79,-34.539 -33.46,-48.941 -14.81,-14.262 -31.7,-25.211 -50.7,-32.984 -18.99,-7.707 -38.73,-11.559 -59.14,-11.559 -20.76,0 -40.63,3.852 -59.56,11.559 -18.93,7.773 -35.55,18.722 -49.95,32.984 -14.94,14.402 -26.23,30.758 -34,49.145 -7.71,18.316 -11.56,37.785 -11.56,58.402 0,20.754 3.85,40.219 11.56,58.539 7.77,18.25 19.06,34.609 34,49.004 14.4,14.265 31.02,25.215 49.95,32.988 18.93,7.707 38.8,11.559 59.56,11.559 20.54,0 40.42,-3.852 59.48,-11.559 19.06,-7.773 35.82,-18.723 50.36,-32.988 14.53,-14.258 25.62,-30.551 33.39,-48.938 7.71,-18.32 11.56,-37.851 11.56,-58.605 z m -154.93,-85.172 c 21.9,0 40.01,8.043 54.35,24.133 14.33,16.156 21.49,36.504 21.49,61.039 0,24.269 -7.23,44.547 -21.76,60.836 -14.54,16.226 -32.59,24.336 -54.08,24.336 -21.9,0 -40.02,-8.11 -54.35,-24.27 -14.33,-16.152 -21.49,-36.5 -21.49,-60.902 0,-24.809 7.03,-45.219 21.15,-61.172 14.13,-16.023 32.38,-24 54.69,-24"
       style="fill:#000000;fill-opacity:1;fill-rule:nonzero;stroke:none"
       transform="matrix(0.13333333,0,0,-0.13333333,0,446.66667)" />
    <path
       id="path34"
       d="m 3170.56,398.082 v 289.984 h 177.64 v -63.675 h -100.58 v -50.289 h 94.84 v -62.055 h -94.84 v -49.074 h 100.58 v -64.891 h -177.64"
       style="fill:#000000;fill-opacity:1;fill-rule:nonzero;stroke:none"
       transform="matrix(0.13333333,0,0,-0.13333333,0,446.66667)" />
    <path
       id="path35"
       d="m 3402.48,398.082 v 289.984 h 79.9 V 398.082 h -79.9"
       style="fill:#000000;fill-opacity:1;fill-rule:nonzero;stroke:none"
       transform="matrix(0.13333333,0,0,-0.13333333,0,446.66667)" />
    <path
       id="path36"
       d="m 3685.84,491.77 c 11.76,-13.321 23.32,-23.254 34.75,-29.879 11.42,-6.555 22.78,-9.871 34.13,-9.871 10.55,0 19.26,2.839 26.03,8.519 6.82,5.676 10.2,12.844 10.2,21.563 0,9.597 -2.9,17.035 -8.78,22.238 -5.88,5.207 -19.13,10.613 -39.82,16.156 -28.39,7.637 -48.53,17.645 -60.3,29.879 -11.76,12.301 -17.64,29.133 -17.64,50.492 0,27.781 9.26,50.36 27.85,67.867 18.53,17.508 42.65,26.227 72.2,26.227 16.01,0 31.16,-2.164 45.49,-6.422 14.33,-4.324 27.91,-10.816 40.76,-19.535 l -24.81,-56.781 c -8.99,7.64 -18.18,13.386 -27.65,17.304 -9.39,3.856 -18.72,5.817 -27.98,5.817 -9.47,0 -17.17,-2.301 -23.12,-6.828 -5.95,-4.532 -8.92,-10.411 -8.92,-17.508 0,-7.235 2.57,-13.047 7.77,-17.438 5.21,-4.328 15.28,-8.519 30.15,-12.441 l 3.58,-1.012 c 32.25,-8.722 53.47,-18.25 63.61,-28.73 6.89,-7.094 12.1,-15.68 15.68,-25.617 3.59,-10.008 5.34,-21.024 5.34,-33.192 0,-30.754 -10.07,-55.496 -30.28,-74.152 -20.21,-18.723 -47.18,-28.051 -80.85,-28.051 -20.21,0 -38.59,3.449 -55.22,10.273 -16.56,6.895 -32.51,17.645 -47.79,32.313 l 35.62,58.809"
       style="fill:#000000;fill-opacity:1;fill-rule:nonzero;stroke:none"
       transform="matrix(0.13333333,0,0,-0.13333333,0,446.66667)" />
    <path
       id="path37"
       d="m 3985.29,506.371 h 78.62 l -29.55,95.711 c -0.88,2.91 -2.16,7.574 -3.72,14.063 -1.62,6.492 -3.64,14.804 -6.14,24.945 -1.7,-7.098 -3.38,-13.93 -5.07,-20.418 -1.63,-6.418 -3.32,-12.637 -5.01,-18.59 z M 3874.5,398.082 3974.61,688.066 h 99.03 l 100.18,-289.984 h -78.62 l -14.67,51.91 h -112.28 l -15.07,-51.91 h -78.68"
       style="fill:#000000;fill-opacity:1;fill-rule:nonzero;stroke:none"
       transform="matrix(0.13333333,0,0,-0.13333333,0,446.66667)" />
    <path
       id="path38"
       d="m 4274.87,572.07 h 15.82 c 19.53,0 32.92,2.164 40.22,6.422 7.23,4.328 10.88,11.762 10.88,22.309 0,10.949 -3.38,18.59 -10.21,23.051 -6.76,4.394 -20,6.625 -39.68,6.625 h -17.03 z m -73.41,-173.988 v 289.984 h 79.56 c 32.72,0 55.57,-1.082 68.61,-3.175 12.98,-2.098 24.13,-5.746 33.53,-10.883 10.68,-5.949 18.86,-13.926 24.47,-23.863 5.61,-10.004 8.38,-21.497 8.38,-34.606 0,-16.496 -4.19,-29.609 -12.57,-39.344 -8.38,-9.668 -21.77,-17.035 -40.15,-22.105 20.55,-1.555 36.7,-8.785 48.26,-21.629 11.63,-12.91 17.44,-30.082 17.44,-51.645 0,-15.41 -3.24,-28.996 -9.8,-40.757 -6.49,-11.766 -15.89,-20.887 -27.99,-27.309 -9.86,-5.273 -22.1,-9.059 -36.57,-11.289 -14.53,-2.234 -38.25,-3.379 -71.24,-3.379 z m 73.41,59.211 h 27.72 c 18.72,0 31.97,2.367 39.74,7.031 7.78,4.735 11.63,12.574 11.63,23.524 0,12.168 -3.58,20.617 -10.68,25.484 -7.1,4.797 -20.28,7.234 -39.48,7.234 h -28.93 v -63.273"
       style="fill:#000000;fill-opacity:1;fill-rule:nonzero;stroke:none"
       transform="matrix(0.13333333,0,0,-0.13333333,0,446.66667)" />
    <path
       id="path39"
       d="m 4774.2,542.465 c 0,-20.887 -3.85,-40.422 -11.49,-58.606 -7.64,-18.254 -18.79,-34.539 -33.46,-48.941 -14.8,-14.262 -31.7,-25.211 -50.7,-32.984 -18.99,-7.707 -38.73,-11.559 -59.14,-11.559 -20.75,0 -40.63,3.852 -59.55,11.559 -18.93,7.773 -35.56,18.722 -49.96,32.984 -14.94,14.402 -26.22,30.758 -34,49.145 -7.7,18.316 -11.56,37.785 -11.56,58.402 0,20.754 3.86,40.219 11.56,58.539 7.78,18.25 19.06,34.609 34,49.004 14.4,14.265 31.03,25.215 49.96,32.988 18.92,7.707 38.8,11.559 59.55,11.559 20.55,0 40.42,-3.852 59.48,-11.559 19.07,-7.773 35.83,-18.723 50.36,-32.988 14.54,-14.258 25.62,-30.551 33.39,-48.938 7.71,-18.32 11.56,-37.851 11.56,-58.605 z m -154.93,-85.172 c 21.91,0 40.02,8.043 54.35,24.133 14.33,16.156 21.49,36.504 21.49,61.039 0,24.269 -7.23,44.547 -21.76,60.836 -14.53,16.226 -32.58,24.336 -54.08,24.336 -21.9,0 -40.02,-8.11 -54.34,-24.27 -14.33,-16.152 -21.5,-36.5 -21.5,-60.902 0,-24.809 7.03,-45.219 21.16,-61.172 14.12,-16.023 32.37,-24 54.68,-24"
       style="fill:#000000;fill-opacity:1;fill-rule:nonzero;stroke:none"
       transform="matrix(0.13333333,0,0,-0.13333333,0,446.66667)" />
    <path
       id="path40"
       d="m 4823.68,398.082 v 289.984 h 177.64 v -63.675 h -100.58 v -50.289 h 94.84 v -62.055 h -94.84 v -49.074 h 100.58 v -64.891 h -177.64"
       style="fill:#000000;fill-opacity:1;fill-rule:nonzero;stroke:none"
       transform="matrix(0.13333333,0,0,-0.13333333,0,446.66667)" />
    <path
       id="path41"
       d="M 1139.39,9.14844 V 226.637 h 35.29 v -90.039 l 78.18,90.039 h 43.29 L 1209.91,129.91 1306.39,9.14844 h -45.62 L 1174.68,120.277 V 9.14844 h -35.29"
       style="fill:#000000;fill-opacity:1;fill-rule:nonzero;stroke:none"
       transform="matrix(0.13333333,0,0,-0.13333333,0,446.66667)" />
    <path
       id="path42"
       d="m 1503.35,117.438 c 0,11 -2.03,21.441 -6.03,31.328 -4.01,9.886 -9.79,18.707 -17.29,26.414 -7.35,7.656 -15.82,13.484 -25.45,17.593 -9.69,4.106 -19.87,6.184 -30.52,6.184 -10.7,0 -20.89,-2.027 -30.57,-6.082 -9.63,-4.059 -18.25,-9.937 -25.75,-17.695 -7.51,-7.606 -13.29,-16.375 -17.24,-26.262 -3.95,-9.883 -5.93,-20.379 -5.93,-31.48 0,-11.004 1.98,-21.395 5.93,-31.1802 3.95,-9.7851 9.73,-18.5547 17.24,-26.2617 7.5,-7.7578 16.07,-13.6406 25.7,-17.6914 9.58,-4.0586 19.82,-6.0859 30.62,-6.0859 10.6,0 20.64,2.0273 30.22,6.0859 9.52,4.0508 18.15,9.9336 25.75,17.6914 7.5,7.707 13.28,16.4766 17.29,26.3125 4,9.8867 6.03,20.2264 6.03,31.1294 z m 36.81,0 c 0,-15.465 -2.89,-30.0669 -8.67,-43.8013 -5.83,-13.7929 -14.25,-26.0625 -25.35,-36.8594 -11.16,-10.7968 -23.78,-19.0625 -37.87,-24.789 -14.04,-5.73049 -28.8,-8.62111 -44.21,-8.62111 -15.67,0 -30.57,2.89062 -44.82,8.66801 -14.19,5.832 -26.71,14.0468 -37.61,24.7421 -11.11,10.7969 -19.52,23.0157 -25.25,36.7032 -5.73,13.6406 -8.62,28.2925 -8.62,43.9575 0,15.562 2.89,30.214 8.62,43.953 5.73,13.789 14.14,26.109 25.25,37.007 11.1,10.801 23.67,19.012 37.71,24.641 14.05,5.625 28.95,8.465 44.72,8.465 15.62,0 30.42,-2.84 44.46,-8.465 14,-5.629 26.57,-13.84 37.62,-24.641 11.1,-11 19.52,-23.421 25.35,-37.21 5.78,-13.84 8.67,-28.391 8.67,-43.75"
       style="fill:#000000;fill-opacity:1;fill-rule:nonzero;stroke:none"
       transform="matrix(0.13333333,0,0,-0.13333333,0,446.66667)" />
    <path
       id="path43"
       d="M 1640.08,196.523 V 9.14844 H 1604.8 V 196.523 H 1547 v 30.114 h 150.57 v -30.114 h -57.49"
       style="fill:#000000;fill-opacity:1;fill-rule:nonzero;stroke:none"
       transform="matrix(0.13333333,0,0,-0.13333333,0,446.66667)" />
    <path
       id="path44"
       d="M 1748.37,94.6211 H 1809 l -22.3,49.5819 c -1.27,3.145 -2.64,6.797 -4.01,10.899 -1.37,4.109 -2.79,8.671 -4.16,13.742 -1.16,-4.766 -2.43,-9.176 -3.8,-13.285 -1.32,-4.106 -2.69,-7.907 -4.06,-11.356 z m 97.74,-85.47266 -24.64,55.96876 h -86.18 L 1710.04,9.14844 h -37.11 L 1778.23,235.156 1883.43,9.14844 h -37.32"
       style="fill:#000000;fill-opacity:1;fill-rule:nonzero;stroke:none"
       transform="matrix(0.13333333,0,0,-0.13333333,0,446.66667)" />
    <path
       id="path45"
       d="m 2116.18,120.477 h 86.03 c 0,-1.469 0.05,-3.547 0.15,-6.235 0.3,-7.047 0.46,-11.762 0.46,-14.2459 0,-30.5703 -8.77,-54.3477 -26.27,-71.2305 -17.54,-16.9297 -42.23,-25.39841 -74.07,-25.39841 -17.84,0 -33.71,2.63672 -47.65,7.85941 -13.94,5.2695 -26.21,13.1797 -36.65,23.7734 -10.29,10.4961 -18.2,22.8164 -23.68,37.0117 -5.52,14.1446 -8.26,29.3043 -8.26,45.4263 0,16.425 2.78,31.582 8.36,45.476 5.63,13.836 13.89,26.059 24.89,36.649 10.6,10.394 23.02,18.304 37.27,23.777 14.24,5.426 29.5,8.164 45.72,8.164 17.09,0 32.45,-3.141 45.93,-9.379 13.49,-6.234 25.56,-15.766 36.15,-28.645 l -25.75,-19.468 c -7.35,8.519 -15.61,14.859 -24.84,19.011 -9.18,4.161 -19.47,6.239 -30.88,6.239 -23.57,0 -42.79,-7.555 -57.69,-22.66 -14.9,-15.11 -22.36,-34.731 -22.36,-58.864 0,-24.5857 7.46,-44.5114 22.36,-59.7692 C 2060.3,42.6602 2079.62,35 2103.4,35 c 20.17,0 36.1,4.7188 47.65,14.0938 11.61,9.4335 17.39,22.207 17.39,38.4804 v 3.0938 h -52.26 v 29.809"
       style="fill:#000000;fill-opacity:1;fill-rule:nonzero;stroke:none"
       transform="matrix(0.13333333,0,0,-0.13333333,0,446.66667)" />
    <path
       id="path46"
       d="m 2426.13,117.438 c 0,11 -2.02,21.441 -6.03,31.328 -4,9.886 -9.78,18.707 -17.29,26.414 -7.35,7.656 -15.81,13.484 -25.45,17.593 -9.68,4.106 -19.87,6.184 -30.51,6.184 -10.7,0 -20.89,-2.027 -30.58,-6.082 -9.63,-4.059 -18.25,-9.937 -25.75,-17.695 -7.5,-7.606 -13.28,-16.375 -17.23,-26.262 -3.96,-9.883 -5.94,-20.379 -5.94,-31.48 0,-11.004 1.98,-21.395 5.94,-31.1802 3.95,-9.7851 9.73,-18.5547 17.23,-26.2617 7.5,-7.7578 16.07,-13.6406 25.7,-17.6914 9.58,-4.0586 19.83,-6.0859 30.63,-6.0859 10.59,0 20.63,2.0273 30.21,6.0859 9.53,4.0508 18.15,9.9336 25.75,17.6914 7.51,7.707 13.29,16.4766 17.29,26.3125 4.01,9.8867 6.03,20.2264 6.03,31.1294 z m 36.81,0 c 0,-15.465 -2.89,-30.0669 -8.67,-43.8013 -5.83,-13.7929 -14.24,-26.0625 -25.35,-36.8594 -11.15,-10.7968 -23.77,-19.0625 -37.87,-24.789 -14.04,-5.73049 -28.79,-8.62111 -44.2,-8.62111 -15.67,0 -30.58,2.89062 -44.82,8.66801 -14.19,5.832 -26.72,14.0468 -37.62,24.7421 -11.1,10.7969 -19.52,23.0157 -25.25,36.7032 -5.73,13.6406 -8.61,28.2925 -8.61,43.9575 0,15.562 2.88,30.214 8.61,43.953 5.73,13.789 14.15,26.109 25.25,37.007 11.11,10.801 23.68,19.012 37.72,24.641 14.04,5.625 28.95,8.465 44.72,8.465 15.61,0 30.41,-2.84 44.46,-8.465 13.99,-5.629 26.56,-13.84 37.61,-24.641 11.11,-11 19.52,-23.421 25.35,-37.21 5.78,-13.84 8.67,-28.391 8.67,-43.75"
       style="fill:#000000;fill-opacity:1;fill-rule:nonzero;stroke:none"
       transform="matrix(0.13333333,0,0,-0.13333333,0,446.66667)" />
    <path
       id="path47"
       d="m 2538.73,133.863 h 6.44 c 18.71,0 31.13,2.18 37.26,6.539 6.14,4.36 9.23,12.063 9.23,23.168 0,11.965 -3.3,20.379 -9.89,25.301 -6.59,4.918 -18.81,7.348 -36.6,7.348 h -6.44 z m -2.13,-27.379 V 9.14844 h -33.15 V 226.637 h 49.27 c 14.46,0 25.66,-0.961 33.67,-2.84 7.96,-1.871 14.75,-4.965 20.38,-9.324 6.74,-5.274 11.91,-12.067 15.61,-20.383 3.66,-8.313 5.48,-17.391 5.48,-27.324 0,-17.391 -4.21,-31.028 -12.63,-40.914 -8.41,-9.836 -20.83,-15.766 -37.26,-17.747 L 2652.8,9.14844 h -39.85 l -72.39,97.33556 h -3.96"
       style="fill:#000000;fill-opacity:1;fill-rule:nonzero;stroke:none"
       transform="matrix(0.13333333,0,0,-0.13333333,0,446.66667)" />
    <path
       id="path48"
       d="m 2859.95,117.438 c 0,11 -2.03,21.441 -6.03,31.328 -4.01,9.886 -9.79,18.707 -17.29,26.414 -7.35,7.656 -15.82,13.484 -25.45,17.593 -9.68,4.106 -19.88,6.184 -30.52,6.184 -10.7,0 -20.89,-2.027 -30.57,-6.082 -9.63,-4.059 -18.25,-9.937 -25.75,-17.695 -7.51,-7.606 -13.29,-16.375 -17.24,-26.262 -3.96,-9.883 -5.94,-20.379 -5.94,-31.48 0,-11.004 1.98,-21.395 5.94,-31.1802 3.95,-9.7851 9.73,-18.5547 17.24,-26.2617 7.5,-7.7578 16.07,-13.6406 25.7,-17.6914 9.58,-4.0586 19.82,-6.0859 30.62,-6.0859 10.59,0 20.63,2.0273 30.22,6.0859 9.53,4.0508 18.15,9.9336 25.75,17.6914 7.5,7.707 13.28,16.4766 17.29,26.3125 4,9.8867 6.03,20.2264 6.03,31.1294 z m 36.81,0 c 0,-15.465 -2.9,-30.0669 -8.67,-43.8013 -5.83,-13.7929 -14.25,-26.0625 -25.35,-36.8594 -11.16,-10.7968 -23.78,-19.0625 -37.87,-24.789 -14.05,-5.73049 -28.8,-8.62111 -44.21,-8.62111 -15.67,0 -30.57,2.89062 -44.82,8.66801 -14.19,5.832 -26.71,14.0468 -37.61,24.7421 -11.11,10.7969 -19.52,23.0157 -25.25,36.7032 -5.73,13.6406 -8.62,28.2925 -8.62,43.9575 0,15.562 2.89,30.214 8.62,43.953 5.73,13.789 14.14,26.109 25.25,37.007 11.1,10.801 23.67,19.012 37.72,24.641 14.04,5.625 28.94,8.465 44.71,8.465 15.61,0 30.42,-2.84 44.46,-8.465 13.99,-5.629 26.57,-13.84 37.62,-24.641 11.1,-11 19.52,-23.421 25.35,-37.21 5.77,-13.84 8.67,-28.391 8.67,-43.75"
       style="fill:#000000;fill-opacity:1;fill-rule:nonzero;stroke:none"
       transform="matrix(0.13333333,0,0,-0.13333333,0,446.66667)" />
    <path
       id="path49"
       d="M 2937.26,9.14844 V 235.156 l 138.2,-132.879 c 3.75,-3.7497 7.56,-7.7575 11.46,-12.0153 3.85,-4.2578 7.91,-9.0742 12.17,-14.3984 V 226.637 h 32.55 V 0.628906 L 2990.75,135.992 c -3.75,3.699 -7.4,7.555 -10.9,11.61 -3.55,4.054 -6.85,8.316 -10.04,12.773 V 9.14844 h -32.55"
       style="fill:#000000;fill-opacity:1;fill-rule:nonzero;stroke:none"
       transform="matrix(0.13333333,0,0,-0.13333333,0,446.66667)" />
    <path
       id="path50"
       d="M 3251.84,196.523 V 9.14844 h -35.29 V 196.523 h -57.79 v 30.114 h 150.57 v -30.114 h -57.49"
       style="fill:#000000;fill-opacity:1;fill-rule:nonzero;stroke:none"
       transform="matrix(0.13333333,0,0,-0.13333333,0,446.66667)" />
    <path
       id="path51"
       d="m 3360.13,94.6211 h 60.63 l -22.31,49.5819 c -1.27,3.145 -2.63,6.797 -4,10.899 -1.37,4.109 -2.79,8.671 -4.16,13.742 -1.16,-4.766 -2.43,-9.176 -3.8,-13.285 -1.32,-4.106 -2.69,-7.907 -4.06,-11.356 z m 97.74,-85.47266 -24.64,55.96876 h -86.18 L 3321.8,9.14844 h -37.11 L 3389.98,235.156 3495.18,9.14844 h -37.31"
       style="fill:#000000;fill-opacity:1;fill-rule:nonzero;stroke:none"
       transform="matrix(0.13333333,0,0,-0.13333333,0,446.66667)" />
    <path
       id="path52"
       d="M 3515.61,9.14844 V 226.637 h 35.28 V 40.7813 h 79.09 V 9.14844 h -114.37"
       style="fill:#000000;fill-opacity:1;fill-rule:nonzero;stroke:none"
       transform="matrix(0.13333333,0,0,-0.13333333,0,446.66667)" />
    <path
       id="path53"
       d="m 3833.94,117.438 c 0,11 -2.03,21.441 -6.03,31.328 -4.01,9.886 -9.79,18.707 -17.29,26.414 -7.35,7.656 -15.82,13.484 -25.45,17.593 -9.69,4.106 -19.88,6.184 -30.52,6.184 -10.7,0 -20.89,-2.027 -30.57,-6.082 -9.63,-4.059 -18.25,-9.937 -25.75,-17.695 -7.51,-7.606 -13.29,-16.375 -17.24,-26.262 -3.96,-9.883 -5.93,-20.379 -5.93,-31.48 0,-11.004 1.97,-21.395 5.93,-31.1802 3.95,-9.7851 9.73,-18.5547 17.24,-26.2617 7.5,-7.7578 16.06,-13.6406 25.7,-17.6914 9.58,-4.0586 19.82,-6.0859 30.62,-6.0859 10.59,0 20.64,2.0273 30.21,6.0859 9.53,4.0508 18.16,9.9336 25.76,17.6914 7.5,7.707 13.28,16.4766 17.29,26.3125 4,9.8867 6.03,20.2264 6.03,31.1294 z m 36.81,0 c 0,-15.465 -2.89,-30.0669 -8.67,-43.8013 -5.83,-13.7929 -14.25,-26.0625 -25.35,-36.8594 -11.16,-10.7968 -23.78,-19.0625 -37.87,-24.789 -14.05,-5.73049 -28.8,-8.62111 -44.21,-8.62111 -15.67,0 -30.57,2.89062 -44.82,8.66801 -14.19,5.832 -26.71,14.0468 -37.62,24.7421 -11.1,10.7969 -19.51,23.0157 -25.24,36.7032 -5.73,13.6406 -8.62,28.2925 -8.62,43.9575 0,15.562 2.89,30.214 8.62,43.953 5.73,13.789 14.14,26.109 25.24,37.007 11.11,10.801 23.68,19.012 37.72,24.641 14.05,5.625 28.95,8.465 44.72,8.465 15.62,0 30.42,-2.84 44.46,-8.465 14,-5.629 26.57,-13.84 37.62,-24.641 11.1,-11 19.52,-23.421 25.35,-37.21 5.78,-13.84 8.67,-28.391 8.67,-43.75"
       style="fill:#000000;fill-opacity:1;fill-rule:nonzero;stroke:none"
       transform="matrix(0.13333333,0,0,-0.13333333,0,446.66667)" />
    <path
       id="path54"
       d="m 2505.08,3346.84 c 279.85,0 533.21,-113.43 716.61,-296.83 183.4,-183.4 296.84,-436.76 296.84,-716.62 0,-279.85 -113.44,-533.21 -296.84,-716.61 -183.4,-183.4 -436.76,-296.83 -716.61,-296.83 -279.86,0 -533.22,113.43 -716.62,296.83 -183.4,183.4 -296.84,436.76 -296.84,716.61 0,279.86 113.44,533.22 296.84,716.62 183.4,183.4 436.76,296.83 716.62,296.83 z m 677.28,-336.16 c -173.33,173.32 -412.79,280.53 -677.28,280.53 -264.5,0 -503.96,-107.21 -677.29,-280.53 -173.33,-173.33 -280.53,-412.79 -280.53,-677.29 0,-264.5 107.2,-503.95 280.53,-677.28 173.33,-173.33 412.79,-280.53 677.29,-280.53 264.49,0 503.95,107.2 677.28,280.53 173.33,173.33 280.53,412.78 280.53,677.28 0,264.5 -107.2,503.96 -280.53,677.29"
       style="fill:#000000;fill-opacity:1;fill-rule:nonzero;stroke:none"
       transform="matrix(0.13333333,0,0,-0.13333333,0,446.66667)" />
    <path
       id="path55"
       d="m 2148.15,2553.43 v 178.05 c 0,196.05 160.62,356.45 356.92,356.45 h 0.01 c 196.3,0 356.92,-160.43 356.92,-356.45 v -15.99 h -136.94 v 10.35 c 0,120.86 -98.93,219.67 -219.96,219.67 -121.03,0 -219.96,-98.81 -219.96,-219.67 v -172.41 h -136.99"
       style="fill:#000000;fill-opacity:1;fill-rule:evenodd;stroke:none"
       transform="matrix(0.13333333,0,0,-0.13333333,0,446.66667)" />
    <path
       id="path56"
       d="M 2862,2113.35 V 1935.3 c 0,-196.04 -160.61,-356.44 -356.92,-356.44 h -0.01 c -196.3,0 -356.92,160.43 -356.92,356.44 v 18.61 h 136.94 v -12.96 c 0,-120.87 98.94,-219.67 219.96,-219.67 121.03,0 219.96,98.8 219.96,219.67 v 172.4 H 2862"
       style="fill:#000000;fill-opacity:1;fill-rule:evenodd;stroke:none"
       transform="matrix(0.13333333,0,0,-0.13333333,0,446.66667)" />
    <path
       id="path57"
       d="m 2724.4,2689.84 h 178.29 c 196.31,0 356.92,-160.4 356.92,-356.45 v 0 c 0,-196.04 -160.64,-356.44 -356.92,-356.44 h -16.02 v 136.75 h 10.37 c 121.03,0 219.96,98.81 219.96,219.67 0,120.86 -98.93,219.67 -219.96,219.67 H 2724.4 v 136.8"
       style="fill:#000000;fill-opacity:1;fill-rule:evenodd;stroke:none"
       transform="matrix(0.13333333,0,0,-0.13333333,0,446.66667)" />
    <path
       id="path58"
       d="m 2285.75,1976.95 h -178.29 c -196.3,0 -356.92,160.4 -356.92,356.44 v 0 c 0,196.05 160.64,356.45 356.92,356.45 h 16.02 v -136.75 h -10.36 c -121.03,0 -219.97,-98.81 -219.97,-219.67 0,-120.87 98.94,-219.67 219.97,-219.67 h 172.63 v -136.8"
       style="fill:#000000;fill-opacity:1;fill-rule:evenodd;stroke:none"
       transform="matrix(0.13333333,0,0,-0.13333333,0,446.66667)" />
    <path
       id="path59"
       d="m 1916.62,2333.39 v 0 c 0,107.89 88.27,196.15 196.15,196.15 h 172.54 v -392.3 h -172.54 c -107.88,0 -196.15,88.27 -196.15,196.15 z m 784.61,-220.54 v -171.76 c 0,-107.88 -88.27,-196.15 -196.15,-196.15 h -0.01 c -107.88,0 -196.14,88.27 -196.14,196.15 v 171.76 h 392.3"
       style="fill:#000000;fill-opacity:1;fill-rule:evenodd;stroke:none"
       transform="matrix(0.13333333,0,0,-0.13333333,0,446.66667)" />
    <path
       id="path60"
       d="m 2701.23,2529.54 h 196.15 c 107.89,0 196.15,-88.26 196.15,-196.15 v 0 c 0,-107.88 -88.26,-196.15 -196.15,-196.15 h -196.15 -392.31 v 392.3 196.16 c 0,107.88 88.27,196.15 196.15,196.15 v 0 c 107.89,0 196.16,-88.27 196.16,-196.15 v -196.16"
       style="fill:#000000;fill-opacity:1;fill-rule:evenodd;stroke:none"
       transform="matrix(0.13333333,0,0,-0.13333333,0,446.66667)" />
    <path
       id="path61"
       d="m 2120.32,1518.69 c -61.34,28.76 -191.96,73.44 -241.1,135 -10.79,13.51 -19.61,36.15 -2.27,47.65 12.51,8.29 38.07,-2.92 55.1,-7.46 55.95,-14.96 291.79,-90.14 333.51,-108.95 44.82,-20.2 88.87,-48.45 124.4,-82.3 44.37,-42.27 69.98,-64.01 98.82,-103.42 18.16,-33.81 14.11,-61.08 16.3,-92.46 -19.5,-10.91 -40.24,-19.7 -64.04,-26.57 -86.34,-24.94 -118.2,-31.5 -236.99,-19.52 -65.92,6.66 -147.46,33.93 -221.93,71.42 -80.94,40.75 -159.79,99.91 -210.9,163.33 -50.06,62.11 -92.21,126.43 -120.29,185.88 -103.52,219.16 -26.25,256.32 36.64,160.52 53.27,-81.13 113.88,-184.77 226.02,-271.05 70.34,-54.12 160.95,-89.23 206.73,-52.07"
       style="fill:#000000;fill-opacity:1;fill-rule:evenodd;stroke:none"
       transform="matrix(0.13333333,0,0,-0.13333333,0,446.66667)" />
    <path
       id="path62"
       d="m 2889.84,1518.69 c 61.33,28.76 191.95,73.44 241.09,135 10.79,13.51 19.62,36.15 2.27,47.65 -12.5,8.29 -38.07,-2.92 -55.1,-7.46 -55.94,-14.96 -291.79,-90.14 -333.51,-108.95 -44.81,-20.2 -88.87,-48.45 -124.39,-82.3 -44.38,-42.27 -69.99,-64.01 -98.82,-103.42 -18.17,-33.81 -14.12,-61.08 -16.3,-92.46 19.49,-10.91 40.23,-19.7 64.04,-26.57 86.33,-24.94 118.19,-31.5 236.98,-19.52 65.92,6.66 147.46,33.93 221.94,71.42 80.93,40.75 159.78,99.91 210.89,163.33 50.07,62.11 92.21,126.43 120.29,185.88 103.53,219.16 26.25,256.32 -36.64,160.52 -53.27,-81.13 -113.87,-184.77 -226.02,-271.05 -70.33,-54.12 -160.95,-89.23 -206.72,-52.07"
       style="fill:#000000;fill-opacity:1;fill-rule:evenodd;stroke:none"
       transform="matrix(0.13333333,0,0,-0.13333333,0,446.66667)" />
    <path
       id="path63"
       d="m 2505.08,3087.93 z m -356.93,-356.45 c 0,196.05 160.62,356.45 356.93,356.45 196.3,0 356.92,-160.43 356.92,-356.45 v -15.99 h -136.93 v 10.35 c 0,120.86 -98.94,219.67 -219.97,219.67 -121.03,0 -219.96,-98.81 -219.96,-219.67 v -172.41 h -136.99 z m 160.78,-201.94 v 196.16 c 0,107.88 88.26,196.15 196.14,196.15 107.89,0 196.16,-88.27 196.16,-196.15 v -196.16 h 196.15 c 107.89,0 196.15,-88.26 196.15,-196.15 0,-107.88 -88.26,-196.15 -196.15,-196.15 h -196.15 -392.3 z m 950.68,-196.15 z m -535.21,219.65 v 136.8 h 178.29 c 196.31,0 356.92,-160.4 356.92,-356.45 0,-196.04 -160.64,-356.44 -356.92,-356.44 h -16.02 v 136.75 h 10.37 c 121.03,0 219.96,98.81 219.96,219.67 0,120.86 -98.93,219.67 -219.96,219.67 z m 738.49,-219.65 c 0,264.5 -107.2,503.96 -280.53,677.29 -173.33,173.32 -412.79,280.53 -677.28,280.53 -264.5,0 -503.96,-107.21 -677.29,-280.53 -173.33,-173.33 -280.53,-412.79 -280.53,-677.29 0,-169.6 44.08,-328.92 121.42,-467.1 6.31,-6.83 12.68,-15 18.89,-24.48 24.86,-37.85 51.31,-80.61 83.84,-124.21 17.9,-21.31 36.72,-41.82 56.38,-61.49 51.33,-51.32 108.45,-96.85 170.3,-135.51 47.66,-20.14 93.67,-25.09 122.23,-1.91 -61.34,28.76 -191.96,73.44 -241.1,135 -10.79,13.51 -19.61,36.15 -2.27,47.65 12.51,8.29 38.07,-2.92 55.1,-7.47 55.95,-14.95 291.79,-90.13 333.51,-108.94 44.82,-20.2 88.87,-48.45 124.4,-82.3 44.37,-42.27 69.98,-64.01 98.82,-103.42 4.4,-8.21 7.5,-16.03 9.7,-23.61 2.2,-0.02 4.4,-0.02 6.6,-0.02 2.2,0 4.4,0 6.59,0.02 2.2,7.58 5.3,15.4 9.71,23.61 28.83,39.41 54.44,61.15 98.82,103.42 35.52,33.85 79.58,62.1 124.39,82.3 41.72,18.81 277.57,93.99 333.51,108.94 17.03,4.55 42.6,15.76 55.1,7.47 17.35,-11.5 8.52,-34.14 -2.27,-47.65 -49.14,-61.56 -179.76,-106.24 -241.09,-135 28.55,-23.18 74.57,-18.23 122.22,1.91 61.85,38.66 118.98,84.19 170.3,135.51 19.66,19.67 38.48,40.18 56.38,61.49 32.54,43.6 58.99,86.36 83.84,124.21 6.22,9.48 12.58,17.65 18.9,24.48 77.33,138.18 121.41,297.5 121.41,467.1 z m -1712.35,0 c 0,196.05 160.64,356.45 356.92,356.45 h 16.02 v -136.76 h -10.36 c -121.03,0 -219.97,-98.8 -219.97,-219.67 0,-120.86 98.94,-219.66 219.97,-219.66 h 172.63 v -136.8 h -178.29 c -196.3,0 -356.92,160.4 -356.92,356.44 z m 166.08,0 z m 196.15,196.16 h 172.54 v -392.31 h -172.54 c -107.88,0 -196.15,88.27 -196.15,196.15 0,107.89 88.27,196.16 196.15,196.16 z m 392.3,-784.61 z m -196.14,196.15 v 171.76 h 392.3 v -171.76 c 0,-107.89 -88.27,-196.15 -196.16,-196.15 -107.88,0 -196.14,88.26 -196.14,196.15 z m 196.14,-362.23 z m -356.92,356.44 v 18.61 h 136.94 v -12.96 c 0,-120.87 98.94,-219.67 219.96,-219.67 121.03,0 219.97,98.8 219.97,219.67 v 172.4 H 2862 V 1935.3 c 0,-196.04 -160.61,-356.44 -356.93,-356.44 -196.3,0 -356.92,160.43 -356.92,356.44"
       style="fill:#fefefe;fill-opacity:1;fill-rule:evenodd;stroke:none"
       transform="matrix(0.13333333,0,0,-0.13333333,0,446.66667)" />
  </g>
</svg>
