<?xml version="1.0" encoding="UTF-8" standalone="no"?>
<!-- Created with Inkscape (http://www.inkscape.org/) -->

<svg
   version="1.1"
   id="svg1"
   width="1244"
   height="278.66666"
   viewBox="0 0 1244 278.66666"
   sodipodi:docname="Logo_RSAS_v01.eps"
   xmlns:inkscape="http://www.inkscape.org/namespaces/inkscape"
   xmlns:sodipodi="http://sodipodi.sourceforge.net/DTD/sodipodi-0.dtd"
   xmlns="http://www.w3.org/2000/svg"
   xmlns:svg="http://www.w3.org/2000/svg">
  <defs
     id="defs1" />
  <sodipodi:namedview
     id="namedview1"
     pagecolor="#ffffff"
     bordercolor="#000000"
     borderopacity="0.25"
     inkscape:showpageshadow="2"
     inkscape:pageopacity="0.0"
     inkscape:pagecheckerboard="0"
     inkscape:deskcolor="#d1d1d1">
    <inkscape:page
       x="0"
       y="0"
       inkscape:label="1"
       id="page1"
       width="1244"
       height="278.66666"
       margin="0"
       bleed="0" />
  </sodipodi:namedview>
  <g
     id="g1"
     inkscape:groupmode="layer"
     inkscape:label="1">
    <path
       id="path1"
       d="m 1011.21,2082.36 c 278.26,0 530.18,-112.79 712.53,-295.14 182.35,-182.35 295.14,-434.27 295.14,-712.52 0,-278.251 -112.79,-530.165 -295.14,-712.516 C 1541.39,179.832 1289.47,67.043 1011.21,67.043 732.965,67.043 481.047,179.832 298.695,362.184 116.344,544.535 3.55469,796.449 3.55469,1074.7 c 0,278.25 112.78931,530.17 295.14031,712.52 182.352,182.35 434.27,295.14 712.515,295.14 z m 673.42,-334.25 c -172.34,172.34 -410.43,278.93 -673.42,278.93 -262.983,0 -501.069,-106.59 -673.405,-278.93 C 165.469,1575.78 58.8711,1337.69 58.8711,1074.7 c 0,-262.985 106.5979,-501.071 278.9339,-673.411 172.336,-172.336 410.422,-278.93 673.405,-278.93 262.99,0 501.08,106.594 673.42,278.93 172.33,172.34 278.93,410.426 278.93,673.411 0,262.99 -106.6,501.08 -278.93,673.41"
       style="fill:#00a859;fill-opacity:1;fill-rule:nonzero;stroke:none"
       transform="matrix(0.13333333,0,0,-0.13333333,0,278.66667)" />
    <path
       id="path2"
       d="m 656.332,1293.48 v 177.04 c 0,194.92 159.695,354.4 354.878,354.4 h 0.01 c 195.18,0 354.88,-159.51 354.88,-354.4 v -15.91 h -136.15 v 10.3 c 0,120.17 -98.38,218.41 -218.71,218.41 -120.334,0 -218.705,-98.24 -218.705,-218.41 V 1293.48 H 656.332"
       style="fill:#00a859;fill-opacity:1;fill-rule:evenodd;stroke:none"
       transform="matrix(0.13333333,0,0,-0.13333333,0,278.66667)" />
    <path
       id="path3"
       d="M 1366.1,855.918 V 678.887 c 0,-194.922 -159.69,-354.403 -354.88,-354.403 h -0.01 c -195.179,0 -354.878,159.508 -354.878,354.403 v 18.504 h 136.156 v -12.895 c 0,-120.172 98.371,-218.41 218.702,-218.41 120.34,0 218.71,98.238 218.71,218.41 v 171.422 h 136.2"
       style="fill:#00a859;fill-opacity:1;fill-rule:evenodd;stroke:none"
       transform="matrix(0.13333333,0,0,-0.13333333,0,278.66667)" />
    <path
       id="path4"
       d="m 1229.29,1429.11 h 177.27 c 195.18,0 354.88,-159.48 354.88,-354.4 v -0.01 c 0,-194.923 -159.73,-354.403 -354.88,-354.403 h -15.93 V 856.27 h 10.31 c 120.33,0 218.7,98.238 218.7,218.41 0,120.17 -98.37,218.41 -218.7,218.41 h -171.65 v 136.02"
       style="fill:#00a859;fill-opacity:1;fill-rule:evenodd;stroke:none"
       transform="matrix(0.13333333,0,0,-0.13333333,0,278.66667)" />
    <path
       id="path5"
       d="M 793.145,720.297 H 615.879 C 420.695,720.297 261,879.777 261,1074.7 v 0.01 c 0,194.92 159.719,354.4 354.879,354.4 h 15.926 v -135.97 h -10.309 c -120.336,0 -218.707,-98.24 -218.707,-218.41 0,-120.175 98.371,-218.414 218.707,-218.414 H 793.145 V 720.297"
       style="fill:#00a859;fill-opacity:1;fill-rule:evenodd;stroke:none"
       transform="matrix(0.13333333,0,0,-0.13333333,0,278.66667)" />
    <path
       id="path6"
       d="m 426.125,1074.7 v 0 c 0,107.27 87.762,195.03 195.027,195.03 H 792.707 V 879.672 H 621.152 c -107.265,0 -195.027,87.762 -195.027,195.028 z M 1206.25,855.418 V 684.637 c 0,-107.266 -87.77,-195.024 -195.03,-195.024 h -0.01 c -107.261,0 -195.022,87.758 -195.022,195.024 v 170.781 h 390.062"
       style="fill:#00a859;fill-opacity:1;fill-rule:evenodd;stroke:none"
       transform="matrix(0.13333333,0,0,-0.13333333,0,278.66667)" />
    <path
       id="path7"
       d="m 1206.25,1269.73 h 195.03 c 107.27,0 195.03,-87.76 195.03,-195.03 v 0 c 0,-107.266 -87.76,-195.028 -195.03,-195.028 H 1206.25 816.184 v 390.058 195.03 c 0,107.27 87.765,195.03 195.026,195.03 v 0 c 107.27,0 195.04,-87.76 195.04,-195.03 v -195.03"
       style="fill:#f79633;fill-opacity:1;fill-rule:evenodd;stroke:none"
       transform="matrix(0.13333333,0,0,-0.13333333,0,278.66667)" />
    <path
       id="path8"
       d="m 628.656,264.652 c -60.988,28.598 -190.855,73.016 -239.718,134.227 -10.727,13.437 -19.504,35.949 -2.258,47.379 12.437,8.242 37.855,-2.895 54.789,-7.422 55.625,-14.867 290.117,-89.617 331.601,-108.316 44.559,-20.082 88.364,-48.176 123.688,-81.829 44.117,-42.035 69.578,-63.652 98.254,-102.836 18.058,-33.613 14.028,-60.7261 16.198,-91.9292 C 991.832,43.082 971.215,34.3438 947.543,27.5039 861.699,2.70703 830.023,-3.81641 711.91,8.10547 646.371,14.7148 565.293,41.8281 491.246,79.1094 410.77,119.633 332.371,178.445 281.551,241.5 231.777,303.262 189.867,367.219 161.949,426.324 59.0195,644.23 135.852,681.176 198.387,585.93 251.352,505.258 311.609,402.207 423.113,316.422 c 69.93,-53.801 160.032,-88.711 205.543,-51.77"
       style="fill:#00a859;fill-opacity:1;fill-rule:evenodd;stroke:none"
       transform="matrix(0.13333333,0,0,-0.13333333,0,278.66667)" />
    <path
       id="path9"
       d="m 1393.78,264.652 c 60.99,28.598 190.85,73.016 239.72,134.227 10.72,13.437 19.5,35.949 2.25,47.379 -12.43,8.242 -37.85,-2.895 -54.79,-7.422 -55.62,-14.867 -290.12,-89.617 -331.6,-108.316 -44.56,-20.082 -88.36,-48.176 -123.68,-81.829 -44.12,-42.035 -69.58,-63.652 -98.26,-102.836 -18.05,-33.613 -14.03,-60.7261 -16.2,-91.9292 19.38,-10.8438 40,-19.582 63.67,-26.4219 85.84,-24.79687 117.52,-31.32031 235.63,-19.39843 65.54,6.60933 146.62,33.72263 220.67,71.00393 80.47,40.5236 158.87,99.3356 209.69,162.3906 49.78,61.762 91.69,125.719 119.6,184.824 102.93,217.906 26.1,254.852 -36.43,159.606 -52.97,-80.672 -113.23,-183.723 -224.73,-269.508 -69.93,-53.801 -160.03,-88.711 -205.54,-51.77"
       style="fill:#00a859;fill-opacity:1;fill-rule:evenodd;stroke:none"
       transform="matrix(0.13333333,0,0,-0.13333333,0,278.66667)" />
    <path
       id="path10"
       d="m 1011.22,1824.92 z m -354.888,-354.4 c 0,194.92 159.695,354.4 354.888,354.4 195.18,0 354.88,-159.51 354.88,-354.4 v -15.91 h -136.15 v 10.3 c 0,120.17 -98.38,218.41 -218.71,218.41 -120.334,0 -218.705,-98.24 -218.705,-218.41 V 1293.48 H 656.332 Z m 159.852,-200.79 v 195.03 c 0,107.27 87.765,195.03 195.026,195.03 107.27,0 195.04,-87.76 195.04,-195.03 v -195.03 h 195.03 c 107.27,0 195.03,-87.76 195.03,-195.03 0,-107.266 -87.76,-195.028 -195.03,-195.028 H 1206.25 816.184 Z M 1761.44,1074.7 Z m -532.15,218.39 v 136.02 h 177.27 c 195.18,0 354.88,-159.48 354.88,-354.41 0,-194.923 -159.73,-354.403 -354.88,-354.403 h -15.93 V 856.27 h 10.31 c 120.33,0 218.7,98.238 218.7,218.41 0,120.17 -98.37,218.41 -218.7,218.41 z m 734.27,-218.39 c 0,262.99 -106.6,501.08 -278.93,673.41 -172.34,172.34 -410.43,278.93 -673.42,278.93 -262.983,0 -501.069,-106.59 -673.405,-278.93 -172.336,-172.33 -278.93,-410.42 -278.93,-673.41 0,-168.637 43.832,-327.04 120.723,-464.434 6.277,-6.786 12.605,-14.914 18.789,-24.34 24.711,-37.637 51.008,-80.141 83.355,-123.496 17.801,-21.188 36.512,-41.586 56.063,-61.141 51.031,-51.027 107.824,-96.293 169.324,-134.734 47.383,-20.032 93.133,-24.95 121.527,-1.903 -60.988,28.598 -190.855,73.016 -239.718,134.227 -10.727,13.437 -19.504,35.949 -2.258,47.379 12.433,8.242 37.859,-2.895 54.789,-7.422 55.625,-14.867 290.117,-89.617 331.601,-108.316 44.559,-20.082 88.364,-48.176 123.688,-81.832 44.117,-42.032 69.578,-63.649 98.254,-102.833 4.379,-8.156 7.458,-15.933 9.648,-23.476 2.18,-0.012 4.37,-0.02 6.55,-0.02 2.19,0 4.38,0.008 6.56,0.02 2.19,7.543 5.27,15.32 9.65,23.476 28.68,39.184 54.14,60.801 98.26,102.833 35.32,33.656 79.12,61.75 123.68,81.832 41.48,18.699 275.98,93.449 331.6,108.316 16.94,4.527 42.36,15.664 54.79,7.422 17.25,-11.43 8.47,-33.942 -2.25,-47.379 -48.87,-61.211 -178.73,-105.629 -239.72,-134.227 28.39,-23.047 74.14,-18.129 121.52,1.903 61.5,38.441 118.3,83.707 169.33,134.734 19.55,19.555 38.26,39.953 56.06,61.141 32.35,43.355 58.65,85.859 83.36,123.496 6.18,9.426 12.51,17.554 18.79,24.34 76.89,137.394 120.72,295.797 120.72,464.434 z m -1702.56,0 c 0,194.93 159.719,354.41 354.879,354.41 h 15.926 v -135.97 h -10.309 c -120.336,0 -218.707,-98.24 -218.707,-218.41 0,-120.175 98.371,-218.414 218.707,-218.414 H 793.148 V 720.297 H 615.879 C 420.695,720.297 261,879.777 261,1074.7 Z m 165.125,0 z m 195.027,195.03 H 792.707 V 879.672 H 621.152 c -107.265,0 -195.027,87.762 -195.027,195.028 0,107.27 87.762,195.03 195.027,195.03 z M 1011.21,489.613 Z M 816.188,684.637 V 855.418 H 1206.25 V 684.637 c 0,-107.266 -87.77,-195.024 -195.04,-195.024 -107.261,0 -195.022,87.758 -195.022,195.024 z M 1011.21,324.484 Z M 656.332,678.887 v 18.504 H 792.488 V 684.5 c 0,-120.176 98.371,-218.414 218.702,-218.414 120.34,0 218.71,98.238 218.71,218.414 v 171.418 h 136.2 V 678.887 c 0,-194.922 -159.7,-354.403 -354.89,-354.403 -195.179,0 -354.878,159.508 -354.878,354.403"
       style="fill:#fefefe;fill-opacity:1;fill-rule:evenodd;stroke:none"
       transform="matrix(0.13333333,0,0,-0.13333333,0,278.66667)" />
    <path
       id="path11"
       d="m 2352.91,1653.77 h 8.03 c 23.32,0 38.8,2.71 46.45,8.15 7.65,5.43 11.5,15.04 11.5,28.88 0,14.91 -4.11,25.41 -12.32,31.54 -8.22,6.12 -23.45,9.16 -45.63,9.16 h -8.03 z m -2.65,-34.13 V 1498.3 h -41.33 v 271.11 h 61.43 c 18.01,0 31.97,-1.2 41.96,-3.53 9.92,-2.34 18.39,-6.2 25.4,-11.63 8.41,-6.57 14.85,-15.04 19.46,-25.41 4.56,-10.36 6.83,-21.67 6.83,-34.06 0,-21.67 -5.24,-38.67 -15.73,-50.99 -10.49,-12.27 -25.98,-19.66 -46.45,-22.13 l 93.28,-123.36 h -49.68 l -90.24,121.34 h -4.93"
       style="fill:#00a859;fill-opacity:1;fill-rule:nonzero;stroke:none"
       transform="matrix(0.13333333,0,0,-0.13333333,0,278.66667)" />
    <path
       id="path12"
       d="m 2520.13,1769.41 h 43.6 v -164.62 c 0,-24.39 5.63,-42.78 16.94,-55.04 11.31,-12.32 28.19,-18.46 50.69,-18.46 22.3,0 39.11,6.14 50.42,18.46 11.32,12.26 16.94,30.65 16.94,55.04 v 164.62 h 43.98 v -168.66 c 0,-36.66 -9.22,-64.15 -27.74,-82.35 -18.51,-18.2 -46.44,-27.3 -83.73,-27.3 -37.29,0 -65.09,9.1 -83.48,27.24 -18.39,18.14 -27.62,45.62 -27.62,82.41 v 168.66"
       style="fill:#00a859;fill-opacity:1;fill-rule:nonzero;stroke:none"
       transform="matrix(0.13333333,0,0,-0.13333333,0,278.66667)" />
    <path
       id="path13"
       d="m 3024.5,1632.16 c -0.51,2.08 -1.33,7.89 -2.41,17.38 -1.01,7.89 -1.89,14.46 -2.59,19.65 -1.13,-6.2 -2.71,-12.39 -4.74,-18.52 -2.02,-6.19 -4.61,-12.45 -7.71,-18.89 l -70.9,-144.47 -70.91,147.44 c -2.97,6.06 -5.56,11.88 -7.71,17.56 -2.15,5.69 -4.05,11.32 -5.62,16.88 -0.13,-5.69 -0.57,-11.63 -1.39,-17.89 -0.82,-6.25 -2.03,-12.76 -3.61,-19.52 l -29.06,-133.48 h -40.58 l 64.09,282.49 80,-171.07 c 1.2,-2.65 3.1,-7.2 5.62,-13.46 2.53,-6.32 5.56,-14.09 9.17,-23.32 2.59,7.77 6.69,17.63 12.26,29.58 1.45,3.22 2.59,5.68 3.28,7.39 l 78.18,170.88 65.53,-282.49 h -40.95 l -29.95,133.86"
       style="fill:#00a859;fill-opacity:1;fill-rule:nonzero;stroke:none"
       transform="matrix(0.13333333,0,0,-0.13333333,0,278.66667)" />
    <path
       id="path14"
       d="m 3187.86,1604.86 h 75.58 l -27.81,61.8 c -1.58,3.92 -3.29,8.47 -4.99,13.59 -1.71,5.11 -3.48,10.8 -5.18,17.12 -1.46,-5.94 -3.04,-11.44 -4.74,-16.55 -1.65,-5.12 -3.35,-9.86 -5.06,-14.16 z m 121.84,-106.56 -30.72,69.77 h -107.43 l -31.47,-69.77 h -46.26 l 131.26,281.74 131.13,-281.74 h -46.51"
       style="fill:#00a859;fill-opacity:1;fill-rule:nonzero;stroke:none"
       transform="matrix(0.13333333,0,0,-0.13333333,0,278.66667)" />
    <path
       id="path15"
       d="m 3381.68,1498.3 v 271.11 h 43.98 v -100.09 h 133.47 v 100.09 h 43.98 V 1498.3 h -43.98 v 131.58 H 3425.66 V 1498.3 h -43.98"
       style="fill:#00a859;fill-opacity:1;fill-rule:nonzero;stroke:none"
       transform="matrix(0.13333333,0,0,-0.13333333,0,278.66667)" />
    <path
       id="path16"
       d="m 3764.2,1552.59 35.13,16.24 c 3.35,-12.07 9.48,-21.29 18.39,-27.61 8.85,-6.39 20.23,-9.55 34.07,-9.55 13.14,0 23.5,3.67 31.28,10.94 7.71,7.27 11.56,17 11.56,29.19 0,15.93 -13.2,30.15 -39.68,42.6 -3.74,1.83 -6.58,3.22 -8.54,4.04 -29.89,14.6 -49.8,27.74 -59.71,39.56 -9.93,11.82 -14.92,26.23 -14.92,43.23 0,22.12 7.52,40 22.5,53.72 14.97,13.71 34.69,20.53 59.02,20.53 19.97,0 36.72,-3.85 50.18,-11.56 13.46,-7.71 22.75,-18.77 27.93,-33.18 l -34.38,-17.82 c -5.43,8.53 -11.37,14.79 -17.88,18.71 -6.51,3.98 -13.97,5.94 -22.37,5.94 -11.82,0 -21.3,-3.1 -28.25,-9.29 -7.01,-6.14 -10.49,-14.41 -10.49,-24.78 0,-16.3 15.35,-31.53 46.01,-45.56 2.33,-1.14 4.16,-2.03 5.56,-2.59 26.79,-12.39 45.18,-24.46 55.16,-36.21 9.99,-11.82 14.98,-26.55 14.98,-44.18 0,-25.66 -8.09,-46.07 -24.27,-61.17 -16.17,-15.1 -38.04,-22.69 -65.59,-22.69 -23.07,0 -41.96,5.31 -56.75,15.93 -14.73,10.61 -24.39,25.78 -28.94,45.56"
       style="fill:#00a859;fill-opacity:1;fill-rule:nonzero;stroke:none"
       transform="matrix(0.13333333,0,0,-0.13333333,0,278.66667)" />
    <path
       id="path17"
       d="m 4045.1,1604.86 h 75.58 l -27.8,61.8 c -1.58,3.92 -3.29,8.47 -5,13.59 -1.7,5.11 -3.47,10.8 -5.18,17.12 -1.45,-5.94 -3.03,-11.44 -4.74,-16.55 -1.64,-5.12 -3.35,-9.86 -5.05,-14.16 z m 121.84,-106.56 -30.71,69.77 H 4028.8 l -31.48,-69.77 h -46.25 l 131.25,281.74 131.13,-281.74 h -46.51"
       style="fill:#00a859;fill-opacity:1;fill-rule:nonzero;stroke:none"
       transform="matrix(0.13333333,0,0,-0.13333333,0,278.66667)" />
    <path
       id="path18"
       d="m 4238.92,1498.3 v 271.11 h 43.99 v -112.23 l 97.45,112.23 h 53.96 l -107.49,-120.57 120.26,-150.54 h -56.88 l -107.3,138.53 V 1498.3 h -43.99"
       style="fill:#00a859;fill-opacity:1;fill-rule:nonzero;stroke:none"
       transform="matrix(0.13333333,0,0,-0.13333333,0,278.66667)" />
    <path
       id="path19"
       d="m 4474.83,1498.3 v 271.11 h 43.99 V 1498.3 h -43.99"
       style="fill:#00a859;fill-opacity:1;fill-rule:nonzero;stroke:none"
       transform="matrix(0.13333333,0,0,-0.13333333,0,278.66667)" />
    <path
       id="path20"
       d="M 4669.79,1731.88 V 1498.3 h -43.99 v 233.58 h -72.04 v 37.53 h 187.69 v -37.53 h -71.66"
       style="fill:#00a859;fill-opacity:1;fill-rule:nonzero;stroke:none"
       transform="matrix(0.13333333,0,0,-0.13333333,0,278.66667)" />
    <path
       id="path21"
       d="m 4888.45,1769.41 h 43.6 v -164.62 c 0,-24.39 5.62,-42.78 16.94,-55.04 11.31,-12.32 28.18,-18.46 50.68,-18.46 22.31,0 39.12,6.14 50.43,18.46 11.31,12.26 16.94,30.65 16.94,55.04 v 164.62 h 43.98 v -168.66 c 0,-36.66 -9.23,-64.15 -27.74,-82.35 -18.52,-18.2 -46.45,-27.3 -83.74,-27.3 -37.28,0 -65.09,9.1 -83.48,27.24 -18.39,18.14 -27.61,45.62 -27.61,82.41 v 168.66"
       style="fill:#00a859;fill-opacity:1;fill-rule:nonzero;stroke:none"
       transform="matrix(0.13333333,0,0,-0.13333333,0,278.66667)" />
    <path
       id="path22"
       d="m 5392.81,1632.16 c -0.51,2.08 -1.33,7.89 -2.4,17.38 -1.01,7.89 -1.9,14.46 -2.59,19.65 -1.14,-6.2 -2.72,-12.39 -4.74,-18.52 -2.03,-6.19 -4.62,-12.45 -7.71,-18.89 l -70.91,-144.47 -70.91,147.44 c -2.96,6.06 -5.55,11.88 -7.7,17.56 -2.15,5.69 -4.05,11.32 -5.63,16.88 -0.12,-5.69 -0.56,-11.63 -1.39,-17.89 -0.82,-6.25 -2.02,-12.76 -3.6,-19.52 l -29.07,-133.48 h -40.57 l 64.08,282.49 80,-171.07 c 1.21,-2.65 3.1,-7.2 5.63,-13.46 2.53,-6.32 5.56,-14.09 9.16,-23.32 2.59,7.77 6.7,17.63 12.26,29.58 1.46,3.22 2.59,5.68 3.29,7.39 l 78.17,170.88 65.53,-282.49 h -40.95 l -29.95,133.86"
       style="fill:#00a859;fill-opacity:1;fill-rule:nonzero;stroke:none"
       transform="matrix(0.13333333,0,0,-0.13333333,0,278.66667)" />
    <path
       id="path23"
       d="m 5497.78,1769.41 h 43.6 v -164.62 c 0,-24.39 5.63,-42.78 16.94,-55.04 11.31,-12.32 28.18,-18.46 50.68,-18.46 22.31,0 39.12,6.14 50.43,18.46 11.31,12.26 16.94,30.65 16.94,55.04 v 164.62 h 43.98 v -168.66 c 0,-36.66 -9.22,-64.15 -27.74,-82.35 -18.52,-18.2 -46.45,-27.3 -83.73,-27.3 -37.29,0 -65.09,9.1 -83.49,27.24 -18.39,18.14 -27.61,45.62 -27.61,82.41 v 168.66"
       style="fill:#00a859;fill-opacity:1;fill-rule:nonzero;stroke:none"
       transform="matrix(0.13333333,0,0,-0.13333333,0,278.66667)" />
    <path
       id="path24"
       d="m 6002.14,1632.16 c -0.5,2.08 -1.32,7.89 -2.4,17.38 -1.01,7.89 -1.9,14.46 -2.59,19.65 -1.13,-6.2 -2.72,-12.39 -4.74,-18.52 -2.02,-6.19 -4.61,-12.45 -7.71,-18.89 l -70.91,-144.47 -70.9,147.44 c -2.97,6.06 -5.56,11.88 -7.71,17.56 -2.15,5.69 -4.05,11.32 -5.63,16.88 -0.12,-5.69 -0.56,-11.63 -1.38,-17.89 -0.83,-6.25 -2.03,-12.76 -3.61,-19.52 l -29.07,-133.48 h -40.57 l 64.08,282.49 80.01,-171.07 c 1.2,-2.65 3.1,-7.2 5.62,-13.46 2.53,-6.32 5.56,-14.09 9.16,-23.32 2.6,7.77 6.7,17.63 12.26,29.58 1.46,3.22 2.59,5.68 3.29,7.39 l 78.18,170.88 65.53,-282.49 h -40.95 l -29.96,133.86"
       style="fill:#00a859;fill-opacity:1;fill-rule:nonzero;stroke:none"
       transform="matrix(0.13333333,0,0,-0.13333333,0,278.66667)" />
    <path
       id="path25"
       d="m 6266.68,1538.12 h 37.09 c 20.36,0 35.65,1.33 45.82,4.04 10.24,2.72 19.09,7.34 26.61,13.72 10.23,8.78 17.94,19.65 23.06,32.73 5.12,13.02 7.71,28.19 7.71,45.44 0,17.32 -2.59,32.42 -7.71,45.44 -5.12,13.08 -12.83,23.95 -23.06,32.73 -7.65,6.39 -16.81,11 -27.49,13.72 -10.69,2.72 -27.43,4.04 -50.18,4.04 h -15.93 -15.92 z m -43.98,-39.82 v 271.11 h 59.34 c 38.67,0 65.84,-1.95 81.64,-5.81 15.74,-3.92 29.52,-10.42 41.39,-19.53 15.68,-12 27.56,-27.36 35.65,-46.13 8.09,-18.77 12.13,-40.19 12.13,-64.27 0,-24.08 -4.04,-45.37 -12.13,-63.95 -8.09,-18.58 -19.97,-33.94 -35.65,-46.07 -11.87,-9.1 -25.34,-15.61 -40.5,-19.53 -15.11,-3.85 -38.68,-5.82 -70.66,-5.82 h -11.87 -59.34"
       style="fill:#00a859;fill-opacity:1;fill-rule:nonzero;stroke:none"
       transform="matrix(0.13333333,0,0,-0.13333333,0,278.66667)" />
    <path
       id="path26"
       d="m 6553.96,1604.86 h 75.59 l -27.81,61.8 c -1.58,3.92 -3.28,8.47 -4.99,13.59 -1.71,5.11 -3.48,10.8 -5.18,17.12 -1.46,-5.94 -3.03,-11.44 -4.74,-16.55 -1.65,-5.12 -3.35,-9.86 -5.06,-14.16 z m 121.85,-106.56 -30.72,69.77 h -107.43 l -31.47,-69.77 h -46.26 l 131.26,281.74 131.13,-281.74 h -46.51"
       style="fill:#00a859;fill-opacity:1;fill-rule:nonzero;stroke:none"
       transform="matrix(0.13333333,0,0,-0.13333333,0,278.66667)" />
    <path
       id="path27"
       d="m 6747.79,1498.3 v 271.11 h 151.28 v -37.53 h -107.3 V 1664 h 107.3 v -38.67 h -107.3 v -87.59 h 107.3 v -39.44 h -151.28"
       style="fill:#00a859;fill-opacity:1;fill-rule:nonzero;stroke:none"
       transform="matrix(0.13333333,0,0,-0.13333333,0,278.66667)" />
    <path
       id="path28"
       d="m 6993.55,1653.77 h 8.03 c 23.32,0 38.8,2.71 46.45,8.15 7.65,5.43 11.5,15.04 11.5,28.88 0,14.91 -4.11,25.41 -12.32,31.54 -8.22,6.12 -23.45,9.16 -45.63,9.16 h -8.03 z m -2.65,-34.13 V 1498.3 h -41.33 v 271.11 H 7011 c 18.01,0 31.97,-1.2 41.96,-3.53 9.92,-2.34 18.39,-6.2 25.4,-11.63 8.41,-6.57 14.85,-15.04 19.47,-25.41 4.55,-10.36 6.82,-21.67 6.82,-34.06 0,-21.67 -5.24,-38.67 -15.73,-50.99 -10.49,-12.27 -25.97,-19.66 -46.45,-22.13 l 93.28,-123.36 h -49.68 l -90.24,121.34 h -4.93"
       style="fill:#00a859;fill-opacity:1;fill-rule:nonzero;stroke:none"
       transform="matrix(0.13333333,0,0,-0.13333333,0,278.66667)" />
    <path
       id="path29"
       d="m 7219.16,1604.86 h 75.59 l -27.81,61.8 c -1.58,3.92 -3.29,8.47 -4.99,13.59 -1.71,5.11 -3.48,10.8 -5.18,17.12 -1.46,-5.94 -3.04,-11.44 -4.74,-16.55 -1.65,-5.12 -3.35,-9.86 -5.06,-14.16 z M 7341,1498.3 l -30.71,69.77 h -107.43 l -31.47,-69.77 h -46.26 l 131.26,281.74 131.13,-281.74 H 7341"
       style="fill:#00a859;fill-opacity:1;fill-rule:nonzero;stroke:none"
       transform="matrix(0.13333333,0,0,-0.13333333,0,278.66667)" />
    <path
       id="path30"
       d="m 7412.98,1498.3 v 271.11 h 43.99 v -100.09 h 133.47 v 100.09 h 43.98 V 1498.3 h -43.98 v 131.58 H 7456.97 V 1498.3 h -43.99"
       style="fill:#00a859;fill-opacity:1;fill-rule:nonzero;stroke:none"
       transform="matrix(0.13333333,0,0,-0.13333333,0,278.66667)" />
    <path
       id="path31"
       d="m 2425.15,861.258 h -104.09 v 406.672 h 116.03 c 45.31,0 77.16,-2.19 95.55,-6.64 18.3,-4.45 33.84,-12.04 46.64,-22.75 14.98,-12.42 26.45,-27.97 34.32,-46.54 7.86,-18.68 11.75,-39.34 11.75,-62.09 0,-24.27 -3.89,-45.6 -11.66,-63.99 -7.77,-18.49 -19.24,-33.56 -34.41,-45.41 -11.47,-8.9 -25.03,-15.26 -40.57,-19.15 -15.55,-3.883 -40.48,-5.872 -74.7,-5.872 h -18.86 -20 z m 0,223.522 h 21.14 c 26.63,0 45.21,3.7 55.73,11 10.53,7.3 15.84,19.72 15.84,37.35 0,17.06 -5.22,29.19 -15.55,36.4 -10.33,7.2 -28.72,10.81 -54.98,10.81 h -22.18 v -95.56"
       style="fill:#00a859;fill-opacity:1;fill-rule:nonzero;stroke:none"
       transform="matrix(0.13333333,0,0,-0.13333333,0,278.66667)" />
    <path
       id="path32"
       d="m 2675.31,861.258 v 280.402 h 93.37 v -66.07 c 9.67,24.17 22.75,42.18 39.43,54.22 16.69,12.04 36.88,18.1 60.58,18.1 3.88,0 7.87,-0.09 11.85,-0.37 3.98,-0.29 7.96,-0.76 12.03,-1.33 l -9.66,-89.87 c -5.88,2 -11.76,3.42 -17.45,4.37 -5.78,0.85 -11.27,1.32 -16.68,1.32 -23.98,0 -42.46,-7.39 -55.55,-22.08 -12.98,-14.7 -19.53,-35.55 -19.53,-62.571 V 861.258 h -98.39"
       style="fill:#00a859;fill-opacity:1;fill-rule:nonzero;stroke:none"
       transform="matrix(0.13333333,0,0,-0.13333333,0,278.66667)" />
    <path
       id="path33"
       d="m 3127.95,1000.8 c 0,20.85 -5.31,37.34 -15.83,49.38 -10.52,12.04 -24.83,18.11 -42.75,18.11 -18.11,0 -32.42,-6.07 -42.94,-18.11 -10.43,-12.04 -15.64,-28.53 -15.64,-49.38 0,-20.952 5.21,-37.448 15.54,-49.39 10.33,-11.945 24.74,-17.918 43.04,-17.918 18.1,0 32.42,5.973 42.94,17.918 10.43,11.942 15.64,28.438 15.64,49.39 z m 98.4,0 c 0,-20.195 -3.99,-39.437 -11.85,-57.542 -7.87,-18.203 -19.25,-34.508 -34.32,-48.914 -15.17,-14.41 -32.13,-25.406 -50.9,-32.801 -18.87,-7.395 -38.77,-11.09 -59.91,-11.09 -21.52,0 -41.62,3.695 -60.39,11.09 -18.86,7.395 -35.64,18.391 -50.43,32.801 -14.88,14.125 -26.16,30.238 -33.93,48.437 -7.78,18.297 -11.66,37.637 -11.66,58.019 0,20.47 3.88,39.81 11.56,58.01 7.68,18.11 18.96,34.41 34.03,48.91 14.6,14.22 31.29,25.03 50.15,32.23 18.77,7.21 38.96,10.81 60.67,10.81 21.7,0 41.9,-3.6 60.57,-10.81 18.67,-7.2 35.45,-18.01 50.24,-32.23 15.27,-14.69 26.73,-31.09 34.51,-49.2 7.77,-18.1 11.66,-37.44 11.66,-57.72"
       style="fill:#00a859;fill-opacity:1;fill-rule:nonzero;stroke:none"
       transform="matrix(0.13333333,0,0,-0.13333333,0,278.66667)" />
    <path
       id="path34"
       d="M 3292.89,861.258 V 1071.7 h -42.18 v 69.96 h 42.18 v 57.54 c 0,32.61 8.91,57.16 26.64,73.56 17.82,16.49 44.45,24.74 79.81,24.74 5.03,0 11,-0.47 17.92,-1.42 6.92,-0.85 14.41,-2.18 22.37,-3.79 v -75.56 c -4.45,1.71 -8.53,3.04 -12.32,3.89 -3.89,0.86 -7.3,1.24 -10.43,1.24 -9.29,0 -16.11,-2.75 -20.38,-8.35 -4.27,-5.59 -6.35,-14.6 -6.35,-27.11 v -44.74 h 49.48 v -69.96 h -49.48 V 861.258 h -97.26"
       style="fill:#00a859;fill-opacity:1;fill-rule:nonzero;stroke:none"
       transform="matrix(0.13333333,0,0,-0.13333333,0,278.66667)" />
    <path
       id="path35"
       d="m 3469.5,906.762 c 0,15.734 5.3,28.91 16.01,39.621 10.62,10.715 23.8,16.117 39.63,16.117 16.11,0 29.48,-5.402 40.29,-16.117 10.71,-10.711 16.11,-23.887 16.11,-39.621 0,-15.735 -5.4,-29.008 -16.31,-39.91 -10.8,-10.903 -24.17,-16.399 -40.09,-16.399 -15.64,0 -28.73,5.496 -39.53,16.399 -10.71,10.902 -16.11,24.175 -16.11,39.91"
       style="fill:#00a859;fill-opacity:1;fill-rule:nonzero;stroke:none"
       transform="matrix(0.13333333,0,0,-0.13333333,0,278.66667)" />
    <path
       id="path36"
       d="m 4042.62,1001.18 c 0,21.8 -5.78,39.05 -17.35,51.66 -11.47,12.61 -27.3,18.86 -47.21,18.86 -20,0 -35.73,-6.25 -47.2,-18.86 -11.47,-12.61 -17.16,-29.86 -17.16,-51.66 0,-21.996 5.69,-39.246 17.06,-51.762 11.38,-12.512 27.11,-18.77 47.3,-18.77 19.91,0 35.74,6.258 47.21,18.864 11.57,12.605 17.35,29.863 17.35,51.668 z m 87.78,290.63 V 861.258 h -91.1 v 45.504 c -12.61,-18.867 -26.73,-32.989 -42.47,-42.278 -15.73,-9.386 -33.17,-14.031 -52.42,-14.031 -39.43,0 -70.81,13.649 -94.13,40.856 -23.32,27.203 -34.98,63.89 -34.98,109.961 0,44.65 11.66,80.77 34.89,108.25 23.22,27.5 53.46,41.24 90.81,41.24 23.7,0 43.04,-4.27 57.92,-12.8 14.88,-8.53 28.15,-22.84 39.81,-42.85 -1.14,6.64 -1.89,14.23 -2.46,22.66 -0.57,8.44 -0.86,17.63 -0.86,27.4 v 146.64 h 94.99"
       style="fill:#00a859;fill-opacity:1;fill-rule:nonzero;stroke:none"
       transform="matrix(0.13333333,0,0,-0.13333333,0,278.66667)" />
    <path
       id="path37"
       d="m 4204.43,861.258 v 280.402 h 93.37 v -66.07 c 9.67,24.17 22.75,42.18 39.43,54.22 16.69,12.04 36.88,18.1 60.58,18.1 3.89,0 7.87,-0.09 11.85,-0.37 3.98,-0.29 7.96,-0.76 12.04,-1.33 l -9.67,-89.87 c -5.88,2 -11.75,3.42 -17.44,4.37 -5.79,0.85 -11.28,1.32 -16.69,1.32 -23.98,0 -42.46,-7.39 -55.54,-22.08 -12.99,-14.7 -19.53,-35.55 -19.53,-62.571 V 861.258 h -98.4"
       style="fill:#00a859;fill-opacity:1;fill-rule:nonzero;stroke:none"
       transform="matrix(0.13333333,0,0,-0.13333333,0,278.66667)" />
    <path
       id="path38"
       d="m 4397.34,906.762 c 0,15.734 5.3,28.91 16.02,39.621 10.61,10.715 23.79,16.117 39.62,16.117 16.11,0 29.48,-5.402 40.29,-16.117 10.71,-10.711 16.11,-23.887 16.11,-39.621 0,-15.735 -5.4,-29.008 -16.3,-39.91 -10.81,-10.903 -24.17,-16.399 -40.1,-16.399 -15.64,0 -28.72,5.496 -39.53,16.399 -10.71,10.902 -16.11,24.175 -16.11,39.91"
       style="fill:#00a859;fill-opacity:1;fill-rule:nonzero;stroke:none"
       transform="matrix(0.13333333,0,0,-0.13333333,0,278.66667)" />
    <path
       id="path39"
       d="m 4763.05,861.258 v 406.672 h 110.91 v -158.12 h 147.88 v 158.12 h 110.91 V 861.258 H 5021.84 V 1026.77 H 4873.96 V 861.258 h -110.91"
       style="fill:#00a859;fill-opacity:1;fill-rule:nonzero;stroke:none"
       transform="matrix(0.13333333,0,0,-0.13333333,0,278.66667)" />
    <path
       id="path40"
       d="m 5198.92,906.762 c 0,15.734 5.3,28.91 16.02,39.621 10.61,10.715 23.79,16.117 39.62,16.117 16.11,0 29.48,-5.402 40.29,-16.117 10.71,-10.711 16.11,-23.887 16.11,-39.621 0,-15.735 -5.4,-29.008 -16.3,-39.91 -10.81,-10.903 -24.18,-16.399 -40.1,-16.399 -15.64,0 -28.72,5.496 -39.53,16.399 -10.71,10.902 -16.11,24.175 -16.11,39.91"
       style="fill:#00a859;fill-opacity:1;fill-rule:nonzero;stroke:none"
       transform="matrix(0.13333333,0,0,-0.13333333,0,278.66667)" />
    <path
       id="path41"
       d="m 5672.22,1013.12 h 110.25 l -41.43,134.23 c -1.23,4.07 -3.03,10.61 -5.21,19.71 -2.28,9.11 -5.12,20.76 -8.63,34.98 -2.36,-9.95 -4.74,-19.52 -7.11,-28.62 -2.27,-9.01 -4.64,-17.73 -7.01,-26.07 z m -155.36,-151.862 140.39,406.672 h 138.87 L 5936.6,861.258 h -110.24 l -20.57,72.805 h -157.45 l -21.14,-72.805 h -110.34"
       style="fill:#00a859;fill-opacity:1;fill-rule:nonzero;stroke:none"
       transform="matrix(0.13333333,0,0,-0.13333333,0,278.66667)" />
    <path
       id="path42"
       d="m 5975.38,861.258 v 406.672 h 110.91 V 956.242 h 137.64 v -94.984 h -248.55"
       style="fill:#00a859;fill-opacity:1;fill-rule:nonzero;stroke:none"
       transform="matrix(0.13333333,0,0,-0.13333333,0,278.66667)" />
    <path
       id="path43"
       d="m 6685.57,1063.74 c 0,-29.29 -5.4,-56.69 -16.11,-82.185 -10.71,-25.594 -26.35,-48.442 -46.92,-68.633 -20.77,-20.004 -44.46,-35.359 -71.1,-46.258 -26.64,-10.809 -54.32,-16.211 -82.94,-16.211 -29.11,0 -56.98,5.402 -83.52,16.211 -26.54,10.899 -49.86,26.254 -70.05,46.258 -20.95,20.191 -36.78,43.133 -47.68,68.914 -10.81,25.694 -16.21,52.994 -16.21,81.904 0,29.1 5.4,56.4 16.21,82.09 10.9,25.59 26.73,48.53 47.68,68.72 20.19,20 43.51,35.36 70.05,46.27 26.54,10.8 54.41,16.21 83.52,16.21 28.81,0 56.68,-5.41 83.41,-16.21 26.73,-10.91 50.25,-26.27 70.63,-46.27 20.38,-20 35.92,-42.84 46.82,-68.62 10.81,-25.7 16.21,-53.09 16.21,-82.19 z M 6468.3,944.297 c 30.72,0 56.12,11.281 76.22,33.844 20.09,22.659 30.14,51.189 30.14,85.599 0,34.03 -10.14,62.47 -30.52,85.31 -20.38,22.75 -45.69,34.13 -75.84,34.13 -30.71,0 -56.11,-11.38 -76.21,-34.03 -20.09,-22.66 -30.14,-51.19 -30.14,-85.41 0,-34.79 9.85,-63.42 29.67,-85.791 19.81,-22.465 45.4,-33.652 76.68,-33.652"
       style="fill:#00a859;fill-opacity:1;fill-rule:nonzero;stroke:none"
       transform="matrix(0.13333333,0,0,-0.13333333,0,278.66667)" />
    <path
       id="path44"
       d="m 6754.96,861.258 v 406.672 h 249.12 v -89.3 h -141.05 v -70.53 h 132.99 v -87.02 h -132.99 v -68.818 h 141.05 v -91.004 h -249.12"
       style="fill:#00a859;fill-opacity:1;fill-rule:nonzero;stroke:none"
       transform="matrix(0.13333333,0,0,-0.13333333,0,278.66667)" />
    <path
       id="path45"
       d="m 7080.2,861.258 v 406.672 h 112.05 V 861.258 H 7080.2"
       style="fill:#00a859;fill-opacity:1;fill-rule:nonzero;stroke:none"
       transform="matrix(0.13333333,0,0,-0.13333333,0,278.66667)" />
    <path
       id="path46"
       d="m 7477.57,992.641 c 16.5,-18.672 32.71,-32.606 48.73,-41.899 16.02,-9.191 31.95,-13.836 47.87,-13.836 14.79,0 27.02,3.981 36.5,11.946 9.57,7.961 14.31,18.007 14.31,30.234 0,13.465 -4.08,23.894 -12.32,31.194 -8.25,7.29 -26.83,14.88 -55.84,22.65 -39.81,10.71 -68.06,24.74 -84.55,41.9 -16.5,17.25 -24.74,40.86 -24.74,70.81 0,38.96 12.99,70.62 39.05,95.17 25.97,24.56 59.82,36.78 101.24,36.78 22.47,0 43.7,-3.03 63.8,-9 20.09,-6.07 39.15,-15.17 57.16,-27.4 l -34.79,-79.62 c -12.61,10.71 -25.5,18.77 -38.77,24.27 -13.18,5.4 -26.26,8.14 -39.25,8.14 -13.27,0 -24.08,-3.22 -32.42,-9.57 -8.34,-6.35 -12.51,-14.6 -12.51,-24.55 0,-10.15 3.6,-18.29 10.9,-24.46 7.3,-6.06 21.43,-11.94 42.28,-17.44 l 5.03,-1.42 c 45.21,-12.23 74.98,-25.59 89.2,-40.29 9.66,-9.95 16.96,-21.99 21.99,-35.93 5.02,-14.02 7.49,-29.48 7.49,-46.539 0,-43.133 -14.13,-77.824 -42.47,-103.988 -28.34,-26.258 -66.17,-39.34 -113.37,-39.34 -28.35,0 -54.13,4.836 -77.45,14.41 -23.23,9.668 -45.6,24.739 -67.02,45.313 l 49.95,82.465"
       style="fill:#00a859;fill-opacity:1;fill-rule:nonzero;stroke:none"
       transform="matrix(0.13333333,0,0,-0.13333333,0,278.66667)" />
    <path
       id="path47"
       d="m 7897.52,1013.12 h 110.24 l -41.43,134.23 c -1.23,4.07 -3.03,10.61 -5.21,19.71 -2.28,9.11 -5.12,20.76 -8.62,34.98 -2.37,-9.95 -4.75,-19.52 -7.11,-28.62 -2.28,-9.01 -4.65,-17.73 -7.02,-26.07 z m -155.37,-151.862 140.39,406.672 h 138.87 l 140.48,-406.672 h -110.24 l -20.57,72.805 h -157.45 l -21.15,-72.805 h -110.33"
       style="fill:#00a859;fill-opacity:1;fill-rule:nonzero;stroke:none"
       transform="matrix(0.13333333,0,0,-0.13333333,0,278.66667)" />
    <path
       id="path48"
       d="m 8303.61,1105.26 h 22.19 c 27.39,0 46.16,3.03 56.4,9 10.14,6.07 15.26,16.5 15.26,31.29 0,15.35 -4.74,26.06 -14.32,32.32 -9.48,6.16 -28.05,9.29 -55.64,9.29 h -23.89 z M 8200.66,861.258 v 406.672 h 111.58 c 45.88,0 77.92,-1.52 96.21,-4.46 18.21,-2.94 33.85,-8.06 47.02,-15.26 14.98,-8.34 26.45,-19.53 34.32,-33.46 7.86,-14.03 11.75,-30.15 11.75,-48.54 0,-23.13 -5.88,-41.52 -17.63,-55.17 -11.75,-13.56 -30.52,-23.89 -56.31,-31 28.82,-2.18 51.47,-12.32 67.69,-30.33 16.3,-18.1 24.45,-42.18 24.45,-72.421 0,-21.617 -4.55,-40.668 -13.74,-57.164 -9.1,-16.492 -22.28,-29.289 -39.25,-38.293 -13.84,-7.398 -31,-12.703 -51.28,-15.832 -20.38,-3.129 -53.65,-4.742 -99.92,-4.742 z m 102.95,83.039 h 38.87 c 26.25,0 44.84,3.32 55.74,9.859 10.9,6.637 16.3,17.633 16.3,32.989 0,17.065 -5.02,28.915 -14.98,35.735 -9.95,6.73 -28.43,10.14 -55.36,10.14 h -40.57 v -88.723"
       style="fill:#00a859;fill-opacity:1;fill-rule:nonzero;stroke:none"
       transform="matrix(0.13333333,0,0,-0.13333333,0,278.66667)" />
    <path
       id="path49"
       d="m 9003.86,1063.74 c 0,-29.29 -5.41,-56.69 -16.12,-82.185 -10.71,-25.594 -26.35,-48.442 -46.92,-68.633 -20.77,-20.004 -44.46,-35.359 -71.1,-46.258 -26.63,-10.809 -54.32,-16.211 -82.94,-16.211 -29.11,0 -56.98,5.402 -83.52,16.211 -26.54,10.899 -49.86,26.254 -70.05,46.258 -20.95,20.191 -36.78,43.133 -47.68,68.914 -10.81,25.694 -16.21,52.994 -16.21,81.904 0,29.1 5.4,56.4 16.21,82.09 10.9,25.59 26.73,48.53 47.68,68.72 20.19,20 43.51,35.36 70.05,46.27 26.54,10.8 54.41,16.21 83.52,16.21 28.81,0 56.68,-5.41 83.42,-16.21 26.73,-10.91 50.24,-26.27 70.62,-46.27 20.38,-20 35.92,-42.84 46.82,-68.62 10.81,-25.7 16.22,-53.09 16.22,-82.19 z M 8786.59,944.297 c 30.71,0 56.11,11.281 76.21,33.844 20.1,22.659 30.15,51.189 30.15,85.599 0,34.03 -10.15,62.47 -30.53,85.31 -20.38,22.75 -45.69,34.13 -75.83,34.13 -30.71,0 -56.12,-11.38 -76.22,-34.03 -20.09,-22.66 -30.14,-51.19 -30.14,-85.41 0,-34.79 9.86,-63.42 29.67,-85.791 19.81,-22.465 45.4,-33.652 76.69,-33.652"
       style="fill:#00a859;fill-opacity:1;fill-rule:nonzero;stroke:none"
       transform="matrix(0.13333333,0,0,-0.13333333,0,278.66667)" />
    <path
       id="path50"
       d="m 9073.24,861.258 v 406.672 h 249.12 v -89.3 h -141.05 v -70.53 h 132.99 v -87.02 h -132.99 v -68.818 h 141.05 v -91.004 h -249.12"
       style="fill:#00a859;fill-opacity:1;fill-rule:nonzero;stroke:none"
       transform="matrix(0.13333333,0,0,-0.13333333,0,278.66667)" />
    <path
       id="path51"
       d="m 2312.82,315.836 v 305 h 49.48 V 494.574 l 109.63,126.262 h 60.71 l -120.93,-135.648 135.3,-169.352 h -63.99 L 2362.3,471.68 V 315.836 h -49.48"
       style="fill:#00a859;fill-opacity:1;fill-rule:nonzero;stroke:none"
       transform="matrix(0.13333333,0,0,-0.13333333,0,278.66667)" />
    <path
       id="path52"
       d="m 2823.21,467.699 c 0,15.426 -2.84,30.071 -8.46,43.934 -5.61,13.867 -13.72,26.234 -24.24,37.043 -10.31,10.738 -22.18,18.91 -35.69,24.668 -13.58,5.761 -27.87,8.676 -42.8,8.676 -15,0 -29.29,-2.844 -42.87,-8.532 -13.51,-5.687 -25.6,-13.933 -36.12,-24.812 -10.52,-10.664 -18.63,-22.965 -24.17,-36.828 -5.55,-13.864 -8.32,-28.578 -8.32,-44.149 0,-15.429 2.77,-30.004 8.32,-43.726 5.54,-13.719 13.65,-26.02 24.17,-36.828 10.52,-10.875 22.54,-19.125 36.05,-24.813 13.44,-5.687 27.8,-8.531 42.94,-8.531 14.86,0 28.94,2.844 42.37,8.531 13.37,5.688 25.45,13.938 36.12,24.813 10.52,10.808 18.63,23.109 24.24,36.898 5.62,13.863 8.46,28.371 8.46,43.656 z m 51.62,0 c 0,-21.687 -4.06,-42.16 -12.16,-61.429 -8.17,-19.336 -19.98,-36.543 -35.54,-51.688 -15.65,-15.141 -33.35,-26.73 -53.12,-34.762 -19.69,-8.035 -40.38,-12.086 -61.99,-12.086 -21.97,0 -42.87,4.051 -62.85,12.157 -19.91,8.175 -37.47,19.691 -52.75,34.691 -15.57,15.145 -27.37,32.281 -35.41,51.477 -8.03,19.125 -12.08,39.671 -12.08,61.64 0,21.824 4.05,42.371 12.08,61.637 8.04,19.34 19.84,36.617 35.41,51.898 15.57,15.149 33.2,26.664 52.89,34.555 19.7,7.895 40.6,11.871 62.71,11.871 21.9,0 42.66,-3.976 62.35,-11.871 19.62,-7.891 37.26,-19.406 52.76,-34.555 15.56,-15.425 27.37,-32.843 35.54,-52.179 8.1,-19.41 12.16,-39.813 12.16,-61.356"
       style="fill:#00a859;fill-opacity:1;fill-rule:nonzero;stroke:none"
       transform="matrix(0.13333333,0,0,-0.13333333,0,278.66667)" />
    <path
       id="path53"
       d="M 3014.96,578.605 V 315.836 h -49.48 v 262.769 h -81.05 v 42.231 h 211.15 v -42.231 h -80.62"
       style="fill:#00a859;fill-opacity:1;fill-rule:nonzero;stroke:none"
       transform="matrix(0.13333333,0,0,-0.13333333,0,278.66667)" />
    <path
       id="path54"
       d="m 3166.82,435.707 h 85.03 l -31.28,69.531 c -1.78,4.407 -3.7,9.528 -5.62,15.282 -1.92,5.761 -3.91,12.16 -5.83,19.269 -1.63,-6.684 -3.41,-12.871 -5.33,-18.629 -1.85,-5.758 -3.77,-11.09 -5.69,-15.922 z m 137.07,-119.871 -34.55,78.488 h -120.86 l -35.41,-78.488 h -52.04 l 147.67,316.945 147.52,-316.945 h -52.33"
       style="fill:#00a859;fill-opacity:1;fill-rule:nonzero;stroke:none"
       transform="matrix(0.13333333,0,0,-0.13333333,0,278.66667)" />
    <path
       id="path55"
       d="m 3682.62,471.965 h 120.65 c 0,-2.063 0.07,-4.981 0.21,-8.746 0.43,-9.883 0.65,-16.496 0.65,-19.981 0,-42.871 -12.31,-76.215 -36.83,-99.886 -24.6,-23.747 -59.23,-35.618 -103.87,-35.618 -25.03,0 -47.28,3.696 -66.84,11.016 -19.55,7.398 -36.75,18.484 -51.39,33.344 -14.44,14.719 -25.53,31.996 -33.21,51.902 -7.75,19.836 -11.59,41.094 -11.59,63.703 0,23.031 3.91,44.289 11.73,63.774 7.89,19.406 19.48,36.539 34.91,51.398 14.86,14.574 32.28,25.664 52.26,33.344 19.97,7.609 41.38,11.445 64.13,11.445 23.96,0 45.5,-4.406 64.41,-13.152 18.91,-8.742 35.83,-22.11 50.69,-40.164 l -36.12,-27.305 c -10.3,11.945 -21.89,20.832 -34.84,26.664 -12.86,5.828 -27.29,8.742 -43.29,8.742 -33.06,0 -60.01,-10.593 -80.91,-31.777 -20.9,-21.191 -31.35,-48.703 -31.35,-82.543 0,-34.484 10.45,-62.426 31.35,-83.824 20.9,-21.469 47.99,-32.207 81.33,-32.207 28.3,0 50.62,6.613 66.84,19.765 16.28,13.227 24.38,31.141 24.38,53.961 v 4.34 h -73.3 v 41.805"
       style="fill:#00a859;fill-opacity:1;fill-rule:nonzero;stroke:none"
       transform="matrix(0.13333333,0,0,-0.13333333,0,278.66667)" />
    <path
       id="path56"
       d="m 4117.3,467.699 c 0,15.426 -2.84,30.071 -8.46,43.934 -5.62,13.867 -13.72,26.234 -24.25,37.043 -10.3,10.738 -22.18,18.91 -35.69,24.668 -13.57,5.761 -27.86,8.676 -42.79,8.676 -15,0 -29.3,-2.844 -42.88,-8.532 -13.5,-5.687 -25.59,-13.933 -36.11,-24.812 -10.52,-10.664 -18.63,-22.965 -24.17,-36.828 -5.55,-13.864 -8.32,-28.578 -8.32,-44.149 0,-15.429 2.77,-30.004 8.32,-43.726 5.54,-13.719 13.65,-26.02 24.17,-36.828 10.52,-10.875 22.54,-19.125 36.04,-24.813 13.44,-5.687 27.8,-8.531 42.95,-8.531 14.85,0 28.93,2.844 42.37,8.531 13.36,5.688 25.45,13.938 36.11,24.813 10.53,10.808 18.63,23.109 24.25,36.898 5.62,13.863 8.46,28.371 8.46,43.656 z m 51.61,0 c 0,-21.687 -4.05,-42.16 -12.15,-61.429 -8.18,-19.336 -19.98,-36.543 -35.55,-51.688 -15.64,-15.141 -33.34,-26.73 -53.11,-34.762 -19.69,-8.035 -40.38,-12.086 -61.99,-12.086 -21.97,0 -42.88,4.051 -62.85,12.157 -19.91,8.175 -37.47,19.691 -52.76,34.691 -15.57,15.145 -27.37,32.281 -35.4,51.477 -8.04,19.125 -12.09,39.671 -12.09,61.64 0,21.824 4.05,42.371 12.09,61.637 8.03,19.34 19.83,36.617 35.4,51.898 15.57,15.149 33.21,26.664 52.9,34.555 19.69,7.895 40.59,11.871 62.71,11.871 21.89,0 42.65,-3.976 62.35,-11.871 19.62,-7.891 37.25,-19.406 52.75,-34.555 15.57,-15.425 27.37,-32.843 35.55,-52.179 8.1,-19.41 12.15,-39.813 12.15,-61.356"
       style="fill:#00a859;fill-opacity:1;fill-rule:nonzero;stroke:none"
       transform="matrix(0.13333333,0,0,-0.13333333,0,278.66667)" />
    <path
       id="path57"
       d="m 4275.2,490.73 h 9.03 c 26.23,0 43.65,3.059 52.26,9.176 8.6,6.114 12.94,16.918 12.94,32.489 0,16.777 -4.62,28.578 -13.87,35.476 -9.24,6.899 -26.37,10.309 -51.33,10.309 h -9.03 z m -2.98,-38.386 V 315.836 h -46.5 v 305 h 69.11 c 20.26,0 35.97,-1.348 47.2,-3.981 11.17,-2.628 20.69,-6.968 28.58,-13.082 9.46,-7.39 16.71,-16.918 21.9,-28.582 5.12,-11.656 7.68,-24.382 7.68,-38.316 0,-24.387 -5.9,-43.512 -17.71,-57.379 -11.8,-13.789 -29.21,-22.109 -52.25,-24.883 l 104.94,-138.777 h -55.88 l -101.53,136.508 h -5.54"
       style="fill:#00a859;fill-opacity:1;fill-rule:nonzero;stroke:none"
       transform="matrix(0.13333333,0,0,-0.13333333,0,278.66667)" />
    <path
       id="path58"
       d="m 4725.66,467.699 c 0,15.426 -2.84,30.071 -8.45,43.934 -5.62,13.867 -13.73,26.234 -24.25,37.043 -10.31,10.738 -22.18,18.91 -35.69,24.668 -13.58,5.761 -27.87,8.676 -42.8,8.676 -15,0 -29.29,-2.844 -42.87,-8.532 -13.51,-5.687 -25.59,-13.933 -36.12,-24.812 -10.52,-10.664 -18.62,-22.965 -24.17,-36.828 -5.54,-13.864 -8.31,-28.578 -8.31,-44.149 0,-15.429 2.77,-30.004 8.31,-43.726 5.55,-13.719 13.65,-26.02 24.17,-36.828 10.53,-10.875 22.54,-19.125 36.05,-24.813 13.43,-5.687 27.8,-8.531 42.94,-8.531 14.86,0 28.94,2.844 42.37,8.531 13.37,5.688 25.46,13.938 36.12,24.813 10.52,10.808 18.63,23.109 24.25,36.898 5.61,13.863 8.45,28.371 8.45,43.656 z m 51.62,0 c 0,-21.687 -4.05,-42.16 -12.16,-61.429 -8.17,-19.336 -19.98,-36.543 -35.55,-51.688 -15.64,-15.141 -33.34,-26.73 -53.11,-34.762 -19.69,-8.035 -40.37,-12.086 -61.99,-12.086 -21.97,0 -42.87,4.051 -62.84,12.157 -19.92,8.175 -37.47,19.691 -52.76,34.691 -15.57,15.145 -27.37,32.281 -35.41,51.477 -8.03,19.125 -12.08,39.671 -12.08,61.64 0,21.824 4.05,42.371 12.08,61.637 8.04,19.34 19.84,36.617 35.41,51.898 15.57,15.149 33.2,26.664 52.9,34.555 19.69,7.895 40.59,11.871 62.7,11.871 21.9,0 42.66,-3.976 62.35,-11.871 19.63,-7.891 37.26,-19.406 52.75,-34.555 15.57,-15.425 27.38,-32.843 35.55,-52.179 8.11,-19.41 12.16,-39.813 12.16,-61.356"
       style="fill:#00a859;fill-opacity:1;fill-rule:nonzero;stroke:none"
       transform="matrix(0.13333333,0,0,-0.13333333,0,278.66667)" />
    <path
       id="path59"
       d="m 4834.09,315.836 v 316.945 l 193.8,-186.34 c 5.27,-5.261 10.6,-10.878 16.07,-16.851 5.4,-5.973 11.09,-12.727 17.06,-20.192 v 211.438 h 45.65 V 303.891 l -197.58,189.828 c -5.26,5.191 -10.38,10.594 -15.28,16.281 -4.98,5.688 -9.6,11.656 -14.08,17.918 V 315.836 h -45.64"
       style="fill:#00a859;fill-opacity:1;fill-rule:nonzero;stroke:none"
       transform="matrix(0.13333333,0,0,-0.13333333,0,278.66667)" />
    <path
       id="path60"
       d="M 5275.23,578.605 V 315.836 h -49.48 v 262.769 h -81.05 v 42.231 h 211.16 v -42.231 h -80.63"
       style="fill:#00a859;fill-opacity:1;fill-rule:nonzero;stroke:none"
       transform="matrix(0.13333333,0,0,-0.13333333,0,278.66667)" />
    <path
       id="path61"
       d="m 5427.09,435.707 h 85.04 l -31.29,69.531 c -1.77,4.407 -3.7,9.528 -5.61,15.282 -1.92,5.761 -3.91,12.16 -5.84,19.269 -1.63,-6.684 -3.41,-12.871 -5.33,-18.629 -1.85,-5.758 -3.76,-11.09 -5.68,-15.922 z m 137.08,-119.871 -34.56,78.488 h -120.86 l -35.4,-78.488 h -52.05 l 147.67,316.945 147.53,-316.945 h -52.33"
       style="fill:#00a859;fill-opacity:1;fill-rule:nonzero;stroke:none"
       transform="matrix(0.13333333,0,0,-0.13333333,0,278.66667)" />
    <path
       id="path62"
       d="m 5645.15,315.836 v 305 h 49.48 V 360.203 h 110.91 v -44.367 h -160.39"
       style="fill:#00a859;fill-opacity:1;fill-rule:nonzero;stroke:none"
       transform="matrix(0.13333333,0,0,-0.13333333,0,278.66667)" />
    <path
       id="path63"
       d="m 6091.56,467.699 c 0,15.426 -2.85,30.071 -8.46,43.934 -5.62,13.867 -13.72,26.234 -24.24,37.043 -10.31,10.738 -22.18,18.91 -35.7,24.668 -13.57,5.761 -27.86,8.676 -42.79,8.676 -15,0 -29.3,-2.844 -42.87,-8.532 -13.52,-5.687 -25.6,-13.933 -36.12,-24.812 -10.52,-10.664 -18.63,-22.965 -24.17,-36.828 -5.55,-13.864 -8.32,-28.578 -8.32,-44.149 0,-15.429 2.77,-30.004 8.32,-43.726 5.54,-13.719 13.65,-26.02 24.17,-36.828 10.52,-10.875 22.53,-19.125 36.05,-24.813 13.43,-5.687 27.79,-8.531 42.94,-8.531 14.86,0 28.93,2.844 42.37,8.531 13.37,5.688 25.45,13.938 36.12,24.813 10.52,10.808 18.62,23.109 24.24,36.898 5.61,13.863 8.46,28.371 8.46,43.656 z m 51.62,0 c 0,-21.687 -4.06,-42.16 -12.16,-61.429 -8.18,-19.336 -19.98,-36.543 -35.55,-51.688 -15.64,-15.141 -33.34,-26.73 -53.11,-34.762 -19.69,-8.035 -40.38,-12.086 -61.99,-12.086 -21.97,0 -42.87,4.051 -62.85,12.157 -19.91,8.175 -37.47,19.691 -52.75,34.691 -15.57,15.145 -27.38,32.281 -35.41,51.477 -8.04,19.125 -12.09,39.671 -12.09,61.64 0,21.824 4.05,42.371 12.09,61.637 8.03,19.34 19.84,36.617 35.41,51.898 15.57,15.149 33.19,26.664 52.89,34.555 19.7,7.895 40.59,11.871 62.71,11.871 21.9,0 42.65,-3.976 62.35,-11.871 19.62,-7.891 37.25,-19.406 52.75,-34.555 15.57,-15.425 27.37,-32.843 35.55,-52.179 8.1,-19.41 12.16,-39.813 12.16,-61.356"
       style="fill:#00a859;fill-opacity:1;fill-rule:nonzero;stroke:none"
       transform="matrix(0.13333333,0,0,-0.13333333,0,278.66667)" />
  </g>
</svg>
